<?xml version="1.0" encoding="UTF-8"?>
<svg id="b" data-name="Layer 2" xmlns="http://www.w3.org/2000/svg" width="1498.324" height="640.113" viewBox="0 0 1498.324 640.113">
  <g id="c" data-name="Layer 2">
    <g>
      <path d="M1246.747,481.606c7.787.27,15.521.618,23.344,1.087,10.381.623,20.866,1.456,31.27,2.202,3.769.271,7.59.515,11.373.763-.097-.14.208-.277-.007-.401-.216-.124-.598-.238-.92-.268-5.144-.472-10.379-.913-15.522-1.392-15.909-1.481-31.77-2.956-47.722-3.798-.582.638-1.185,1.243-1.815,1.807Z" fill="none" stroke-width="0"/>
      <path d="M1150.685,373.212c-4.638-1.918-11.72-1.863-16.126,2.421-4.896,4.76-6.759,10.676-7.015,17.235-.205,5.25,1.074,10.259,2.916,15.143,2.169,5.75,5.035,11.185,7.558,16.774,3.136,6.946,5.324,14.144,5.909,21.94.455-.611.646-1.032.691-1.518.376-3.956.739-7.914,1.137-11.868.485-4.823.987-9.644,1.505-14.463.765-7.108,1.546-14.214,2.327-21.321.564-5.131,1.156-10.259,1.705-15.392.245-2.292.433-4.59.607-6.888.071-.934-.218-1.652-1.214-2.064Z" fill="none" stroke-width="0"/>
      <path d="M432.612,503.846c-.242,3.535-.965,6.888-2.206,10.016,5.637.909,11.284,1.76,16.934,2.579,6.067.88,12.174,1.669,18.276,2.416-.219-.241-.433-.493-.637-.758-1.649-2.148-3.412-4.215-5.213-6.239-3.556-3.995-4.304-8.55-2.951-13.597.074-.276.166-.542.246-.815-3.267-.552-6.532-1.118-9.794-1.708-5.086-.919-10.163-1.917-15.229-2.96.611,3.637.83,7.325.574,11.067Z" fill="none" stroke-width="0"/>
      <path d="M1123.094,315.74c.3,3.327,1.608,5.744,4.998,7.062,5.693,2.214,10.947,1.795,15.731-2.005,6.687-5.312,10.115-18.078,2.387-25.959-3.042-3.102-4.858-6.818-5.023-11.26-.156-.034-.312-.069-.468-.103-.59,1.107-1.154,2.23-1.775,3.32-2.101,3.685-4.896,6.865-7.488,10.191-2.797,3.59-5.49,7.242-7.176,11.518-.916,2.323-1.415,4.718-1.187,7.238Z" fill="none" stroke-width="0"/>
      <path d="M594.814,520.366c-5.466.72-10.964.85-16.46.961-6.943.141-13.885.375-20.825.575-5.182.149-10.374.163-15.548.443-5.583.302-11.174.203-16.747.495-5.025.264-10.052.233-15.07.465-.801.037-1.603.056-2.404.081,5.372.483,10.749.935,16.077,1.308,10.374.727,20.697,1.155,31.036,1.388,7.58.17,15.082.208,22.615.217,6.119.007,12.194-.086,18.281-.221,6.724-.149,13.425-.449,20.117-.764,8.56-.404,17.104-.871,25.632-1.347,1.057-.059,2.104-.129,3.158-.191-1.729-1.342-3.336-2.943-4.8-4.847-1.651-2.148-3.447-4.183-5.145-6.295-.781-.972-1.435-1.958-1.979-2.957-1.294.026-2.589.06-3.883.08-4.548.07-9.079.195-13.646.269-5.458,5.984-12.306,9.275-20.409,10.342Z" fill="none" stroke-width="0"/>
      <path d="M662.49,508.915c7.248-.301,14.493-.632,21.74-.956,7.485-.334,14.975-.565,22.458-.985,4.697-.264,9.405-.343,14.108-.5,1.916-.064,3.844.003,5.745-.198,4.921-.521,9.866-.458,14.797-.726,6.84-.372,13.698-.455,20.487-1.503,2.27-.35,4.448-.857,6.543-1.505-6.644.445-13.284.891-19.928,1.332-8.009.532-15.973,1.087-23.975,1.617-5.698.377-11.373.763-17.077,1.109-4.013.244-8.028.453-12.055.618-14.682.599-29.364,1.363-44.051,1.914.156.018.307.049.465.059,3.59.226,7.161-.127,10.742-.276Z" fill="none" stroke-width="0"/>
      <path d="M1061.427,508.867c-5.806.822-11.599,1.647-17.39,2.394-12.639,1.629-25.322,3.465-37.797,5.283s-24.67,3.787-37.011,5.631c-11.128,1.664-22.205,3.149-33.263,4.675-6.571.906-13.176,1.907-19.634,2.697-11.972,1.463-23.93,2.804-35.781,4.164-10.368,1.19-20.849,2.109-31.003,3.486s-19.891,2.647-29.91,3.95c-8.247,1.072-16.499,1.976-24.679,3.115-10.472,1.458-20.844,2.861-31.284,4.269-9.831,1.325-19.583,2.926-29.398,4.293-10.878,1.515-21.727,2.924-32.625,4.376-11.89,1.584-23.86,2.914-35.775,4.41-6.108.767-12.154,1.619-18.293,2.294-6.603.727-13.289,1.273-19.924,1.881-5.32.487-10.612,1.11-15.937,1.622-4.17.401-8.295.738-12.498,1.069-6.385.502-12.829.795-19.255,1.099-4.393.208-8.794.405-13.214.514-14.915.365-29.789.56-44.739.555-6.404-.002-12.864-.039-19.306-.219-4.13-.116-8.327-.326-12.477-.531-5.108-.252-10.242-.546-15.354-.82-3.677-.197-7.36-.347-11.032-.62-6.302-.469-12.602-1.01-18.896-1.582-6.935-.63-13.879-1.237-20.799-2.028-7.955-.91-15.888-1.897-23.808-3.06-9.349-1.372-18.7-2.753-28.002-4.355-7.252-1.25-14.469-2.726-21.646-4.311-15.532-3.431-31.016-7.17-46.207-11.803-9.839-3-19.594-6.373-29.115-9.991-9.521-3.619-18.638-7.568-27.852-11.726-7.24-3.268-14.277-6.909-21.169-10.822-8.073-4.583-15.894-9.39-23.621-14.55-7.181-4.796-13.838-10.205-20.444-15.824-.356-.303-1.076-.503-1.542-.655.625,2.956,1.775,5.851,2.999,8.572,2.07,4.6,4.318,8.956,6.251,13.584,1.179,2.822,2.094,5.659,2.837,8.668.557,2.257.334,4.331-.631,6.506-.602,1.354-1.412,2.791-2.002,4.181.622.477,1.249,1.051,1.908,1.469,4.389,2.781,8.624,5.758,13.083,8.408,12.519,7.438,25.272,14.335,38.587,20.225,11.851,5.242,23.873,9.923,36.185,13.967,11.091,3.643,22.3,6.97,33.594,9.988,12.458,3.33,25.078,6.029,37.782,8.285,9.775,1.735,19.557,3.282,29.389,4.712,8.086,1.176,16.24,2.077,24.373,2.949,11.716,1.257,23.475,2.379,35.211,3.354,9.501.79,19.01,1.309,28.517,1.825,7.188.391,14.369.609,21.552.824,6.071.181,12.176.292,18.232.346,6.782.06,13.542.017,20.297-.148,10.166-.249,20.214-.505,30.377-1.102,10.163-.596,20.442-1.248,30.613-1.912,6.52-.425,13.021-1.064,19.499-1.744,6.014-.631,11.981-1.241,17.985-1.905,8.39-.929,16.875-1.873,25.22-2.961,6.353-.828,12.57-1.76,18.871-2.681,7.289-1.065,14.563-1.927,21.853-3.009,8.809-1.307,17.656-2.766,26.458-4.128,11.457-1.773,22.868-3.562,34.3-5.448,9.92-1.637,19.683-3.234,29.646-4.89,14.069-2.338,28.08-4.338,42.29-6.497s28.497-4.636,42.878-6.56c9-1.204,18.091-2.562,27.224-3.86,10.302-1.464,20.719-2.859,31.127-4.541,10.958-1.771,22.071-3.64,33.094-5.639,9.514-1.725,19.142-3.405,28.704-5.183,10.442-1.942,20.936-3.756,31.419-5.646,13.841-2.497,27.652-4.742,41.578-7.045,11.915-1.971,23.939-4.096,35.943-5.853,10.868-1.591,21.584-3.175,32.583-4.476,11.487-1.359,23.376-2.627,34.933-3.815,12.384-1.272,24.583-2.479,37.009-3.392,12.012-.882,23.993-1.264,36.129-1.793,9.127-.398,18.552-.975,27.759-1.122,13.011-.207,25.993-.427,39.03-.438,16.34-.013,32.709.047,49.051.24.976.012,1.93-.013,2.898-.031-.048-.191-.098-.383-.144-.574-3.189-.095-6.324-.162-9.521-.309-7.934-.366-15.841-.792-23.809-1.076-9.073-.324-18.242-.705-27.334-1.043-11.555-.431-23.178-.882-34.715-1.063-9.833-.155-19.787.085-29.562.11-13.666.035-27.355.25-40.894.808-16.715.689-33.099,1.989-49.701,3.277-10.79.837-21.587,1.677-32.306,2.924-1.24.145-2.486.278-3.73.417-7.326,1.656-14.7,3.091-22.13,4.239-7.331,1.132-14.72,1.49-22.103,1.128Z" fill="none" stroke-width="0"/>
      <path d="M1137.52,482.073c6.742-.29,13.498-.606,20.262-.881-.811-.785-1.538-1.641-2.259-2.506-.197-.237-.389-.478-.585-.715-5.25.153-10.515.309-15.766.451-.511,1.235-1.063,2.452-1.652,3.651Z" fill="none" stroke-width="0"/>
      <path d="M1032.299,496.993c-3.479.361-6.959.728-10.445,1.113-6.781.749-13.519,1.605-20.246,2.351-.808,3.447-2.629,6.482-5.432,9.122,7.268-1.033,14.55-2.06,21.89-3.027,7.507-.989,15.02-1.966,22.54-2.927-1.83-1.045-3.583-2.271-5.244-3.701-1.074-.926-2.088-1.909-3.062-2.931Z" fill="none" stroke-width="0"/>
      <path d="M302.044,522.708c-1.491-1.968-3.092-3.856-4.699-5.733-4.941-5.767-7.028-12.572-7.391-20.021-.204-4.183.201-8.207,1.073-12.109-2.938-1.429-5.86-2.891-8.766-4.388-7.566-3.898-14.905-8.227-22.162-12.706-7.999-4.938-15.467-10.581-22.858-16.4-1.799-1.417-3.613-2.939-5.44-4.337-13.336,8.055-27.324,12.898-42.263,17.094.185.275.465.78.691.977,2.135,1.853,4.146,3.794,6.352,5.5,5.171,4.002,10.134,8.26,15.54,11.925,11.594,7.862,23.432,15.146,35.978,21.361,14.417,7.143,29.199,13.248,44.314,18.684,4.577,1.646,9.19,3.17,13.831,4.604-1.517-1.294-2.923-2.766-4.2-4.45Z" fill="none" stroke-width="0"/>
      <path d="M306.37,454.585c-3.613-1.57-7.206-3.191-10.757-4.888-7.831-3.741-15.538-7.647-23.151-11.823-7.179-3.938-14.249-8.04-21.145-12.477-7.433-4.783-14.65-9.848-21.82-15.046-4.897-3.551-9.497-7.415-14.235-11.242-2.371-1.915-4.533-3.878-6.918-5.982-2.385-2.104-5.032-4.358-7.396-6.671-4.016-3.931-7.987-8.063-11.947-12.094-.509-.518-.904-1.114-1.677-1.235-.565,2.971-1.088,6.058-1.719,8.999-.531,2.476-1.32,4.964-1.825,7.364-.252,1.2-.348,2.742-.421,3.732-.367,4.972.812,7.172,5.043,9.523.169.094.307.104.454.168,7.938,3.441,15.936,6.578,23.834,10.125,5.641,2.533,10.881,5.438,15.92,9.155,4.445,3.28,7.464,7.227,9.342,12.497.169.474.448,1.031.84,1.385,1.241,1.118,2.44,2.311,3.768,3.313,5.691,4.293,11.147,8.94,17.019,12.982,10.687,7.354,21.653,14.282,33.284,20.038.699.346,1.403.681,2.104,1.023.712-1.54,1.481-3.065,2.306-4.575,2.716-4.967,5.838-9.665,9.096-14.271Z" fill="none" stroke-width="0"/>
      <path d="M1166.15,486.786c-10.689.421-21.548,1.088-32.228,1.593-.116.176-.225.356-.343.531-1.336,1.974-2.854,3.686-4.507,5.201,6.961-.504,13.966-.943,20.856-1.436,9.622-.688,19.086-1.297,28.652-1.733-1.643-.391-3.283-.81-4.915-1.29-2.598-.763-5.113-1.703-7.515-2.866Z" fill="none" stroke-width="0"/>
      <path d="M1229.75,489.819c14.961.018,29.978.036,44.983.495,12.107.37,24.317.853,36.441,1.511,7.254.394,14.568.725,21.814,1.085,2.452.122,4.804.249,7.241.367-.014-.177-.029-.355-.036-.533-3.3-.297-6.479-.599-9.801-.837-10.462-.749-20.82-1.556-31.34-2.331-10.521-.775-21.301-1.287-31.859-1.907-9.51-.558-19.021-.77-28.528-.962-1.193.532-2.414,1.02-3.663,1.458-1.74.612-3.493,1.15-5.252,1.654Z" fill="none" stroke-width="0"/>
      <path d="M1144.656,460.225c-.076-.474-.097-.946-.71-1.369-.367,4.639-1.223,9.096-2.568,13.443-.023.075-.049.148-.073.223,2.999-.049,6.002-.1,9.011-.152-.041-.047-.079-.096-.119-.143-2.997-3.481-4.815-7.486-5.54-12.001Z" fill="none" stroke-width="0"/>
      <path d="M942.465,515.134c-14.538.164-28.932,1.633-43.121,4.918-6.285,1.455-12.546,3.022-18.962,3.864-5.981.785-11.905.75-17.755-.846-4.542-1.239-8.189-3.887-11.214-7.418-.152-.178-.3-.36-.452-.539-3.045.246-6.089.495-9.131.779-10.93,1.019-21.582,2-32.43,2.965-10.848.965-21.58,2.209-32.393,3.316-2.044.209-4.097.416-6.146.623-2.909.498-5.833.77-8.764.891-4.021.409-8.041.821-12.042,1.254-8.492.918-16.884,1.784-25.381,2.64-7.579.763-15.229,1.469-22.824,2.245-6.137.627-12.293,1.265-18.437,1.774-8.07.668-16.116,1.263-24.184,1.965-5.765.501-11.48.926-17.276,1.326-5.103.352-10.23.686-15.376.91-16.279.708-32.493,1.635-48.832,1.576-9.298-.034-18.686-.067-28.043-.117-6.836-.036-13.67-.144-20.562-.576-8.952-.562-18.045-1.259-27.029-1.942-3.657-.278-7.333-.584-10.987-.966-7.786-.813-15.582-1.636-23.358-2.563-6.747-.805-13.502-1.582-20.216-2.633-8.213-1.286-16.413-2.505-24.591-3.934-3.469,3.187-7.571,5.447-12.078,7.008-6.691,2.317-13.603,3.262-20.642,3.618-12.782.647-25.572.054-38.353.343-3.993.09-7.987.277-11.977.16-.527-.016-1.054-.031-1.581-.046,4.458,1.049,8.928,2.045,13.41,2.969,12.123,2.5,24.307,4.666,36.532,6.621,11.436,1.829,22.972,3.48,34.455,4.832,11.482,1.351,22.898,2.276,34.392,3.292,9.255.818,18.505,1.43,27.767,2.09,5.591.398,11.203.597,16.776.843,8.279.366,16.586.696,24.827.84,7.536.131,15.056.242,22.53-.002,12.201-.399,24.353-.942,36.501-1.423,8.07-.319,16.002-.891,24.021-1.478,4.668-.342,9.317-.752,13.962-1.134,7.35-.604,14.722-1.184,22.036-1.889,5.621-.542,11.136-1.176,16.731-1.805,7.28-.819,14.604-1.542,21.881-2.34,8.121-.89,16.214-1.917,24.308-2.912,8.781-1.079,17.534-2.111,26.306-3.213,8.467-1.064,16.858-2.208,25.337-3.281,10.083-1.277,20.143-2.514,30.25-3.871,11.641-1.563,23.352-2.645,35.066-3.994,9.479-1.091,18.808-2.433,28.403-3.351,11.233-1.075,22.407-2.006,33.787-3.252,15.729-1.723,31.435-3.479,47.338-5.418,6.103-.744,12.272-1.539,18.455-2.354-.218-.011-.437-.027-.654-.038-3.423-.169-6.853-.36-10.278-.321Z" fill="none" stroke-width="0"/>
      <path d="M1314.86,505.301c-4.915.036-9.711.074-14.594.114-9.34.075-18.623.176-27.97.366-9.94.203-20.094.659-29.967,1.227-7.777.447-15.292.932-23.007,1.295-12.031.568-24.109,1.433-36.021,2.761-9.448,1.053-18.54,2.002-27.951,3.004-15.717,1.673-31.623,3.703-47.198,6.203-9.734,1.563-19.365,2.943-29.005,4.568-13.417,2.262-26.937,4.652-40.236,7.066-16.086,2.919-32.166,5.932-48.087,8.978s-31.747,6.279-47.56,9.013c-11.701,2.023-23.315,4.075-34.881,5.731-16.884,2.418-33.553,4.772-50.229,7.603-8.954,1.52-17.747,2.912-26.594,4.371-12.2,2.012-24.305,3.826-36.425,5.953-8.636,1.516-17.237,2.972-25.852,4.425-11.412,1.924-22.724,3.891-34.135,5.828-11.106,1.885-22.189,3.811-33.342,5.594-10.546,1.686-20.967,3.241-31.604,4.859s-21.468,3.236-32.23,4.618c-8.473,1.087-17.048,2.013-25.588,2.991-8.158.935-16.362,1.745-24.591,2.401-7.842.625-15.686,1.171-23.588,1.712-6.342.435-12.688.827-19.116.917-14.937.208-29.895.396-44.885.254-9.877-.094-19.826-.322-29.729-.644-5.664-.185-11.317-.462-16.991-.852-9.992-.687-20.018-1.318-30.002-2.249-11.904-1.109-23.79-2.25-35.641-3.837-10.979-1.469-21.907-3.151-32.798-5.133-9.549-1.738-19.052-3.62-28.508-5.786-10.394-2.38-20.703-5.077-30.975-7.914-7.257-2.003-14.456-4.302-21.551-6.785-9.284-3.25-18.514-6.563-27.621-10.251-7.995-3.238-15.83-6.861-23.571-10.698-14.571-7.222-28.41-15.455-41.938-24.513-1.129-.755-2.182-1.018-3.552-.913-3.753.288-7.466.306-11.131-.646-5.552-1.441-10.78-3.404-15.834-6.08-7.173-3.798-13.9-8.212-20.392-13.056-5.566-4.153-10.78-8.754-16.178-13.084-1.617-1.297-2.845-3.184-4.777-3.932-3.83-1.484-7.102-1.22-10.654.734-2.604,1.432-4.621,3.552-7.025,5.259-7.057,5.012-14.143,9.582-21.964,13.42-1.28.628-2.921,1.271-4.246,1.914.381.312.93.747,1.312,1.018,3.944,2.8,7.79,5.673,11.779,8.346,7.396,4.955,14.72,9.952,22.308,14.596,8.067,4.938,16.248,9.686,24.545,14.206,7.174,3.908,14.442,7.518,21.834,10.978,8.121,3.801,16.281,7.5,24.574,10.924,9.915,4.094,19.932,7.966,30.03,11.581,8.524,3.052,17.148,5.75,25.781,8.458,7.405,2.323,14.833,4.469,22.345,6.449,9.062,2.389,18.208,4.634,27.325,6.82,6.781,1.626,13.58,3.069,20.418,4.463,5.896,1.202,11.86,2.262,17.787,3.34,5.215.948,10.425,1.922,15.668,2.695,10.41,1.535,20.807,2.982,31.25,4.314,8.847,1.128,17.73,2.104,26.602,2.982,7.753.768,15.491,1.377,23.256,1.914,10.164.703,20.337,1.407,30.512,1.979,7.291.41,14.651.71,21.931.894,8.492.213,16.927.196,25.402.279,1.281.012,2.56-.008,3.834-.03,14.16-.242,28.361-.453,42.499-.883,5.953-.181,11.917-.467,17.818-.778,7.232-.381,14.449-.901,21.604-1.522,8.166-.709,16.268-1.542,24.367-2.398,9.565-1.011,19.156-1.964,28.651-3.188,10.49-1.351,20.867-2.968,31.277-4.562,10.792-1.652,21.529-3.466,32.261-5.28,10.732-1.814,21.412-3.692,32.1-5.602,12.118-2.166,24.145-4.389,36.241-6.677,10.893-2.06,21.774-4.145,32.691-6.201,9.791-1.844,19.496-3.603,29.351-5.431,11.452-2.124,22.943-4.061,34.491-6.165,12.537-2.285,24.923-4.652,37.635-6.722,13.407-2.183,26.953-4.645,40.451-7.217,11.707-2.232,23.565-4.789,35.299-7.317,11.179-2.409,22.394-4.91,33.61-7.316,8.788-1.885,17.578-3.743,26.394-5.665,9.681-2.111,19.444-4.224,29.165-6.268,5.531-1.163,11.052-2.28,16.607-3.395,6.429-1.29,12.884-2.618,19.34-3.837,6.858-1.295,13.698-2.608,20.57-3.871,5.668-1.042,11.271-1.957,16.997-2.957,4.602-.805,9.538-1.613,14.173-2.239,7.555-1.02,14.984-1.934,22.497-3.006,8.807-1.257,17.458-2.715,26.314-3.986,5.442-.781,11.182-1.182,16.705-1.673,7.17-.637,14.235-1.251,21.42-1.919,8.095-.752,16.167-1.499,24.322-2.271,6.489-.615,13.237-1.099,19.772-1.408,8.297-.393,16.459-.68,24.763-1.112,9.055-.472,18.229-.961,27.307-1.397,2.144-.103,4.265-.248,6.4-.363-.749-.346-1.579-.54-2.392-.544-6.478-.032-13.015.111-19.455.158Z" fill="none" stroke-width="0"/>
      <path d="M1001.881,493.085c3.394-.345,6.794-.687,10.219-1.029,4.904-.49,9.855-1.025,14.816-1.56-1.046-1.408-2.066-2.839-3.074-4.274-.218-.311-.399-.644-.563-.986-.121.009-.242.02-.363.029-7.57.593-15.124,1.226-22.664,1.884.772,1.857,1.341,3.809,1.625,5.896.001.013.002.026.004.039Z" fill="none" stroke-width="0"/>
      <path d="M82.844,483.129c3.818-2.801,7.556-5.89,11.264-8.722,3.248-2.48,6.321-2.989,10.143-1.886,2.982.861,5.607,2.375,8.087,4.107,5.214,3.643,10.001,7.709,14.905,11.706,6.655,5.422,12.947,11.137,20.126,15.895,6.693,4.436,13.622,7.716,21.489,9.61,3.059.737,6.094.68,9.039-.68,2.208-1.019,3.475-2.841,3.644-5.336.109-1.598-.194-3.364-.742-4.903-1.151-3.236-2.568-6.406-4.185-9.424-4.102-7.656-7.608-15.478-10.678-23.59-.227-.599-.486-1.218-.55-1.844-.437-4.323.116-7.92,3.155-11.158,2.401-2.558,5.419-4.159,8.605-5.432,7.403-2.958,15.096-4.459,22.827-6.162,5.931-1.306,11.859-2.452,17.742-3.926,1.593-.399,3.207-1.113,4.514-2.052,1.933-1.39,2.353-2.934,1.02-4.99-1.333-2.056-3.361-3.488-5.547-4.661-1.806-.969-3.749-1.775-5.625-2.654-5.845-2.738-11.8-5.218-17.869-7.43-2.908-1.06-5.942-1.938-8.689-3.369-4.103-2.135-7.757-4.71-10.4-8.532-3.119-4.511-4.456-9.372-4.765-14.767-.375-6.539.704-12.856,1.689-19.271.642-4.177,1.402-8.326,1.945-12.508.009-.067-.176.042-.188-.043-.094-.729.1-1.179-.025-1.968-.737-4.659-3.12-7.342-7.945-7.831-.955-.097-1.945-.021-2.861.235-6.948,1.946-12.846,5.004-18.232,9.788-3.844,3.414-7.082,7.402-10.472,11.164s-6.616,7.54-10.284,10.964c-2.854,2.665-5.998,4.684-9.407,6.513-1.442.773-2.815.828-4.36.351-2.126-.658-4.224-1.464-6.3-2.283-11.059-4.362-21.997-9.05-33.09-13.325-7.913-3.049-15.991-5.38-24.345-6.74-2.003-.326-4.011.01-5.87.491-2.304.596-3.583,2.826-3.307,4.922.447,3.386,1.643,5.954,3.471,8.635,1.641,2.407,3.673,4.391,5.449,6.649,4.338,5.517,8.89,10.765,13.079,16.411,3.391,4.57,6.474,9.205,8.387,14.642,1.009,2.868,1.331,5.83.835,8.886-.686,4.225-2.244,8.206-4.012,12.11-3.303,7.294-7.076,14.34-10.33,21.672-3.913,8.819-6.733,17.863-8.54,27.363-.533,2.807-.566,5.799.359,8.454.925,2.654,2.622,3.555,5.294,3.561,1.482.003,2.995-.484,4.378-1.04,4.876-1.959,9.311-4.678,13.618-7.648,4.626-3.191,9.046-6.647,13.554-9.955Z" fill="none" stroke-width="0"/>
      <path d="M796.072,510.785c7.604-.7,15.161-1.24,22.81-1.874,8.429-.699,16.794-1.49,25.267-2.112-2.006-2.723-3.391-5.65-3.993-8.84-1.705.084-3.41.168-5.107.265-9.836.561-19.523,1.23-29.274,1.821-.728.995-1.472,1.981-2.251,2.948-2.313,2.87-4.796,5.468-7.452,7.792Z" fill="none" stroke-width="0"/>
      <path d="M735.582,412.325c-4.936,1.179-8.615,4.107-11.276,8.29-3.253,5.114-3.713,10.896-3.735,16.739,1.002.296,1.669-.237,2.366-.579,2.583-1.268,5.058-2.727,7.408-4.389,6.938-4.908,12.917-10.897,18.961-16.812.154-.151.225-.386.414-.723-2.583-.21-4.872-1.014-7.121-2.034-2.245-1.019-4.612-1.067-7.018-.493Z" fill="none" stroke-width="0"/>
      <path d="M589.724,412.834c.176-.083.206-.195.085-.296-.028-.023-.092-.003-.143-.003-.023.045-.08.105-.067.145.019.062.109.163.125.155Z" fill="none" stroke-width="0"/>
      <path d="M564.168,422.989c-1.058-1.018-2.491-1.438-3.947-1.528-2.505-.156-4.722.728-6.664,2.226-2.895,2.232-4.918,4.966-4.798,8.872.044,1.414.497,2.35,1.89,2.955,3.858,1.675,7.777,2.172,11.873,1.085,5.722-1.519,10.37-4.807,14.562-8.829.829-.796,1.815-1.495,2.316-2.605-.631-.374-1.007.078-1.435.217-5.024,1.636-9.717,1.532-13.798-2.393Z" fill="none" stroke-width="0"/>
      <g>
        <path d="M351.461,0c1.864.791,3.884.49,5.821.768,7.39,1.06,14.464,3.231,21.455,5.715,4.733,1.681,9.465,3.379,14.03,5.498,4.25,1.973,8.074,4.483,11.011,8.225,1.722,2.195,3.541,4.316,5.354,6.439,4.096,4.797,5.038,10.365,3.982,16.388-.679,3.875-2.061,7.536-3.848,11.027-3.162,6.179-6.416,12.311-9.591,18.484-2.24,4.354-3.799,8.939-4.442,13.811-.03.227.047.469.094.875,2.668-.884,4.401-2.838,6.06-4.817,3.404-4.062,5.313-8.877,6.679-13.921,1.519-5.61,2.337-11.396,4.274-16.905,1.584-4.505,3.732-8.624,7.51-11.725,3.306-2.714,7.183-4.078,11.308-4.864,4.776-.911,9.624-1.282,14.444-1.846,8.458-.989,16.917-1.983,25.39-2.822,5.867-.581,11.747-.961,17.618.246,5.601,1.152,10.326,3.649,13.904,8.2,1.823,2.319,3.763,4.547,5.647,6.818,2.796,3.37,4.404,7.117,4.176,11.625-.217,4.295-2.141,7.616-5.326,10.285-2.656,2.226-5.793,3.652-8.987,4.919-3.186,1.264-6.382,2.508-9.614,3.649-8.292,2.927-14.027,8.63-17.932,16.339-6.048,11.942-10.389,24.501-13.371,37.53-1.955,8.541-3.241,17.189-3.923,25.934-.534,6.851-.654,13.717-.328,20.555.707,14.849,3.17,29.428,7.805,43.591,2.481,7.58-.781,14.212-8.362,16.879-4.148,1.459-8.435,1.654-12.757,1.445-6.525-.316-13.055-.597-19.567-1.091-8.408-.637-16.876-.63-25.199-2.224-7.359-1.409-14.154-4.033-19.377-9.641-3.095-3.323-5.951-6.873-8.665-10.521-2.457-3.303-3.624-7.056-3.685-11.163-.007-.447.107-.924-.29-1.459-1.078,2.454-1.954,4.913-3.355,7.126-3.867,6.109-9.405,10.123-16.019,12.754-5.933,2.36-12.155,3.386-18.501,3.112-6.14-.265-12.181-1.395-18.064-3.243-8.306-2.609-16.431-5.688-24.34-9.334-5.172-2.384-9.56-5.722-12.997-10.302-1.243-1.656-2.692-3.154-3.981-4.777-1.494-1.88-2.799-3.867-3.398-6.259-.162-.646-.215-1.43-.861-1.894v-3.837c.576-.284.666-.901.789-1.394.949-3.772,3.113-6.774,5.83-9.45,4.127-4.064,8.959-7.196,13.822-10.25,10.856-6.819,19.64-15.706,26.776-26.289,8.875-13.162,14.682-27.72,19.398-42.761,3.578-11.411,6.386-23.03,8.998-34.692,1.009-4.506,1.527-9.1.69-13.743-.451-2.502-.434-2.618-2.803-3.037-2.782-.492-5.144-1.768-6.981-3.864-2.311-2.637-4.519-5.367-6.705-8.11-3.388-4.253-4.029-9.103-2.766-14.243,1.099-4.473,4.009-7.758,7.527-10.511,5.585-4.371,12.07-6.353,19.061-6.896.602-.047,1.291.267,1.784-.355h4.799ZM267.363,191.044c4.62,3.526,9.423,6.363,14.511,8.705,13.683,6.299,27.997,9.151,43.04,7.367,7.588-.9,13.688-4.494,17.952-11.011,2.579-3.941,4.021-8.304,5.157-12.804,1.793-7.099,1.512-14.389,1.87-21.61.205-4.136.086-8.289.559-12.416.547-4.769,1.475-9.447,3.396-13.873,3.307-7.622,8.723-12.964,16.966-14.877,8.167-1.895,15.888-.376,22.965,4.022,6.374,3.961,9.952,9.782,10.527,17.3.433,5.659-.602,11.096-2.708,16.371-2.814,7.047-7.038,13.218-11.615,19.186-4.272,5.57-8.739,11.001-12.4,17.014-1.784,2.93-3.538,5.891-4.499,9.218-1.316,4.554.08,7.56,4.365,9.553.506.235,1.03.436,1.558.616,12.629,4.31,25.655,6.36,38.96,6.661,6.781.154,13.538-.425,20.249-1.394,2.729-.394,5.496-.692,8.233-1.602-.234-.783-.413-1.472-.643-2.143-5.541-16.158-8.498-32.823-9.256-49.841-.376-8.432-.142-16.889.676-25.33.948-9.773,2.553-19.411,5.01-28.904,2.905-11.22,6.503-22.189,12.48-32.225,4.368-7.333,9.589-13.924,16.638-18.908,5.476-3.871,11.515-6.127,18.256-6.354,2.973-.1,5.23-1.577,5.73-4.134.555-2.839.257-5.472-2.787-7.25-2.016-1.178-4.168-1.924-6.541-2.096-5.119-.371-10.2.295-15.298.456-5.651.178-11.293.65-16.944.847-3.429.12-6.851.258-10.258.663-4.14.492-8.173,1.396-11.927,3.274-6.034,3.018-9.347,8.24-11.513,14.36-2.029,5.732-2.936,11.736-4.26,17.639-.978,4.363-2.146,8.661-4.318,12.626-3.982,7.268-12.038,10.611-19.299,7.46-8.162-3.542-12.545-10.164-13.415-18.929-.7-7.059,1.532-13.571,4.704-19.756,2.479-4.835,5.509-9.341,8.649-13.777,1.703-2.405,3.489-4.767,4.721-7.483,1.787-3.94,1.308-7.583-1.278-11.007-1.823-2.414-4.193-4.155-6.86-5.486-7.457-3.723-15.352-6.258-23.385-8.374-6.611-1.742-13.305-2.498-20.122-1.329-5.597.96-10.801,2.858-15.245,6.477-1.822,1.484-3.665,3.011-4.775,5.366,6.23.709,10.741,3.907,14.365,8.537,4.372,5.585,5.894,12.123,6.034,19.02.095,4.703-.575,9.374-1.583,13.969-2.598,11.834-5.543,23.584-8.96,35.208-3.719,12.651-8.24,24.989-14.701,36.545-5.776,10.331-12.94,19.515-22.023,27.189-5.735,4.846-11.875,9.167-17.669,13.931-4.812,3.957-9.443,8.083-13.288,13.335ZM364.579,194.374c1.761-3.973,3.921-7.666,6.289-11.237,7.232-10.908,14.492-21.797,21.732-32.699.528-.796,1.042-1.61,1.467-2.463,1.035-2.077,1.246-4.24.567-6.486-.27-.893-.746-1.501-1.625-1.905-2.934-1.35-5.935-1.595-9.05-.779-6.055,1.586-10.378,5.407-13.632,10.578-3.906,6.207-5.072,13.189-5.306,20.319-.269,8.2.244,16.421-.444,24.672Z" fill="#007cff" stroke-width="0"/>
        <path d="M1285.802,67.619c-.786,1.345-.424,2.914-.901,4.358-1.555,4.703-4.081,8.843-7.171,12.626-6.608,8.091-13.365,16.06-19.999,24.13-8.734,10.624-16.836,21.684-23.031,34.028-3.773,7.517-6.293,15.509-8.952,23.452-2.33,6.961-4.685,13.931-8.513,20.252-9.286,15.332-22.514,25.393-40.269,28.64-15.565,2.846-29.222-1.542-40.595-12.62-4.469-4.354-8.356-9.243-11.954-14.314-5.353-7.545-7.76-16.063-6.921-25.295.557-6.139,2.548-11.82,6.907-16.455,3.444-3.662,7.614-5.649,12.653-5.868,4.138-.18,7.929.719,11.19,3.37,1.372,1.115,2.49,2.501,3.469,3.944,1.754,2.586,4.188,2.973,6.955,2.441,3.019-.581,5.207-2.322,6.623-5.03,1.91-3.65,1.925-7.542,1.224-11.445-1.17-6.511-3.732-12.494-7.155-18.142-1.199-1.978-2.994-3.289-4.679-4.742-4.386-3.781-9.502-6.443-14.473-9.312-5.519-3.185-10.422-7.037-14.275-12.17-2.248-2.995-4.898-5.678-6.806-8.94-3.552-6.071-3.091-14.008,1.206-19.089,2.676-3.164,6.002-5.484,9.761-7.185,5.715-2.587,11.764-3.979,17.917-5.04,6.522-1.125,13.071-2.17,19.688-2.102,6.16.063,12.235.948,17.749,4.081,3.02,1.716,5.688,3.849,7.822,6.58,3.086,3.949,6.702,7.49,9.296,12.228.372-1.299.631-2.316.953-3.313,2.961-9.188,9.231-15.531,17.524-20.021,5.029-2.723,10.504-4.19,16.159-4.954,4.824-.651,9.682-1.137,14.542-.855,5.318.309,10.672.236,15.937,1.309,3.662.746,6.716,2.374,9.014,5.396,1.591,2.092,3.267,4.126,5.002,6.102,2.234,2.544,3.692,5.375,3.742,8.824.005.326.049.63.362.818v4.316ZM1161.342,56.479c-4.957-.109-10.85.144-16.695,1.055-5.732.894-10.989,2.833-14.891,7.403-3.339,3.911-4.699,8.279-2.736,13.285.676,1.723,1.745,3.21,3.018,4.564,2.944,3.13,6.542,5.357,10.285,7.337,7.375,3.901,14.342,8.314,20.161,14.413,9.272,9.717,15.772,20.836,17.524,34.326.88,6.775-.791,12.88-6.161,17.489-3.538,3.037-7.59,4.286-12.236,2.655-2.128-.747-4.114-1.737-5.982-2.979-2.194-1.46-4.326-3.02-6.569-4.4-3.43-2.109-7.147-2.691-11.024-1.486-2.729.849-4.494,2.614-4.841,5.616-.356,3.081-.739,6.155-1.028,9.247-.47,5.042-.387,10.029.707,14.963,1.303,5.876,4.106,10.866,9.14,14.392,4.029,2.822,8.613,4.152,13.441,4.533,10.048.793,19.73-.97,28.988-4.838,6.468-2.702,11.416-7.256,14.809-13.416,2.164-3.928,3.758-8.1,5.076-12.38,1.829-5.939,3.46-11.937,5.551-17.799,6.842-19.183,16.617-36.725,29.163-52.76,5.91-7.554,12.701-14.311,19.084-21.438,3.578-3.995,6.88-8.209,9.406-12.95,1.491-2.799,2.992-5.653,2.921-8.997-.072-3.373-1.64-5.004-4.997-5.02-4.628-.021-9.251-.004-13.871.448-5.579.546-11.06,1.453-16.308,3.497-8.137,3.169-14.131,8.574-17.275,16.827-1.861,4.883-2.088,9.835.341,14.618,1.754,3.453,2.461,7.031,1.825,10.838-.97,5.807-3.773,10.568-8.831,13.632-9.364,5.672-20.359,1.538-25.695-4.587-5.161-5.923-6.231-12.894-4.491-20.401.989-4.27,2.883-8.085,5.783-11.402,1.162-1.329,2.071-2.752,2.121-4.676.097-3.706-1.474-6.446-4.457-8.476-2.302-1.566-4.944-2.161-7.639-2.582-4.2-.656-8.434-.537-13.616-.553ZM1202.745,81.867c-.571,1.252-1.539,3.515-2.223,4.587-1.456,2.282-2.241,4.831-3.679,7.126-1.248,1.992-1.183,4.812-1.602,7.095-.249,1.354.231,1.794,1.597,1.432,1.323-.351,2.459-1.076,3.501-1.986,3.873-3.381,4.833-7.738,4.128-12.568-.175-1.197-.711-4.489-1.724-5.687Z" fill="#007cff" stroke-width="0"/>
        <path d="M1230.713,365.676c.399-6.75.834-13.498,1.269-20.245.205-3.177.351-6.361.674-9.526.856-8.38,1.746-16.759,2.719-25.126.636-5.459,1.512-10.885,3.355-16.101,1.671-4.729,4.024-9.049,7.811-12.432,1.841-1.645,3.834-3.119,5.751-4.68,5.729-4.664,7-10.737,3.993-17.58-.946-2.152-2.455-3.903-3.967-5.659-2.233-2.594-4.098-5.521-6.721-7.76-5.029-4.293-11.177-5.673-17.513-6.21-7.911-.67-15.761.138-23.548,1.62-9.809,1.866-19.356,4.729-28.906,7.573-6.273,1.868-12.466,3.98-18.183,7.268-7.071,4.065-12.67,9.393-15.162,17.433-.137.441-.398.844-.694,1.458-.5-2.538-1.623-4.51-3.123-6.297-1.64-1.954-3.31-3.887-4.868-5.905-2.663-3.449-6.229-5.375-10.362-6.443-3.806-.984-7.707-1.277-11.598-1.359-4.222-.089-8.449-.001-12.681.195-5.812.27-11.617.527-17.417,1.015-7.941.668-15.843,1.636-23.676,3.068-6.943,1.27-13.63,3.361-19.678,7.152-2.794,1.751-5.307,3.812-7.229,6.526-4.403,6.216-4.467,12.758-1.386,19.487,1.977,4.318,4.987,7.965,7.857,11.696,2.727,3.545,5.454,7.101,7.364,11.171,2.794,5.953,3.691,12.33,3.842,18.819.155,6.695-.378,13.372-.74,20.054-.345,6.358-.635,12.721-.965,19.081-.33,6.359-.618,12.72-.957,19.079-.335,6.28-.604,12.564-.966,18.844-.353,6.125-.898,12.216-2.055,18.241-1.611,8.394-4.568,16.231-9.573,23.248-2.872,4.026-5.847,7.988-8.313,12.291-2.469,4.308-3.713,8.808-3.274,13.567.104,1.135.303,2.285.606,3.451.226.869.491,1.741.879,2.548.165.342.345.675.563.986,1.008,1.435,2.027,2.866,3.074,4.274,1.683,2.264,3.445,4.463,5.383,6.496.974,1.021,1.988,2.005,3.062,2.931,1.661,1.431,3.415,2.656,5.244,3.701,5.343,3.053,11.341,4.557,17.619,5.041,1.068.083,2.136.149,3.204.202,7.383.361,14.772.003,22.103-1.128,7.43-1.147,14.804-2.583,22.13-4.239,3.472-.785,6.934-1.615,10.384-2.496,5.018-1.281,9.386-3.556,13.027-6.893,1.653-1.515,3.171-3.227,4.507-5.201.119-.175.227-.355.343-.531,1.343-2.036,2.536-4.141,3.598-6.306.589-1.2,1.141-2.416,1.652-3.651.797-1.927,1.505-3.895,2.132-5.9.023-.074.049-.148.073-.223,1.345-4.347,2.201-8.804,2.568-13.443.613.423.634.896.71,1.369.725,4.516,2.543,8.521,5.54,12.001.041.047.079.096.119.143,1.575,1.838,3.084,3.732,4.623,5.601.196.238.388.479.585.715.721.865,1.448,1.721,2.259,2.506.222.215.447.427.684.63,2.369,2.026,4.953,3.641,7.684,4.964,2.402,1.164,4.917,2.103,7.515,2.866,1.632.48,3.272.899,4.915,1.29,8.654,2.059,17.458,2.911,26.441,2.644,8.449-.251,16.688-1.463,24.729-3.767,1.759-.504,3.512-1.042,5.252-1.654,1.249-.439,2.47-.926,3.663-1.458,2.94-1.312,5.678-2.953,8.082-5.101.63-.563,1.233-1.169,1.815-1.807.305-.334.616-.658.906-1.014,1.063-1.304,1.889-2.703,2.503-4.151,2.319-5.463,1.459-11.665-2.588-16.49-1.383-1.648-2.851-3.234-4.123-4.964-2.119-2.881-4.675-4.922-8.352-5.455-1.714-.249-3.118-1.13-3.45-3.136-.194-1.171-.658-2.296-.945-3.455-1.543-6.234-1.33-12.643-1.782-18.979-.345-4.846-.358-9.72-.443-14.574-.208-11.972-.188-23.951.25-35.923.073-1.994.056-3.991.174-5.981ZM1138.945,286.794c.621-1.09,1.185-2.212,1.775-3.32.156.034.312.069.468.103.165,4.442,1.981,8.158,5.023,11.26,7.728,7.882,4.299,20.647-2.387,25.959-4.785,3.801-10.038,4.22-15.731,2.005-3.39-1.318-4.698-3.735-4.998-7.062-.228-2.52.271-4.915,1.187-7.238,1.686-4.276,4.379-7.928,7.176-11.518,2.592-3.326,5.387-6.506,7.488-10.191ZM1149.587,397.555c-.781,7.106-1.562,14.213-2.327,21.321-.518,4.819-1.02,9.64-1.505,14.463-.398,3.954-.761,7.912-1.137,11.868-.046.485-.237.906-.691,1.518-.585-7.796-2.773-14.995-5.909-21.94-2.523-5.589-5.389-11.024-7.558-16.774-1.842-4.884-3.121-9.893-2.916-15.143.256-6.559,2.12-12.476,7.015-17.235,4.406-4.284,11.488-4.339,16.126-2.421.996.412,1.285,1.13,1.214,2.064-.175,2.298-.362,4.597-.607,6.888-.548,5.133-1.14,10.261-1.705,15.392ZM1212.999,403.153c.365,7.299.613,14.625,1.745,21.871,1.077,6.899,2.764,13.611,6.553,19.588,2.625,4.14,5.997,7.676,10.818,8.994,5.251,1.435,6.423,7.625,3.53,11.616-1.594,2.199-3.709,3.711-6.157,4.786-2.815,1.236-5.698,2.236-8.624,3.077-3.877,1.114-7.834,1.94-11.837,2.585-5.987.965-12.028,1.553-18.089,1.354-7.66-.252-15.287-.882-22.409-4.149-.551-.252-1.093-.52-1.63-.793-2.599-1.325-5.024-2.915-7.118-4.979-4.045-3.987-5.35-8.764-4.426-14.39,1.533-9.336,2.808-18.714,4.178-28.077,1.094-7.476,2.32-14.936,3.211-22.435,1.075-9.046,1.556-18.129-.76-27.086-2.041-7.895-6.136-14.492-12.81-19.34-10.117-7.35-22.065-6.088-30.856,2.107-8.128,7.577-10.623,17.06-9.248,27.858.645,5.064,2.268,9.774,4.555,14.275,3.943,7.761,7.558,15.653,10.206,23.964,2.065,6.483,3.591,13.09,3.649,19.904.103,11.898-3.595,21.636-10.991,29.199-2.256,2.307-4.851,4.417-7.797,6.315-.987.636-2,1.256-3.064,1.846-2.006,1.112-4.058,2.081-6.144,2.944-6.677,2.761-13.726,4.358-20.912,5.451-7.326,1.114-14.705,1.672-22.112,2.057-4.179.217-8.283.265-12.335-.704-1.649-.395-3.116-1.007-4.399-1.833-1.832-1.179-3.282-2.8-4.296-4.914-.247-.514-.468-1.057-.663-1.629-.534-1.565-.616-3.054-.295-4.459.258-1.13.771-2.208,1.562-3.22,10.809-13.836,16.805-29.752,20.321-46.742,1.76-8.504,2.877-17.096,3.539-25.76.419-5.479.677-10.962.976-16.446.377-6.938.213-13.881.488-20.811.24-6.061.043-12.107-.28-18.133-.625-11.646-2.296-23.119-6.994-33.965-3.196-7.38-7.695-13.753-13.883-18.921-4.603-3.844-4.766-9.331-.467-13.627,2.213-2.211,4.95-3.455,7.872-4.375,4.339-1.366,8.793-2.274,13.235-3.219,11.145-2.372,22.367-4.26,33.704-5.472,5.304-.567,10.606-1.092,15.93-1.45,2.704-.182,5.404-.373,8.112-.437,1.872-.044,3.607.429,5.314,1.201,1.57.71,2.266,1.997,2.584,3.511.379,1.802-.201,3.201-1.866,4.261-4.792,3.05-8.63,7.086-11.566,11.932-4.697,7.75-6.874,16.081-5.359,25.155,1.551,9.294,6.674,16.116,14.873,20.55,6.404,3.464,13.272,5.001,20.567,3.577,10.141-1.979,16.226-8.442,19.203-17.982,1.744-5.59,1.749-11.296-.167-16.942-1.241-3.66-3.243-6.831-6.257-9.171-4.553-3.535-5.253-8.073-4.107-13.281,1.077-4.895,4.107-8.372,8.086-11.152,3.103-2.168,6.547-3.68,10.117-4.845,10.538-3.436,21.153-6.611,32.009-8.908,5.381-1.139,10.802-1.919,16.298-2.363,7.703-.622,15.278-.132,22.784,1.643.312.074.635.111.788.572-.327.904-1.3,1.274-1.973,1.888-7.773,7.083-13.17,15.735-16.975,25.45-3.269,8.345-5.322,17.01-6.717,25.842-.944,5.974-1.591,11.979-2.035,18.013-.368,5.001-.647,10.005-.965,15.008-.811,12.747-.928,25.502-.929,38.266,0,8.459.288,16.914.709,25.354Z" fill="#007cff" stroke-width="0"/>
        <path d="M819.688,416.732c-3.358-5.653-7.675-10.61-12.224-15.294-5.328-5.486-12.125-7.848-19.73-7.625-3.997.117-7.875,1.065-11.616,2.545-3.077,1.218-5.972,2.807-9.048,4.495.084-.487.083-.723.165-.925,2.5-6.121,3.126-12.466,2.276-18.987-.704-5.405-2.5-10.366-5.994-14.63-2.123-2.591-4.209-5.212-6.383-7.759-4.458-5.221-10.129-7.506-16.992-7.039-1.905.129-3.707.733-5.954,1.016,3.398-4.874,7.445-8.279,12.984-9.625,5.983-1.454,11.523-.232,16.741,2.917,1.382.834,2.319,1.839,2.733,3.426.634,2.431,1.925,4.531,3.544,6.443,1.856,2.191,3.7,4.393,5.521,6.612.613.747,1.299,1.392,2.052,1.996,7.294,5.857,21.154,5.957,29.486-3.509,3.866-4.394,6.361-9.511,7.875-15.146,2.355-8.771,2.501-17.657,1.206-26.562-.907-6.234-3.161-12.02-7.113-17.022-2.076-2.627-4.296-5.141-6.403-7.744-2.914-3.601-6.519-6.292-10.62-8.397-7.087-3.638-14.765-4.914-22.556-5.807-5.63-.646-11.296-.586-16.943-.89-5.332-.287-10.683-.23-16.026-.49-5.255-.256-10.523-.223-15.787-.477-5.255-.253-10.523-.232-15.787-.48-5.336-.25-10.684-.256-16.027-.481-6.385-.269-12.786-.185-19.181-.202-3.953-.011-7.76.791-11.415,2.303-6.552,2.709-10.395,9.838-7.522,17.364.799,2.095,1.883,4.045,3.101,5.929,2.43,3.758,5.284,7.205,7.926,10.806,4.589,6.255,6.949,13.042,6.375,20.954-.415,5.724-1.159,11.402-1.756,17.096-1.044,9.959-2.417,19.884-3.6,29.83-.902,7.582-1.698,15.176-2.588,22.76-1.038,8.843-2.128,17.68-3.193,26.52-.904,7.5-1.629,15.023-2.926,22.471-1.195,6.864-3.017,13.528-6.313,19.729-2.267,4.263-5.336,7.934-8.388,11.623-2.597,3.139-5.175,6.293-6.9,10.025-1.183,2.561-1.806,5.062-1.855,7.499-.055,2.638.572,5.2,1.921,7.679.544.999,1.197,1.985,1.979,2.957,1.698,2.112,3.494,4.147,5.145,6.295,1.464,1.904,3.07,3.505,4.8,4.847,4.806,3.729,10.586,5.396,17.079,5.557,6.823.169,13.485-1.156,20.128-2.433,14.52-2.791,29.17-4.15,43.94-4.25,4.383-.029,8.768.048,13.15.416,4.366.366,8.754.515,13.136.63,3.333.088,6.665.128,9.987-.01,2.932-.122,5.855-.394,8.764-.891.584-.1,1.168-.196,1.751-.316,9.103-1.868,16.835-5.898,23.459-11.694,2.656-2.324,5.138-4.922,7.452-7.792.779-.967,1.523-1.953,2.251-2.948,1.712-2.341,3.291-4.753,4.73-7.238,3.407-5.878,6.085-12.135,8.194-18.675,4.301-13.339,7.287-26.909,6-41.075-.525-5.784-2.032-11.31-5.011-16.326ZM647.469,507.802c-1.547-.954-1.627-1.271-.715-2.822.67-1.139,1.324-2.287,1.968-3.439,1.653-2.956,3.229-5.952,4.744-8.984,6.41-12.826,11.142-26.261,14.801-40.1,3.608-13.648,6.037-27.506,7.705-41.515.771-6.478,1.425-12.96,1.923-19.465.377-4.92.686-9.841.965-14.769.464-8.197.695-16.398.988-24.6.288-8.059.43-16.113.407-24.172-.018-6.34-2.076-11.83-6.7-16.346-2.564-2.504-5.234-4.917-7.539-7.686-1.126-1.354-2.178-2.735-3-4.308-2.532-4.846-.142-10.456,4.817-12.423,2.787-1.105,5.668-1.59,8.664-1.463,1.118.048,2.239.008,3.359.008.002-.039.005-.078.007-.117,5.484.356,10.965.828,16.456,1.03,4.385.162,8.758.474,13.138.688,5.331.261,10.66.564,15.99.842,3.9.203,7.802.378,11.701.597,4.771.268,9.54.576,14.31.849,3.66.209,7.33.293,10.98.607,5.63.485,11.301.389,16.903,1.262,9.355,1.458,14.924,7.053,16.537,16.382,1.304,7.543.101,14.934-1.69,22.241-1.022,4.173-1.969,8.417-4.261,12.14-1.778,2.889-4.233,4.748-7.879,4.398-2.242-.215-3.82-1.236-4.8-3.359-5.21-11.284-13.955-18.206-26.123-20.695-10.601-2.169-19.912.785-27.97,7.725-6.545,5.637-10.789,12.749-12.5,21.276-.873,4.349-.803,8.674.233,13.015,1.705,7.142,7.499,9.398,12.835,8.95,5.269-.443,9.433-3.214,13.275-6.567,1.442-1.258,2.857-2.558,4.177-3.941.76-.796,1.354-.805,2.252-.26,4.658,2.823,7.109,7.082,7.659,12.341,1.286,12.312-11.599,19.695-21.128,16.25-5.905-2.134-10.989-.701-15.732,2.756-4.28,3.119-6.711,7.642-8.588,12.448-2.005,5.133-3.464,10.449-4.184,15.909-.742,5.629-.746,11.237,1.213,16.731,2.775,7.78,9.876,11.679,16.438,11.689,6.068.009,11.462-1.777,16.481-4.974,3.581-2.281,6.833-4.992,9.838-7.98,9.183-9.135,18.325-18.311,27.498-27.456,2.383-2.376,4.997-4.444,8.033-5.972,5.162-2.597,10.177-2.222,15.036.686,5.372,3.214,8.453,8.101,9.879,14.096,1.196,5.031,1.089,10.143.336,15.184-1.6,10.72-3.7,21.349-6.973,31.707-2.538,8.033-5.89,15.68-11.05,22.426-1.668,2.182-3.473,4.131-5.411,5.855-4.191,3.729-9.009,6.392-14.407,8.063-2.095.648-4.273,1.155-6.543,1.505-6.79,1.048-13.647,1.131-20.487,1.503-4.931.268-9.876.205-14.797.726-1.9.201-3.829.134-5.745.198-4.703.157-9.411.236-14.108.5-7.483.42-14.973.651-22.458.985-7.247.324-14.492.655-21.74.956-3.582.148-7.152.502-10.742.276-.158-.01-.309-.042-.465-.059-1.365-.158-2.638-.605-3.814-1.331ZM749.72,414.852c-.189.336-.26.572-.414.723-6.044,5.915-12.023,11.904-18.961,16.812-2.35,1.662-4.824,3.121-7.408,4.389-.696.342-1.364.875-2.366.579.022-5.842.481-11.625,3.735-16.739,2.661-4.183,6.34-7.111,11.276-8.29,2.405-.575,4.773-.526,7.018.493,2.249,1.021,4.538,1.824,7.121,2.034Z" fill="#007cff" stroke-width="0"/>
        <path d="M1025.023,346.769c-.937-7.838-2.839-15.495-4.644-23.164-1.846-7.85-4.046-15.604-7.668-22.84-5.024-10.035-12.092-18.584-20.422-25.986-6.72-5.972-14.766-8.932-23.923-8.77-6.453.115-12.652,1.493-18.812,3.147-9.629,2.586-19.329,4.83-29.159,6.508-12.577,2.147-25.263,3.295-37.997,3.762-7.415.271-14.85.16-22.266-.359-1.193-.083-2.409.015-3.583-.167-3.544-.55-7.037-.262-10.378.898-10.537,3.657-17.159,11.29-21.087,21.431-3.603,9.301-3.548,19.027-2.663,28.743.677,7.441,1.859,14.833,3.217,22.187,1.005,5.438,2.344,10.812,5.398,15.478,3.367,5.143,7.255,9.942,11.816,14.08,3.256,2.955,7.223,4.7,11.716,4.858,6.151.217,10.895-2.62,14.774-7.113,3.108-3.601,5.312-7.764,7.004-12.178,1.426-3.72,2.656-7.514,4-11.266,1.756-4.906,3.927-9.596,7.339-13.607,1.069-1.256,2.212-2.45,3.878-3.357.729,4.583.913,8.89,1.056,13.171.162,4.851.097,9.717-.166,14.589-.408,7.564-1.213,15.058-2.475,22.518-2.916,17.237-8.175,33.74-15.678,49.512-7.828,16.452-17.732,31.542-30.087,44.986-1.961,2.134-3.55,4.458-4.128,7.313-.084.417-.148.844-.187,1.284-.172,1.933-.073,3.773.259,5.535.603,3.19,1.987,6.117,3.993,8.84.276.375.559.747.858,1.113,1.967,2.415,3.937,4.828,5.954,7.2.152.179.299.361.452.539,3.025,3.531,6.671,6.18,11.214,7.418,5.85,1.596,11.774,1.631,17.755.846,6.416-.842,12.678-2.409,18.962-3.864,14.189-3.285,28.583-4.754,43.121-4.918,3.425-.039,6.854.152,10.278.321.218.011.436.027.654.038,3.043.157,6.086.354,9.12.63,6.613.602,13.223.8,19.807-.208,4.552-.697,8.841-2.183,12.475-5.124.486-.393.939-.799,1.376-1.211,2.803-2.64,4.625-5.675,5.432-9.122.533-2.277.63-4.731.274-7.372-.002-.013-.002-.026-.004-.039-.285-2.087-.854-4.039-1.625-5.896-.89-2.141-2.061-4.15-3.44-6.062-.285-.395-.572-.788-.873-1.175-2.105-2.704-4.31-5.332-6.528-7.945-4.958-5.844-11.078-9.744-18.684-11.26-2.96-.59-5.921-1.234-8.735-2.456-1.39-.604-2.092-1.479-2.557-2.866-1.841-5.499-2.196-11.235-2.717-16.927-.515-5.624-.939-11.262-1.018-16.918-.135-9.733-.31-19.458.283-29.193.382-6.276.838-12.539,1.518-18.785.758-6.961,1.78-13.887,3.016-20.78.245-1.369.899-2.54,1.844-3.562,2.346-2.54,5.457-3.44,8.677-3.318,4.069.154,7.632,1.616,9.381,5.797.398.952,1.002,1.816,1.465,2.743,3.616,7.239,8.875,13.257,14.546,18.872,3.57,3.535,8.206,4.602,13.112,3.138,7.498-2.238,12.083-7.505,14.433-14.765,1.57-4.85,1.646-9.897,1.046-14.917ZM1007.497,347.385c-1.339,5.398-6.042,8.44-11.234,8.028-2.401-.191-4.197-1.137-5.312-3.434-2.612-5.387-5.351-10.714-8.987-15.512-3.996-5.272-8.867-9.388-15.325-11.325-7.269-2.181-13.655-.739-19.157,4.607-5.02,4.877-7.432,11.052-9.046,17.637-1.502,6.126-2.01,12.397-2.554,18.66-.558,6.43-.812,12.872-1.048,19.322-.143,3.907-.38,7.824-.177,11.71.374,7.149.445,14.31,1.154,21.452.669,6.733,1.219,13.472,2.604,20.104,1.228,5.875,3.017,11.546,6.052,16.797,3.916,6.774,9.502,11.25,17.142,13.167,4.407,1.106,8.877,1.966,13.211,3.361,1.294.417,2.525.974,3.746,1.572,3.784,1.854,5.789,5.118,5.979,8.598.121,2.218-.509,4.519-1.878,6.603-.336.511-.701,1.014-1.128,1.495-3.016,3.392-6.871,5.044-11.285,5.7-4.227.628-8.438.265-12.64-.073-10.29-.828-20.603-.886-30.884-.348-19.568,1.024-38.787,4.218-57.579,9.732-1.308.383-2.614.777-3.917,1.184-1.904.593-3.799,1.215-5.698,1.822-1.872.599-2.475.461-3.705-1.083-.282-.354-.531-.716-.758-1.084-1.476-2.391-1.822-5.065-1.419-7.927.037-.262.09-.517.141-.773.508-2.552,1.69-4.79,3.253-6.845.083-.11.163-.222.249-.331,1.978-2.514,4.28-4.716,6.601-6.919,6.163-5.852,11.438-12.445,15.98-19.632,7.745-12.257,12.912-25.6,16.661-39.531,3.191-11.858,5.314-23.923,6.883-36.096.936-7.258,1.735-14.527,2.418-21.814.624-6.657,1.475-13.297,1.394-19.996-.072-5.875-.959-11.602-3.877-16.828-3.17-5.677-7.554-9.838-14.191-11.122-4.206-.814-8.077.229-11.739,2.188-5.972,3.196-10.065,8.241-13.461,13.938-2.216,3.717-3.731,7.755-5.348,11.746-1.975,4.877-3.857,9.794-6.42,14.414-1.713,3.088-3.79,5.903-6.162,8.507-.422.463-.827.992-1.611,1.129-1.126-1.554-1.489-3.464-2.093-5.245-2.794-8.245-4.716-16.693-5.801-25.338-.587-4.671-.822-9.349-.997-14.051-.222-5.985-.063-11.921,1.06-17.801,1.53-8.016,5.936-13.803,13.543-17.021,2.807-1.188,5.734-1.958,8.725-2.487,5.505-.974,11.068-1.272,16.648-1.414,9.109-.232,18.199.478,27.304.558,2.777.025,5.573.284,8.361.239,13.022-.208,25.661-2.37,37.838-7.156,5.486-2.156,11.101-3.997,16.959-4.968,3.882-.643,7.764-.809,11.619-.02,6.265,1.28,10.944,4.952,14.651,10.014,4.087,5.582,6.326,11.981,7.932,18.588,2.502,10.291,4.821,20.628,7.102,30.972.896,4.064,1.247,8.197.222,12.33Z" fill="#007cff" stroke-width="0"/>
        <path d="M462.783,371.525c2.967-4.967,4.792-10.42,6.588-15.873,3.938-11.95,6.706-24.069,5.525-36.808-.58-6.26-2.147-12.205-4.708-17.935-2.515-5.626-6.512-10.192-10.378-14.857-1.526-1.842-3.015-3.74-4.729-5.398-5.536-5.356-12.192-8.681-19.709-10.218-7.839-1.604-15.752-2.027-23.762-1.567-7.168.412-14.362.404-21.545.517-1.825.028-3.637-.366-5.482-.315-4.71.132-9.406-.236-14.101-.56-6.037-.416-12.051-1.047-18.056-1.804-7.593-.957-15.121-2.274-22.625-3.759-7.976-1.578-15.784-3.924-23.832-5.167-4.992-.771-9.983-1.044-14.975-.024-7.877,1.61-14.025,5.91-18.861,12.207-6.52,8.491-9.142,18.3-9.518,28.804-.392,10.942.583,21.815,2.024,32.647,1.07,8.046,3.563,15.532,9.161,21.684,2.678,2.944,4.871,6.311,7.921,8.934,7.844,6.745,17.586,7.119,25.949,1.038,3.991-2.902,7.168-6.563,10.102-10.457,3.267-4.333,6.347-8.811,9.696-13.077,2.398-3.055,5.432-5.355,9.435-6.089.316.961.575,1.861.564,2.837-.138,12.763.303,25.53-.762,38.285-.716,8.578-1.737,17.09-3.528,25.51-3.485,16.373-9.993,31.381-19.886,44.947-.604.829-1.211,1.657-1.817,2.486-1.717,2.347-3.429,4.699-5.108,7.073-3.257,4.605-6.38,9.303-9.096,14.271-.825,1.51-1.594,3.035-2.306,4.575-1.711,3.701-3.064,7.495-3.941,11.414-.873,3.902-1.277,7.927-1.073,12.109.363,7.45,2.45,14.254,7.391,20.021,1.607,1.876,3.208,3.765,4.699,5.733,1.276,1.684,2.683,3.155,4.2,4.45,3.833,3.271,8.392,5.374,13.487,6.645,6.114,1.525,12.357,1.743,18.597,1.923.527.016,1.054.031,1.581.046,3.989.117,7.984-.069,11.977-.16,12.781-.289,25.571.305,38.353-.343,7.04-.356,13.951-1.301,20.642-3.618,4.506-1.561,8.609-3.821,12.078-7.008.368-.338.735-.676,1.088-1.035,2.855-2.905,4.945-6.179,6.36-9.747,1.24-3.128,1.963-6.48,2.206-10.016.256-3.743.038-7.431-.574-11.067-.479-2.853-1.195-5.676-2.151-8.464-.108-.315-.229-.624-.342-.936-2.198-6.09-5.268-11.753-8.448-17.367-3.93-6.938-8.167-13.712-11.194-21.13-2.306-5.649-3.83-11.471-4.146-17.589-.243-4.706-.091-9.39.287-14.092.535-6.666,1.272-13.307,2.171-19.924,1.5-11.04,3.332-22.03,5.704-32.921.728-3.343,1.303-6.724,2.345-9.994.451-1.414,1.162-2.625,2.562-3.303,2.465-1.195,4.897.124,5.149,2.808.133,1.424.304,2.85.331,4.277.055,2.871.231,5.73.626,8.573.436,3.143,1.529,6.022,3.557,8.502,1.917,2.346,3.81,4.712,5.783,7.009.826.962,1.721,1.881,2.792,2.613,3.945,2.693,8.234,2.768,12.624,1.57,5.989-1.635,10.013-5.728,13.093-10.886ZM447.777,356.184c-1.58,3.542-4.611,4.706-8.254,3.283-3.471-1.356-5.108-4.172-6.017-7.542-.938-3.479-1.011-7.077-1.335-10.636-.356-3.917-.966-7.762-3.044-11.192-3.1-5.117-8.157-7.139-13.977-5.615-6.265,1.64-10.261,5.817-12.9,11.536-2.056,4.456-3.054,9.219-4.129,13.953-2.24,9.858-4.489,19.72-6.16,29.693-.972,5.803-1.727,11.641-2.232,17.515-.403,4.685-.747,9.384-.698,14.062.124,11.673,1.537,23.208,5.288,34.325,3.528,10.456,8.592,20.074,16.247,28.178.82.869,1.585,1.791,2.412,2.653,1.136,1.186,2.001,2.493,2.624,3.905.64,1.451,1.025,3.012,1.175,4.671.141,1.553.109,3.063-.051,4.542-.419,3.873-1.804,7.504-3.917,10.948-2.249,3.665-5.153,6.463-8.542,8.627-2.296,1.466-4.812,2.645-7.506,3.593-5.347,1.882-10.852,2.843-16.445,3.198-1.324.084-2.652.145-3.985.164-7.276.103-14.554.023-23.145.023-7.158-.271-15.639.051-24.104-.233-4.79-.161-9.578-.081-14.36-.271-4.456-.177-7.897-2.405-10.484-5.906-4.62-6.252-5.72-13.103-3.826-20.408.119-.458.247-.917.389-1.379,1.053-3.417,2.51-6.623,4.217-9.694,1.69-3.041,3.624-5.95,5.654-8.801,2.364-3.321,4.669-6.678,6.887-10.088,1.59-2.445,3.136-4.917,4.621-7.425,2.169-3.664,4.215-7.402,6.095-11.24,7.831-15.985,13.418-32.718,16.522-50.26,1.151-6.506,1.946-13.048,2.469-19.64.658-8.297.635-16.596.214-24.877-.437-8.578-1.583-17.104-3.495-25.499-1.133-4.971-4.757-8.008-9.89-8.706-7.299-.992-13.077,1.641-17.773,7.095-2.99,3.473-5.214,7.436-7.404,11.421-2.078,3.782-4.222,7.518-7.089,10.777-2.409,2.739-5.22,4.956-8.712,6.128-4.658,1.563-8.781.583-12.37-2.795-4.148-3.903-6.146-8.849-6.986-14.33-.58-3.788-.579-7.607-.483-11.442.166-6.616.023-13.2-1.678-19.702-1.341-5.124.272-9.846,3.333-13.975,5.334-7.201,12.678-11.235,21.391-12.907,5.823-1.117,11.591-.332,17.324.698,8.02,1.441,15.763,3.982,23.609,6.105,10.023,2.711,20.19,3.684,30.55,3.23,6.768-.297,13.501-.974,20.245-1.527,5.003-.41,10.009-.692,15.018-.997,10.334-.629,20.355.735,30.079,4.14,6.956,2.436,13.131,6.199,17.896,11.961,4.622,5.589,6.997,12.051,7.527,19.276.724,9.863-1.975,19.059-5.254,28.154-1.623,4.502-3.592,8.866-5.541,13.235Z" fill="#007cff" stroke-width="0"/>
        <path d="M639.492,429.534c-.615-6.462-2.037-12.58-6.384-17.682-2.017-2.368-3.933-4.822-5.961-7.179-1.907-2.213-4.235-3.835-7.028-4.808-4.67-1.626-9.286-1.285-13.83.372-5.438,1.982-9.9,5.398-13.752,9.674-.724.804-1.385,1.743-2.532,2.21-.196-1.091.328-1.951.573-2.842,1.548-5.642,2.47-11.364,2.343-17.228-.148-6.878-1.84-13.238-6.359-18.632-1.895-2.262-3.759-4.548-5.673-6.793-1.036-1.214-2.164-2.325-3.493-3.256-6.029-4.222-17.516-3.824-23.496,3.151,0-1.729-.106-3.467.019-5.188.501-6.912,3.135-12.836,8.605-17.233,3.488-2.804,7.474-4.033,12.062-3.292,4.924.794,8.954,3.221,12.726,6.255,3.951,3.178,6.954,7.238,10.241,11.032,3.194,3.687,6.471,7.277,10.608,9.967,4.205,2.735,8.818,3.728,13.725,2.986,6.037-.913,10.174-3.987,11.794-10.255,1.759-6.807,3.221-13.654,3.675-20.656.496-7.646.347-15.293-.834-22.901-.826-5.318-2.469-10.206-6.309-14.175-1.104-1.141-2.09-2.412-3.016-3.705-2.693-3.763-6.383-5.814-10.83-6.902-9.837-2.405-19.723-4.555-29.683-6.389-13.007-2.396-26.088-4.272-39.249-5.558-7.208-.704-14.427-1.337-21.655-1.782-4.542-.28-9.108-.187-13.664-.196-4.984-.011-9.839.789-14.533,2.508-6.975,2.554-11.808,7.215-13.87,14.418-1.578,5.511-1.081,10.73,2.928,15.24,1.484,1.669,2.951,3.363,4.302,5.139,1.174,1.544,2.477,2.912,4.095,3.979,1.163.768,1.969,1.804,2.595,3.061,2.05,4.111,3.316,8.466,3.94,12.984,1.197,8.665.976,17.372-.071,26.011-1.674,13.819-3.55,27.616-6.031,41.321-2.216,12.241-4.977,24.354-8.84,36.185-5.16,15.804-12.377,30.58-22.231,44.045-1.371,1.873-2.647,3.809-3.789,5.819-1.468,2.587-2.689,5.309-3.547,8.208-.081.272-.172.539-.246.815-1.353,5.047-.605,9.603,2.951,13.597,1.801,2.024,3.564,4.091,5.213,6.239.204.266.417.517.637.758,1.408,1.551,3.124,2.623,5.058,3.46,2.604,1.127,5.367,1.676,8.142,1.695,4.784.034,9.567.104,14.364-.188,4.848-.294,9.717-.284,14.581-.437.801-.025,1.603-.044,2.404-.081,5.018-.231,10.044-.201,15.07-.465,5.573-.292,11.164-.193,16.747-.495,5.175-.28,10.366-.294,15.548-.443,6.94-.199,13.882-.434,20.825-.575,5.496-.112,10.994-.242,16.46-.961,8.104-1.066,14.951-4.357,20.409-10.342.385-.422.763-.855,1.134-1.304,1.718-2.08,3.216-4.273,4.561-6.548,2.415-4.088,4.315-8.446,5.982-12.93,4.145-11.149,7.288-22.599,9.879-34.195,1.875-8.388,3.54-16.813,2.712-25.514ZM589.666,412.534c.05,0,.115-.02.143.003.121.101.091.212-.085.296-.016.008-.106-.093-.125-.155-.012-.04.044-.1.067-.145ZM577.965,425.382c.428-.139.804-.591,1.435-.217-.501,1.11-1.487,1.809-2.316,2.605-4.192,4.022-8.84,7.31-14.562,8.829-4.096,1.087-8.015.589-11.873-1.085-1.394-.605-1.846-1.541-1.89-2.955-.121-3.906,1.903-6.64,4.798-8.872,1.942-1.498,4.159-2.382,6.664-2.226,1.456.091,2.889.511,3.947,1.528,4.081,3.925,8.774,4.029,13.798,2.393ZM626.466,420.284c-.231,4.299-1.215,8.511-2.097,12.715-3.445,16.415-8.187,32.442-14.635,47.944-1.936,4.654-4.227,9.091-7.442,13.041-3.407,4.187-7.67,6.793-12.684,8.097-.76.197-1.535.369-2.33.507-4.805.836-9.677.885-14.534.992-5.982.132-11.962.396-17.942.569-4.542.13-9.091.215-13.627.455-4.703.248-9.411.251-14.106.486-3.865.193-7.732.239-11.593.393-.678.027-1.356.05-2.034.085-4.543.238-9.091.25-13.628.475-4.783.236-9.575.213-14.345.506-3.515.216-7.019.259-10.523.212-3.388-.046-6.649-.751-9.682-3.087,1.254-1.481,2.478-2.895,3.671-4.305.722-.852,1.436-1.703,2.131-2.565,1.374-1.703,2.679-3.445,3.953-5.206,6.971-9.633,12.506-20.095,16.962-31.171,5.853-14.547,9.729-29.649,12.562-45.04,2.103-11.427,3.684-22.927,4.922-34.48.661-6.168,1.284-12.339,1.906-18.511.447-4.438.839-8.881.879-13.334.08-8.812-.602-17.523-4.201-25.75-2.34-5.349-5.763-9.894-11.017-12.496-5.786-2.866-5.886-8.373-4.11-13.082,1.137-3.016,3.269-5.248,6.277-6.593,2.878-1.287,5.875-1.974,9.026-2.07,6.161-.188,12.238.69,18.334,1.362,5.222.575,10.456,1.034,15.681,1.585,8.703.917,17.4,1.888,26.104,2.798,6.966.728,13.94,1.377,20.907,2.101,7.439.772,14.877,1.559,22.307,2.419,1.408.163,2.808.601,4.151,1.083,3.647,1.307,5.267,4.259,5.862,7.821,1.222,7.323,1.85,14.716,1.375,22.127-.396,6.174-1.721,12.188-5.486,17.319-3.272,4.46-2.986,3.865-7.383,2.092-3.518-1.418-6.435-3.815-9.172-6.411-4.523-4.29-8.343-9.246-12.838-13.561-3.187-3.059-6.616-5.787-10.805-7.369-7.329-2.768-14.266-1.479-20.908,2.199-6.083,3.368-10.306,8.484-13.306,14.651-2.643,5.431-3.979,11.198-4.584,17.214-.583,5.795.105,11.271,2.792,16.452,3.54,6.827,11.293,9.592,18.381,6.568,2.216-.945,3.903-2.491,4.904-4.692.995-2.19,2.554-3.371,5.042-3.28,2.566.094,4.704.907,5.952,3.292,1.298,2.48,1.535,5.083,1.108,7.865-.716,4.662-1.617,9.259-3.51,13.602-1.271,2.916-3.05,5.426-6.04,6.843-3.759,1.782-7.338,1.912-10.694-.995-2.802-2.427-6.149-2.933-9.638-2.125-5.034,1.167-8.761,4.062-10.884,8.872-2.314,5.242-2.375,10.636-1.178,16.135,1.343,6.169,3.72,11.871,7.751,16.779,3.409,4.15,7.467,7.364,12.838,8.721,4.175,1.055,8.219.631,12.243-.592,5.609-1.705,10.387-4.792,14.651-8.774,5.635-5.261,10.115-11.488,14.844-17.508,2.915-3.71,5.836-7.403,9.982-9.861,2.615-1.551,5.291-2.876,8.351-3.439,7.478-1.377,11.463,3.354,11.109,9.922Z" fill="#007cff" stroke-width="0"/>
        <path d="M869.245,93.802c1.742-4.677,4.1-8.907,7.367-12.561,5.486-6.135,12.233-10.416,19.964-13.195,7.491-2.693,15.258-3.831,23.162-4.417,4.625-.343,9.256-.212,13.865-.508,3.676-.236,7.312-.23,10.968.066,6.439.521,12.184,2.334,16.103,8,1.445,2.09,3.236,3.94,4.85,5.915,2.337,2.86,3.243,6.168,2.987,9.817-.152,2.171-1.082,4.056-2.637,5.487-5.339,4.912-10.774,9.719-16.153,14.588-4.673,4.23-9.31,8.498-13.978,12.733-6.614,6-13.25,11.975-19.86,17.98-5.728,5.203-11.446,10.417-17.129,15.67-.672.621-1.622,1.004-2.077,2.02,4.106,2.133,7.968,4.46,11.437,7.433,4.524,3.878,7.956,8.697,11.778,13.184,3.712,4.358,6.561,9.214,8.547,14.577,1.502,4.056,2.486,8.224,2.656,12.564.019.477.161.957.128,1.427-.081,1.152.555,1.518,1.561,1.669,1.103.165,2.192.342,3.32.348,2.795.015,5.592-.126,8.388.126,3.596.324,6.572,1.706,8.813,4.632,1.647,2.149,3.38,4.24,5.174,6.269,5.047,5.709,4.841,14.249.356,20.315-3.505,4.74-8.278,7.68-13.619,9.784-4.692,1.849-9.566,2.914-14.648,3.171-17.974.907-32.881-5.692-45.172-18.474-3.747-3.897-7.097-8.197-10.322-12.558-4.749-6.421-7.337-13.73-8.717-21.526-.64-3.617-1.698-7.123-2.868-10.602-.394-1.173-1.045-1.832-2.254-2.176-4.289-1.219-8.832.737-11.068,4.976-3.091,5.862-3.089,11.919-.876,18.046,1.76,4.871,4.235,9.457,5.79,14.414,1.186,3.78,1.788,7.605.922,11.54-1.281,5.819-5.055,9.638-10.097,12.388-5.123,2.794-10.72,4.081-16.433,4.85-6.554.882-13.166,1.112-19.763,1.51-5.479.331-10.943.954-16.424,1.211-6.528.306-13.073.685-19.502-1.164-3.872-1.114-7.19-2.937-9.694-6.166-1.661-2.141-3.436-4.192-5.163-6.281-3.724-4.506-3.919-9.447-1.61-14.572,1.427-3.167,3.779-5.731,6.307-8.046,4.112-3.767,8.465-7.273,12.546-11.073,3.217-2.995,5.879-6.499,8.232-10.228,5.038-7.985,8.187-16.732,10.456-25.83,2.45-9.823,4.103-19.792,5.388-29.828.59-4.61.752-9.204-.028-13.808-.241-1.422-.663-2.788-1.082-4.16-.481-1.576-1.38-2.83-2.675-3.862-5.042-4.02-8.896-9.145-12.658-14.27-3.743-5.1-3.703-10.945-1.561-16.668,3.648-9.745,10.737-15.807,20.759-18.479,5.764-1.537,11.63-1.835,17.563-1.446,8.839.579,17.586,1.794,26.205,3.827,5.595,1.32,10.367,4.033,13.905,8.72,1.535,2.033,3.27,3.915,4.875,5.896,1.615,1.994,2.921,4.166,3.697,6.744ZM864.314,105.725c-.225,0-3.547,2.118-3.668,2.23-2.387,2.207-4.91,3.89-6.701,6.679-.838,1.305-1.685,3.967,0,5.99,3.704-3.732,6.82-7.395,9.135-11.695-.002-.12-.209-.364.158-.26-.056.1,1.132-3.044,1.077-2.944ZM854.719,88.874c-2.103-2.626-4.478-4.458-7.156-5.927-5.299-2.907-11.078-3.998-17.019-4.202-3.899-.134-7.809-.141-11.721.239-4.44.431-8.882.823-13.268,1.627-4.469.818-8.644,2.326-11.733,5.912-4.196,4.871-4.598,10.461.939,15.054,1.042.864,2.157,1.643,3.258,2.434,5.016,3.604,8.553,8.265,10.5,14.171,2.501,7.587,2.626,15.383,2.02,23.193-.584,7.531-1.716,15.009-3.162,22.433-2.265,11.623-5.344,22.972-10.896,33.531-4.873,9.268-11.254,17.186-20.109,22.977-2.335,1.527-4.609,3.154-6.524,5.235-1.46,1.587-2.329,3.444-2.678,5.516-.522,3.105,1.29,5.874,4.309,6.807.922.285,1.86.376,2.829.372,4.945-.02,9.863-.501,14.793-.774,5.568-.308,11.133-.661,16.7-.943,6.127-.31,12.249-.708,18.376-1.004,8.134-.394,12.832-4.746,14.363-11.922.554-2.6.644-5.212.498-7.85-.267-4.828-1.709-9.381-3.19-13.931-1.906-5.856-3.449-11.757-3.167-18.024.291-6.462,4.259-12.225,10.24-14.286,3.619-1.247,7.337-1.205,11.054-.443,6.239,1.28,11.056,4.716,14.833,9.759,3.928,5.245,6.354,11.22,8.524,17.321,2.324,6.532,4.292,13.195,7.568,19.363,2.976,5.603,6.749,10.457,12.35,13.66,5.108,2.922,10.719,4.039,16.512,4.237,4.223.144,8.459.123,12.678-.293,4.283-.423,8.594-.715,12.616-2.443,3.911-1.68,6.544-4.433,7.307-8.778.912-5.187-2.757-8.991-7.922-8.139-1.572.259-3.144.519-4.713.795-3.718.653-7.152-.015-10.211-2.262-1.941-1.425-3.62-3.132-5-5.114-2.823-4.056-4.52-8.59-5.629-13.365-1.099-4.733-2.029-9.508-3.717-14.086-1.511-4.097-3.522-7.839-7.055-10.609-2.453-1.924-5.292-2.889-8.248-3.639-3.628-.92-7.354-1.461-10.842-2.918-4.744-1.981-7.104-5.477-7.136-10.561-.03-4.845,2.023-8.782,5.24-12.214,3.486-3.719,7.875-6.218,12.157-8.848,13.064-8.027,24.287-18.079,33.598-30.271,3.723-4.874,7.332-9.857,12.056-13.872,3.88-3.297,8.142-5.653,13.431-5.351,1.289.074,1.694-.461,1.811-1.604.084-.819-.011-1.585-.272-2.347-.948-2.772-2.876-4.592-5.632-5.429-3.15-.958-6.392-.835-9.666-.768-5.745.116-11.466.38-17.179,1.001-6.362.691-12.606,1.897-18.658,3.988-12.657,4.373-21.839,12.299-25.969,25.405-1.341,4.256-2.761,8.489-4.253,12.694-1.924,5.423-4.866,10.209-9.289,13.985-4.984,4.255-11.714,5.343-16.726,2.581-6.912-3.807-9.927-11.583-9.273-18.162.712-7.154,4.454-12.843,9.537-17.731,2.364-2.274,4.976-4.239,7.917-6.179Z" fill="#007cff" stroke-width="0"/>
        <path d="M1054.439,102.995c6.062,2.79,9.237,8.517,13.145,13.432,3.47,4.365,4.596,9.743,4.744,15.281.089,3.355-.02,6.699-.812,9.956.345.4.747.289,1.128.198,6.814-1.618,12.779.195,18.103,4.512,3.316,2.689,5.606,6.301,8.406,9.454,5.578,6.282,7.809,13.941,9.068,22.008,1.22,7.816,1.834,15.673,1.527,23.581-.267,6.88-1.742,13.432-5.856,19.145-3.73,5.179-9.058,7.934-15.012,9.651-5.293,1.526-10.75,2.273-16.161,3.228-13.648,2.408-27.3,4.787-40.954,7.161-9.338,1.623-18.673,3.265-28.025,4.803-4.176.687-8.389,1.056-12.604.165-3.455-.73-6.457-2.185-8.702-5.041-1.872-2.381-3.908-4.632-5.784-7.01-2.466-3.126-3.896-6.555-2.846-10.657.415-1.622,1.4-2.867,2.461-4.049,8.445-9.41,13.199-20.599,15.819-32.8,1.898-8.837,2.677-17.787,2.507-26.824-.087-4.631.066-9.274-.2-13.893-.517-8.971-1.045-17.953-2.423-26.845-.963-6.215-3.778-11.631-7.611-16.567-1.958-2.521-3.84-5.11-5.335-7.939-1.908-3.609-2.873-7.366-1.938-11.509,1.061-4.703,4.065-7.87,7.907-10.361,5.234-3.394,11.1-5.269,17.181-6.308,13.974-2.388,27.981-4.585,41.974-6.864,8.332-1.357,16.65-2.803,24.997-4.054,5.292-.793,10.616-1.155,15.913.198,4.006,1.024,7.304,3.146,9.976,6.246,2.031,2.355,3.94,4.814,5.962,7.177,3.545,4.144,5.362,9.081,6.118,14.332,1.244,8.642,1.149,17.322-.33,25.953-.269,1.571-.829,3.066-1.513,4.522-2.618,5.572-8.256,6.93-13.325,4.83-2.526-1.047-4.758-2.602-6.893-4.292-3.001-2.375-5.888-4.906-9.238-6.805-6.449-3.656-13.384-5.041-20.746-4.392-.201.018-.477-.039-.628.376ZM982.234,231.373c.849-.117,1.547-.189,2.235-.313,9.879-1.774,19.757-3.553,29.634-5.336,12.071-2.18,24.144-4.352,36.212-6.553,8.618-1.572,17.241-3.123,25.84-4.798,10.823-2.108,17.636-8.462,19.906-19.359.86-4.129,1.053-8.307.787-12.55-.453-7.214-1.757-14.216-4.377-20.953-.964-2.478-2.415-4.672-4.377-6.504-4.621-4.316-13.145-4.893-17.133,1.342-3.145,4.917-7.274,9.081-12.09,12.47-6.527,4.594-13.653,6.868-21.678,5.285-9.187-1.812-14.686-9.002-13.935-18.292.229-2.833,1.359-5.354,3.342-7.508,2.794-3.034,6.444-4.332,10.258-5.319,2.854-.739,5.756-1.293,8.608-2.039,5.978-1.563,10.575-4.862,12.793-10.824,1.692-4.548,1.723-9.081-.986-13.324-1.747-2.737-4.294-4.075-7.548-3.503-2.987.525-4.734,2.415-5.268,5.442-.256,1.448-.971,2.751-2.065,3.712-5.077,4.455-12.275,4.034-16.213-1.815-2.675-3.973-3.363-8.354-2.58-13.017,1.107-6.594,4.518-11.859,9.525-16.128,7.16-6.104,15.548-8.812,24.855-7.901,10.428,1.021,19.374,5.579,27.006,12.698,1.675,1.563,3.497,1.8,5.511,1.035,2.803-1.065,4.124-3.367,4.18-6.156.142-7.009-1.075-13.793-4.265-20.112-1.606-3.181-4.114-5.49-7.452-6.768-3.76-1.439-7.719-1.446-11.583-.802-13.67,2.276-27.313,4.712-40.96,7.124-10.588,1.872-21.171,3.776-31.747,5.713-3.283.601-6.625,1.007-9.628,2.68-2.463,1.372-4.084,3.322-4.418,6.151-.274,2.32.63,4.384,1.803,6.308,1.248,2.047,2.736,3.927,4.269,5.771,2.789,3.353,4.815,7.125,6.164,11.269,1.713,5.26,2.464,10.699,2.986,16.174.393,4.118.555,8.259,1.023,12.367.831,7.289.745,14.623,1.234,21.927.139,2.072-.265,4.137-.276,6.197-.033,5.752-.609,11.442-1.482,17.115-1.818,11.809-5.668,22.858-12.184,32.935-1.733,2.68-3.345,5.445-4.538,8.413-.975,2.426-1.707,4.926-1.389,7.742ZM1053.398,159.672c5.688-5.175-2.469-3.242-2.469-3.242-3.216.38-7.322,1.222-8.105,1.495-1.857.647-4.108,2.344-4.957,4.032-1.077,2.142,1.503,3.015,3.851,3.047,4.477.061,8.051-1.965,11.679-5.332Z" fill="#007cff" stroke-width="0"/>
        <path d="M695.356,254.216c-10.639.254-20.453-1.98-29.699-6.47-7.823-3.799-14.747-8.922-20.499-15.489-4.832-5.517-9.712-11.011-13.721-17.182-5.591-8.605-9.264-17.962-10.791-28.132-.604-4.022-1.055-8.074-.817-12.132.402-6.843,1.482-13.6,3.297-20.22,3.459-12.62,7.586-25.008,12.95-36.963,5.125-11.422,11.415-22.135,19.89-31.406,9.526-10.421,20.701-18.454,34.39-22.616,4.056-1.233,8.178-2.011,12.414-2.362,11.105-.92,21.354,1.632,30.854,7.337,4.353,2.614,8.041,6.021,11.291,9.903,1.893,2.261,3.732,4.569,5.617,6.837,3.308,3.981,5.677,8.485,7.252,13.383.571,1.776,1.394,2.597,3.363,2.594,2.123-.004,4.024.941,5.53,2.501,2.995,3.103,5.872,6.349,8.239,9.928,3.507,5.304,3.135,10.911.065,16.305-3.621,6.363-9.192,10.729-15.4,14.353-4.191,2.447-8.69,4-13.579,4.161-4.415.146-8.104-1.43-10.931-4.897-1.965-2.409-3.983-4.776-5.938-7.195-2.43-3.007-3.375-6.646-4.251-10.299-.557-2.323-1.093-4.652-1.564-6.993-.277-1.378-1.048-1.961-2.421-2.132-2.48-.31-4.789.28-6.961,1.295-15.193,7.099-23.866,19.238-26.919,35.484-1.128,6.002-.842,12.045,1.216,17.92.416,1.188,1.069,1.832,2.188,2.285,3.454,1.4,6.866,1.143,10.259-.129,3.85-1.443,7.2-3.767,10.568-6.064,3.82-2.605,7.558-5.34,11.822-7.239,7.088-3.156,13.993-2.565,20.713.998,3.115,1.652,5.87,3.824,8.13,6.578,2.881,3.511,5.976,6.851,8.552,10.605,3.164,4.611,4.555,9.782,4.735,15.318.386,11.882-3.908,22.206-10.969,31.422-11.91,15.546-27.877,24.411-47.052,27.774-4.022.706-8.058,1.06-11.824.935ZM670.008,151.334c-.102-2.296.252-5.462.835-8.603,1.411-7.595,4.067-14.755,7.781-21.507,4.129-7.507,9.354-14.097,16.736-18.695,8.69-5.412,17.682-6.482,27.003-1.591,3.988,2.093,7.227,5.013,9.355,8.987,1.847,3.45,2.557,7.141,1.744,11.08-.426,2.062.473,3.809,2.093,5.052,2.948,2.263,6.286,2.976,9.93,2.13,3.248-.754,5.682-2.834,8.015-5.022,2.967-2.783,5.611-5.914,8.966-8.277.941-.663.947-1.347.18-2.175-1.288-1.39-2.98-1.797-4.743-1.998-1.818-.207-3.647-.31-5.469-.489-5.394-.528-8.069-2.783-9.479-7.947-.63-2.308-1.116-4.652-1.342-7.027-.823-8.643-5.147-14.882-12.731-19.012-6.701-3.65-13.923-5.021-21.442-4.856-8.92.196-17.319,2.646-25.226,6.683-12.133,6.195-21.871,15.115-29.463,26.395-7.471,11.103-12.424,23.338-16.182,36.104-2.792,9.486-4.736,19.169-6.667,28.854-1.468,7.36-1.542,14.71.152,22.048,2.675,11.584,8.324,21.476,16.846,29.77,10.355,10.079,22.855,15.2,37.166,16.004,5.99.336,11.931-.314,17.799-1.68,17.415-4.054,31.613-13.021,42.007-27.64,4.086-5.746,6.714-12.105,6.472-19.397-.196-5.932-2.136-11.036-6.451-15.206-6.924-6.69-19.267-4.926-23.527,2.804-1.528,2.773-3.801,4.919-6.397,6.705-4.565,3.141-9.633,4.332-15.162,4.304-8.001-.04-14.361-3.449-19.522-9.191-6.53-7.265-9.35-15.989-9.278-26.606Z" fill="#007cff" stroke-width="0"/>
        <path d="M467.552,174.611c-.127-7.741.119-13.964.644-20.155,1.086-12.817,3.36-25.417,8.074-37.454,6.304-16.097,15.809-29.852,30.055-39.98,7.984-5.676,16.856-9.292,26.551-10.914,4.99-.835,10.015-1.118,15.024-.79,12.79.837,24.435,4.957,34.839,12.557,6.195,4.526,11.1,10.254,15.942,16.102,4.086,4.934,7.91,10.017,10.765,15.774,3.682,7.421,5.904,15.263,7.034,23.468.832,6.036,1.021,12.096.698,18.134-.537,10.034-2.298,19.912-4.782,29.65-2.266,8.882-4.733,17.708-8.176,26.219-2.702,6.68-6.038,13.031-10.603,18.66-6.171,7.611-13.994,12.992-23.002,16.683-7.807,3.199-15.944,4.91-24.382,5.47-13.774.915-27.219-.661-40.315-4.943-7.517-2.458-14.423-6.132-19.908-11.971-3.655-3.891-7.116-7.99-10.172-12.37-3.961-5.677-5.801-12.194-6.81-18.963-.634-4.254-.819-8.545-1.109-12.834-.312-4.624-.042-9.248-.367-12.343ZM480.127,173.968c-.089,6.708.582,13.356,1.288,20.012.883,8.322,3.547,16.138,6.394,23.918.536,1.465,1.522,2.525,2.859,3.408,2.946,1.946,6.045,3.592,9.281,4.959,12.345,5.218,25.168,7.263,38.556,5.928,10.46-1.042,20.329-3.877,29.559-8.901,7.627-4.152,13.225-10.177,16.634-18.182,5.224-12.267,9.419-24.877,12.496-37.85,2.413-10.17,3.759-20.442,3.45-30.945-.346-11.76-2.95-22.893-8.499-33.263-6.278-11.731-15.249-20.573-27.997-25.143-5.987-2.146-12.234-3.252-18.538-2.945-7.117.347-13.971,2.29-20.515,5.187-6.936,3.07-13.143,7.254-18.472,12.622-5.678,5.72-9.9,12.496-13.218,19.802-8.857,19.5-13.191,39.995-13.277,61.395Z" fill="#007cff" stroke-width="0"/>
        <path d="M513.551,149.514c.364-9.27,1.426-18.42,5.36-26.967,3.585-7.789,9.174-13.646,17.437-16.41,8.012-2.68,15.36-1.19,21.335,4.906,4.623,4.716,8.94,9.739,12.33,15.477.99,1.676,1.686,3.431,2.064,5.313,1.514,7.538,1.522,15.055-.915,22.402-4.294,12.947-13.058,21.049-26.7,22.939-5.869.813-11.941.696-17.54-2.168-7.102-3.633-11.228-9.425-12.83-17.15-.573-2.761-.513-5.546-.541-8.341ZM557.889,141.709c.058-5.739-.509-10.795-1.458-15.808-.494-2.612-.9-2.979-3.606-3.185-5.936-.452-10.803,1.849-14.607,6.236-3.889,4.486-5.368,10.045-6.278,15.771-.6,3.773-.993,7.562-1.107,11.389-.09,3.015-.062,5.992.514,8.969.244,1.261.893,1.69,2.073,1.861,3.074.446,6.003-.236,8.902-1.053,7.991-2.254,13.038-7.363,14.867-15.533.685-3.059.793-6.158.701-8.646Z" fill="#007cff" stroke-width="0"/>
      </g>
      <g>
        <path d="M1363.96,450.441c23.448,20.068,40.822-19.134,47.429-37.449.422-1.466,5.123-3.137,7.476-2.833,80.137,20.597,40.315-33.645,3.133-55.807-7.692-7.176-.6-20.028-1.221-29.485,4.157-15.433-15.416-22.565-26.762-12.373-5.581,5.416-11.043,10.954-16.727,16.269-14.06,11.792-30.642-.896-45.223-3.149-29.811-5.293-30.834,26.036-12.788,39.999,8.392,10.547,6.822,8.014-1.768,17.927-37.097,37.628-1.213,39.466,32.175,33.639,14.42.395,7.521,24.192,14.276,33.263M1376.611,427.438c-10.696,2.544-6.084-14.336-8.938-20.389-.018-22.717-47.249,5.112-38.576-11.159,3.187-3.813,6.325-7.769,10.077-11.018,18.987-16.524-21.313-33.914-5.94-38.506,13.596-2.949,24.852,9.087,37.383,8.67,5.837-4.291,32.306-39.652,33.308-19.591-6.131,32.378-4.012,26.055,20.604,44.936,28.569,24.767-2.226,15.291-19.424,11.515-12.92-4.843-11.59,28.245-28.494,35.541Z" fill="#fc6363" stroke-width="0"/>
        <g>
          <path d="M1133.922,488.379c10.679-.505,21.539-1.172,32.228-1.593-2.731-1.323-5.314-2.938-7.684-4.964-.237-.203-.462-.415-.684-.63-6.764.275-13.52.592-20.262.881-1.062,2.165-2.255,4.27-3.598,6.306Z" fill="#fc6363" stroke-width="0"/>
          <path d="M1139.172,478.422c5.251-.143,10.516-.298,15.766-.451-1.538-1.869-3.047-3.763-4.623-5.601-3.008.052-6.012.103-9.011.152-.627,2.006-1.335,3.974-2.132,5.9Z" fill="#fc6363" stroke-width="0"/>
          <path d="M1022.916,485.266c.121-.009.242-.02.363-.029-.388-.807-.654-1.679-.879-2.548-.303-1.166-.501-2.315-.606-3.451-6.896.532-13.82,1.017-20.665,1.511-1.441.104-2.878.226-4.317.339,1.38,1.913,2.551,3.921,3.44,6.062,7.541-.658,15.094-1.291,22.664-1.884Z" fill="#fc6363" stroke-width="0"/>
          <path d="M844.149,506.799c-8.473.622-16.838,1.413-25.267,2.112-7.649.634-15.207,1.174-22.81,1.874-6.624,5.795-14.356,9.826-23.459,11.694-.583.12-1.167.216-1.751.316,2.049-.207,4.101-.413,6.146-.623,10.813-1.106,21.545-2.351,32.393-3.316,10.849-.965,21.5-1.946,32.43-2.965,3.042-.284,6.086-.533,9.131-.779-2.018-2.372-3.987-4.786-5.954-7.2-.299-.367-.582-.739-.858-1.113Z" fill="#fc6363" stroke-width="0"/>
          <path d="M835.048,498.224c1.697-.097,3.402-.181,5.107-.265-.333-1.762-.431-3.603-.259-5.535.039-.44.103-.867.187-1.284-2.758.132-5.516.278-8.271.456-3.152.203-6.191.28-9.304.462-4.006.235-8.005.502-12.003.749-1.44,2.484-3.019,4.896-4.73,7.238,9.75-.59,19.438-1.26,29.274-1.821Z" fill="#fc6363" stroke-width="0"/>
          <path d="M1012.1,492.056c-3.425.342-6.825.684-10.219,1.029.356,2.641.259,5.095-.274,7.372,6.727-.746,13.465-1.602,20.246-2.351,3.486-.385,6.966-.752,10.445-1.113-1.938-2.033-3.7-4.232-5.383-6.496-4.961.535-9.912,1.07-14.816,1.56Z" fill="#fc6363" stroke-width="0"/>
          <path d="M615.223,510.025c4.568-.074,9.098-.198,13.646-.269,1.294-.02,2.589-.054,3.883-.08-1.35-2.479-1.976-5.041-1.921-7.679-3.302.072-6.6.125-9.914.174-1.344,2.275-2.842,4.469-4.561,6.548-.371.449-.75.882-1.134,1.304Z" fill="#fc6363" stroke-width="0"/>
          <path d="M1479.407,494.884c-6.098.053-12.116.594-18.244.436-13.178-.34-25.821-.648-39.139-1.45-14.647-.883-29.461-3.083-44.241-5.087-11.689-1.585-23.416-3.459-35.306-5.063-19.45-2.624-39.301-4.325-58.908-6.263-10.501-1.037-21.056-2.183-31.599-2.822-.614,1.448-1.439,2.847-2.503,4.151-.29.356-.602.68-.906,1.014,15.953.843,31.813,2.317,47.722,3.798,5.143.479,10.378.919,15.522,1.392.322.03.704.144.92.268.216.124-.089.261.007.401-3.783-.248-7.604-.492-11.373-.763-10.404-.746-20.889-1.579-31.27-2.202-7.823-.47-15.558-.818-23.344-1.087-2.404,2.148-5.142,3.789-8.082,5.101,9.507.193,19.019.404,28.528.962,10.559.62,21.339,1.131,31.859,1.907,10.52.775,20.878,1.583,31.34,2.331,3.322.238,6.501.54,9.801.837.007.178.022.355.036.533-2.437-.118-4.79-.245-7.241-.367-7.246-.36-14.56-.692-21.814-1.085-12.125-.658-24.334-1.141-36.441-1.511-15.005-.458-30.022-.477-44.983-.495-8.042,2.303-16.28,3.515-24.729,3.767-8.983.267-17.787-.585-26.441-2.644-9.566.437-19.03,1.045-28.652,1.733-6.89.493-13.896.932-20.856,1.436-3.642,3.336-8.009,5.611-13.027,6.893-3.451.881-6.913,1.711-10.384,2.496,1.244-.139,2.49-.272,3.73-.417,10.719-1.247,21.516-2.086,32.306-2.924,16.602-1.288,32.985-2.587,49.701-3.277,13.539-.559,27.229-.773,40.894-.808,9.776-.025,19.729-.265,29.562-.11,11.537.181,23.16.632,34.715,1.063,9.092.339,18.261.72,27.334,1.043,7.967.284,15.875.71,23.809,1.076,3.197.147,6.332.214,9.521.309.046.191.096.383.144.574-.968.018-1.922.042-2.898.031-16.342-.193-32.711-.253-49.051-.24-13.037.011-26.019.231-39.03.438-9.207.146-18.632.724-27.759,1.122-12.136.529-24.118.912-36.129,1.793-12.426.912-24.625,2.119-37.009,3.392-11.556,1.188-23.446,2.456-34.933,3.815-10.999,1.301-21.716,2.885-32.583,4.476-12.004,1.757-24.028,3.882-35.943,5.853-13.925,2.303-27.736,4.548-41.578,7.045-10.483,1.891-20.978,3.705-31.419,5.646-9.562,1.778-19.19,3.458-28.704,5.183-11.023,1.999-22.136,3.868-33.094,5.639-10.408,1.682-20.825,3.077-31.127,4.541-9.132,1.298-18.224,2.656-27.224,3.86-14.381,1.924-28.668,4.4-42.878,6.56s-28.221,4.159-42.29,6.497c-9.963,1.656-19.725,3.253-29.646,4.89-11.433,1.887-22.843,3.675-34.3,5.448-8.802,1.362-17.648,2.821-26.458,4.128-7.289,1.082-14.563,1.944-21.853,3.009-6.301.92-12.518,1.853-18.871,2.681-8.345,1.088-16.83,2.032-25.22,2.961-6.004.664-11.971,1.274-17.985,1.905-6.478.68-12.979,1.318-19.499,1.744-10.171.664-20.45,1.316-30.613,1.912-10.163.596-20.211.853-30.377,1.102-6.755.165-13.516.208-20.297.148-6.056-.054-12.161-.165-18.232-.346-7.183-.215-14.364-.434-21.552-.824-9.506-.516-19.016-1.035-28.517-1.825-11.736-.976-23.495-2.098-35.211-3.354-8.133-.873-16.287-1.773-24.373-2.949-9.832-1.43-19.614-2.977-29.389-4.712-12.704-2.256-25.323-4.955-37.782-8.285-11.294-3.018-22.503-6.346-33.594-9.988-12.312-4.044-24.334-8.726-36.185-13.967-13.315-5.889-26.068-12.786-38.587-20.225-4.46-2.65-8.695-5.626-13.083-8.408-.659-.417-1.286-.992-1.908-1.469.59-1.39,1.4-2.826,2.002-4.181.966-2.175,1.188-4.249.631-6.506-.743-3.009-1.658-5.846-2.837-8.668-1.933-4.628-4.181-8.984-6.251-13.584-1.224-2.721-2.374-5.616-2.999-8.572.466.152,1.186.353,1.542.655,6.605,5.619,13.263,11.028,20.444,15.824,7.727,5.16,15.547,9.967,23.621,14.55,6.892,3.914,13.929,7.555,21.169,10.822,9.214,4.158,18.331,8.107,27.852,11.726,9.521,3.618,19.276,6.99,29.115,9.991,15.19,4.633,30.675,8.373,46.207,11.803,7.177,1.585,14.395,3.062,21.646,4.311,9.303,1.603,18.654,2.984,28.002,4.355,7.92,1.162,15.853,2.15,23.808,3.06,6.92.792,13.864,1.398,20.799,2.028,6.294.572,12.594,1.113,18.896,1.582,3.672.273,7.355.423,11.032.62,5.112.274,10.246.568,15.354.82,4.15.205,8.347.416,12.477.531,6.441.18,12.902.217,19.306.219,14.95.005,29.824-.19,44.739-.555,4.42-.108,8.822-.306,13.214-.514,6.426-.304,12.87-.597,19.255-1.099,4.203-.331,8.328-.668,12.498-1.069,5.325-.512,10.616-1.135,15.937-1.622,6.636-.608,13.321-1.155,19.924-1.881,6.139-.675,12.185-1.527,18.293-2.294,11.915-1.496,23.885-2.826,35.775-4.41,10.899-1.452,21.747-2.861,32.625-4.376,9.815-1.367,19.567-2.968,29.398-4.293,10.44-1.408,20.812-2.812,31.284-4.269,8.18-1.139,16.433-2.043,24.679-3.115,10.02-1.303,19.755-2.573,29.91-3.95s20.635-2.296,31.003-3.486c11.851-1.36,23.809-2.701,35.781-4.164,6.458-.79,13.063-1.791,19.634-2.697,11.059-1.525,22.135-3.011,33.263-4.675,12.34-1.844,24.535-3.813,37.011-5.631s25.159-3.654,37.797-5.283c5.791-.747,11.584-1.571,17.39-2.394-1.068-.052-2.136-.119-3.204-.202-6.277-.484-12.275-1.987-17.619-5.041-7.52.961-15.032,1.938-22.54,2.927-7.34.968-14.622,1.994-21.89,3.027-.438.412-.891.818-1.376,1.211-3.634,2.941-7.923,4.427-12.475,5.124-6.583,1.008-13.194.81-19.807.208-3.034-.276-6.077-.473-9.12-.63-6.183.815-12.352,1.61-18.455,2.354-15.904,1.939-31.609,3.696-47.338,5.418-11.38,1.246-22.554,2.177-33.787,3.252-9.595.918-18.924,2.26-28.403,3.351-11.715,1.349-23.425,2.431-35.066,3.994-10.107,1.357-20.167,2.594-30.25,3.871-8.479,1.074-16.87,2.217-25.337,3.281-8.772,1.102-17.525,2.134-26.306,3.213-8.094.995-16.187,2.022-24.308,2.912-7.276.798-14.601,1.521-21.881,2.34-5.595.629-11.11,1.264-16.731,1.805-7.314.705-14.686,1.285-22.036,1.889-4.645.382-9.294.792-13.962,1.134-8.018.587-15.951,1.158-24.021,1.478-12.148.48-24.3,1.024-36.501,1.423-7.475.245-14.994.134-22.53.002-8.241-.144-16.548-.474-24.827-.84-5.573-.246-11.185-.445-16.776-.843-9.262-.66-18.512-1.271-27.767-2.09-11.494-1.016-22.91-1.941-34.392-3.292-11.482-1.351-23.019-3.002-34.455-4.832-12.225-1.955-24.409-4.121-36.532-6.621-4.482-.924-8.953-1.92-13.41-2.969-6.24-.18-12.482-.398-18.597-1.923-5.096-1.271-9.654-3.374-13.487-6.645-4.641-1.434-9.254-2.958-13.831-4.604-15.115-5.436-29.897-11.541-44.314-18.684-12.545-6.215-24.383-13.499-35.978-21.361-5.406-3.666-10.368-7.923-15.54-11.925-2.206-1.707-4.217-3.648-6.352-5.5-.227-.197-.506-.702-.691-.977,14.939-4.195,28.927-9.039,42.263-17.094,1.827,1.398,3.641,2.92,5.44,4.337,7.391,5.82,14.859,11.463,22.858,16.4,7.257,4.479,14.596,8.807,22.162,12.706,2.906,1.498,5.828,2.959,8.766,4.388.876-3.919,2.229-7.713,3.941-11.414-.701-.342-1.405-.677-2.104-1.023-11.631-5.755-22.598-12.683-33.284-20.038-5.872-4.042-11.327-8.688-17.019-12.982-1.328-1.002-2.527-2.195-3.768-3.313-.393-.354-.671-.912-.84-1.385-1.878-5.27-4.897-9.217-9.342-12.497-5.039-3.718-10.279-6.622-15.92-9.155-7.898-3.547-15.896-6.683-23.834-10.125-.147-.063-.285-.074-.454-.168-4.232-2.351-5.411-4.551-5.043-9.523.073-.991.169-2.533.421-3.732.505-2.4,1.294-4.889,1.825-7.364.631-2.94,1.154-6.027,1.719-8.999.773.121,1.168.717,1.677,1.235,3.96,4.031,7.931,8.164,11.947,12.094,2.364,2.313,5.011,4.567,7.396,6.671,2.385,2.104,4.547,4.067,6.918,5.982,4.738,3.827,9.338,7.691,14.235,11.242,7.169,5.199,14.387,10.264,21.82,15.046,6.896,4.437,13.966,8.539,21.145,12.477,7.613,4.176,15.32,8.083,23.151,11.823,3.551,1.696,7.144,3.317,10.757,4.888,1.679-2.374,3.391-4.726,5.108-7.073-3.509-1.478-7-2.999-10.45-4.635-16.048-7.611-31.44-16.199-46.425-25.738-6.223-3.961-12.175-8.341-18.092-12.758-5.593-4.174-10.947-8.661-16.296-13.16-3.957-3.328-7.842-6.765-11.522-10.401-5.339-5.275-10.434-10.761-15.571-16.236-2.453-2.614-4.735-5.368-6.985-8.166-3.059-3.804-5.96-7.642-9.558-10.995-3.072-2.863-6.466-5.008-10.397-6.547-1.384-.542-2.875-.919-4.261-1.468-2.405-.017-4.799-.038-7.204-.069-1.576.517-3.228.833-4.79,1.398-5.03,1.821-9.563,4.212-13.657,7.65-4.802,4.032-8.959,8.667-13.703,12.732-3.881,3.325-7.556,6.9-12.225,9.11-7.102,3.362-13.864,3.855-21.462,2.045-5.398-1.286-10.361-3.742-15.609-5.43-6.536-2.102-12.745-5.068-19.483-6.574-6.738-1.505-12.477-.564-18.547,2.784-3.471,1.914-5.404,5.11-7.123,8.603-.214.434-.586.913-.928,1.27-.006,1.923-.07,3.833-.032,5.75.003.157.234.225.283.353,2.01,5.212,5.21,9.54,8.427,14.034,2.479,3.463,5.142,6.666,7.791,9.983,3.201,4.01,6.364,7.904,8.636,12.548.729,1.492,1.262,3.08,1.531,4.75.409,2.541.099,4.732-1.129,7.046-4.606,8.679-8.963,17.512-11.96,26.872s-5.009,18.568-6.016,28.343c-.66,6.411-.175,12.713,1.233,19.026.533,2.387,1.728,4.726,2.848,6.84s2.645,3.577,4.51,4.974c5.018,3.757,10.022,7.599,15.082,11.273,6.16,4.473,12.324,8.865,18.664,13.049,11.047,7.29,22.313,14.208,33.92,20.546,8.851,4.833,17.783,9.52,26.797,13.951,9.014,4.431,18.105,8.564,27.339,12.446,10.047,4.223,20.187,8.152,30.449,11.819,10.262,3.667,20.619,6.999,31.008,10.296,6.948,2.205,13.995,4.077,21.046,5.935,8.834,2.327,17.674,4.703,26.591,6.69,10.958,2.443,21.977,4.701,33.029,6.683,11.685,2.095,23.402,4.082,35.18,5.662,13.127,1.762,26.297,3.347,39.471,4.819,7.822.875,15.69,1.432,23.54,1.997,9.29.668,18.578,1.227,27.875,1.757,6.812.389,13.627.663,20.449.916,4.979.185,9.976.247,14.963.429.69.025,1.383.265,2.062.397,20.398-.102,40.792-.505,61.188-.808.747-.142,1.503-.394,2.263-.429,6.35-.29,12.712-.501,19.054-.765,1.982-.083,3.998-.168,5.949-.311,6.941-.507,13.88-1.182,20.773-1.868,6.509-.647,12.991-1.186,19.457-1.941,8.465-.989,16.985-2.067,25.412-3.083,8.89-1.071,17.678-2.355,26.478-3.786,12.746-2.071,25.444-4.203,38.164-6.265,7.496-1.215,14.901-2.588,22.343-4.003,10.224-1.945,20.389-3.841,30.628-5.746,9.035-1.681,17.885-3.432,26.966-5.212,9.081-1.781,18.206-3.642,27.391-5.399,13.329-2.551,26.628-5.082,40.059-7.509,13.811-2.496,27.594-5.111,41.473-7.864,10.52-2.087,21.338-3.823,32.013-5.686,8.896-1.552,17.879-3.363,26.783-5.148,8.903-1.785,17.803-3.667,26.705-5.596,12.881-2.79,25.815-5.511,38.706-8.372,8.046-1.786,16.031-3.707,24.08-5.611,13.673-3.235,27.42-6.173,41.209-9.006,7.881-1.62,15.711-3.523,23.627-5.091,7.518-1.489,15.089-2.684,22.652-4.123,9.083-1.728,18.168-3.711,27.347-5.078,14.011-2.086,27.962-4.014,42.027-6.144,8.157-1.235,16.253-2.644,24.594-3.388,8.341-.744,16.638-1.451,25.147-2.265,8.509-.814,17.323-1.747,25.987-2.614,4.904-.491,10.082-.727,15.078-.949,8.239-.367,16.462-.912,24.72-1.211,9.432-.341,18.897-.675,28.35-.813,13.048-.191,26.167-.021,39.211-.041,7.527-.011,15.108.106,22.584-.041,9.545-.187,19.049-.816,28.5-1.521,12.667-.944,25.03-2.427,37.549-4.371,9.494-1.474,18.809-3.407,28.065-5.987.415-1.25.838-2.467,1.252-3.721-1.228-2.223-2.466-3.486-5.152-3.463ZM55.673,500.732c-1.383.555-2.896,1.043-4.378,1.04-2.672-.005-4.369-.906-5.294-3.561-.925-2.655-.892-5.646-.359-8.454,1.807-9.5,4.627-18.544,8.54-27.363,3.254-7.332,7.026-14.378,10.33-21.672,1.769-3.904,3.327-7.886,4.012-12.11.496-3.057.174-6.019-.835-8.886-1.913-5.437-4.997-10.072-8.387-14.642-4.189-5.646-8.741-10.894-13.079-16.411-1.776-2.259-3.808-4.242-5.449-6.649-1.828-2.681-3.023-5.249-3.471-8.635-.277-2.096,1.002-4.326,3.307-4.922,1.859-.48,3.867-.816,5.87-.491,8.354,1.36,16.432,3.69,24.345,6.74,11.093,4.275,22.032,8.963,33.09,13.325,2.076.819,4.173,1.625,6.3,2.283,1.545.478,2.918.423,4.36-.351,3.409-1.829,6.552-3.849,9.407-6.513,3.668-3.424,6.894-7.202,10.284-10.964s6.628-7.75,10.472-11.164c5.386-4.784,11.284-7.842,18.232-9.788.916-.256,1.907-.333,2.861-.235,4.825.489,7.208,3.172,7.945,7.831.125.789-.069,1.238.025,1.968.011.085.196-.023.188.043-.543,4.182-1.304,8.331-1.945,12.508-.985,6.416-2.064,12.733-1.689,19.271.31,5.396,1.646,10.256,4.765,14.767,2.643,3.822,6.297,6.397,10.4,8.532,2.748,1.43,5.781,2.309,8.689,3.369,6.069,2.211,12.024,4.692,17.869,7.43,1.876.879,3.819,1.685,5.625,2.654,2.186,1.172,4.214,2.604,5.547,4.661,1.333,2.056.914,3.6-1.02,4.99-1.307.939-2.92,1.653-4.514,2.052-5.883,1.474-11.812,2.62-17.742,3.926-7.731,1.703-15.424,3.204-22.827,6.162-3.186,1.273-6.204,2.875-8.605,5.432-3.04,3.237-3.592,6.834-3.155,11.158.063.626.323,1.245.55,1.844,3.07,8.112,6.577,15.934,10.678,23.59,1.616,3.018,3.033,6.188,4.185,9.424.548,1.539.851,3.305.742,4.903-.169,2.495-1.437,4.317-3.644,5.336-2.945,1.359-5.98,1.417-9.039.68-7.867-1.894-14.796-5.174-21.489-9.61-7.179-4.758-13.471-10.473-20.126-15.895-4.904-3.996-9.691-8.063-14.905-11.706-2.48-1.732-5.105-3.247-8.087-4.107-3.822-1.103-6.895-.594-10.143,1.886-3.708,2.832-7.446,5.92-11.264,8.722-4.508,3.308-8.927,6.764-13.554,9.955-4.307,2.971-8.742,5.689-13.618,7.648ZM1330.307,506.051c-9.078.437-18.251.925-27.307,1.397-8.304.433-16.466.719-24.763,1.112-6.536.31-13.284.793-19.772,1.408-8.155.773-16.227,1.519-24.322,2.271-7.185.668-14.25,1.282-21.42,1.919-5.522.491-11.262.892-16.705,1.673-8.856,1.271-17.507,2.729-26.314,3.986-7.513,1.072-14.941,1.986-22.497,3.006-4.635.626-9.571,1.435-14.173,2.239-5.725,1-11.328,1.916-16.997,2.957-6.872,1.263-13.711,2.576-20.57,3.871-6.457,1.219-12.911,2.548-19.34,3.837-5.555,1.115-11.076,2.232-16.607,3.395-9.721,2.044-19.484,4.156-29.165,6.268-8.816,1.922-17.605,3.779-26.394,5.665-11.216,2.407-22.431,4.907-33.61,7.316-11.733,2.529-23.592,5.085-35.299,7.317-13.498,2.573-27.044,5.034-40.451,7.217-12.712,2.07-25.099,4.438-37.635,6.722-11.548,2.104-23.039,4.041-34.491,6.165-9.855,1.828-19.56,3.587-29.351,5.431-10.917,2.057-21.799,4.141-32.691,6.201-12.096,2.288-24.124,4.511-36.241,6.677-10.688,1.91-21.367,3.788-32.1,5.602-10.732,1.814-21.469,3.628-32.261,5.28-10.41,1.594-20.787,3.21-31.277,4.562-9.495,1.223-19.086,2.177-28.651,3.188-8.099.856-16.201,1.689-24.367,2.398-7.155.621-14.371,1.141-21.604,1.522-5.901.311-11.865.597-17.818.778-14.138.43-28.338.642-42.499.883-1.274.022-2.553.042-3.834.03-8.476-.083-16.91-.065-25.402-.279-7.28-.183-14.64-.483-21.931-.894-10.175-.572-20.348-1.276-30.512-1.979-7.765-.537-15.503-1.146-23.256-1.914-8.872-.878-17.755-1.854-26.602-2.982-10.444-1.332-20.841-2.78-31.25-4.314-5.243-.773-10.453-1.747-15.668-2.695-5.927-1.078-11.891-2.138-17.787-3.34-6.838-1.394-13.637-2.837-20.418-4.463-9.118-2.186-18.263-4.431-27.325-6.82-7.511-1.979-14.939-4.126-22.345-6.449-8.633-2.708-17.257-5.407-25.781-8.458-10.098-3.615-20.115-7.487-30.03-11.581-8.293-3.425-16.454-7.123-24.574-10.924-7.392-3.46-14.66-7.07-21.834-10.978-8.297-4.52-16.479-9.268-24.545-14.206-7.588-4.644-14.911-9.641-22.308-14.596-3.989-2.673-7.835-5.546-11.779-8.346-.382-.271-.931-.706-1.312-1.018,1.325-.644,2.966-1.286,4.246-1.914,7.821-3.838,14.907-8.408,21.964-13.42,2.404-1.708,4.421-3.828,7.025-5.259,3.552-1.954,6.824-2.218,10.654-.734,1.932.748,3.16,2.635,4.777,3.932,5.398,4.331,10.612,8.931,16.178,13.084,6.492,4.844,13.219,9.258,20.392,13.056,5.054,2.676,10.283,4.638,15.834,6.08,3.665.951,7.377.934,11.131.646,1.37-.105,2.423.157,3.552.913,13.527,9.059,27.366,17.292,41.938,24.513,7.741,3.836,15.576,7.46,23.571,10.698,9.107,3.688,18.337,7.001,27.621,10.251,7.096,2.483,14.294,4.782,21.551,6.785,10.272,2.837,20.582,5.534,30.975,7.914,9.457,2.166,18.959,4.047,28.508,5.786,10.892,1.982,21.82,3.664,32.798,5.133,11.852,1.586,23.737,2.728,35.641,3.837,9.984.93,20.01,1.562,30.002,2.249,5.673.39,11.327.667,16.991.852,9.903.322,19.852.55,29.729.644,14.991.142,29.949-.045,44.885-.254,6.428-.09,12.774-.481,19.116-.917,7.902-.542,15.746-1.087,23.588-1.712,8.229-.656,16.434-1.466,24.591-2.401,8.541-.979,17.116-1.904,25.588-2.991,10.763-1.382,21.594-2.999,32.23-4.618s21.058-3.173,31.604-4.859c11.153-1.783,22.236-3.709,33.342-5.594,11.411-1.937,22.723-3.904,34.135-5.828,8.615-1.453,17.216-2.909,25.852-4.425,12.12-2.127,24.225-3.941,36.425-5.953,8.848-1.459,17.64-2.851,26.594-4.371,16.676-2.83,33.345-5.184,50.229-7.603,11.566-1.656,23.18-3.708,34.881-5.731,15.813-2.734,31.639-5.966,47.56-9.013s32.001-6.059,48.087-8.978c13.299-2.414,26.819-4.804,40.236-7.066,9.64-1.625,19.271-3.005,29.005-4.568,15.575-2.5,31.481-4.529,47.198-6.203,9.411-1.002,18.502-1.951,27.951-3.004,11.912-1.328,23.99-2.193,36.021-2.761,7.715-.364,15.229-.848,23.007-1.295,9.873-.568,20.027-1.024,29.967-1.227,9.347-.19,18.629-.291,27.97-.366,4.883-.04,9.679-.078,14.594-.114,6.44-.047,12.978-.189,19.455-.158.813.004,1.643.198,2.392.544-2.135.115-4.257.26-6.4.363Z" fill="#fc6363" stroke-width="0"/>
          <path d="M432.038,492.779c5.067,1.043,10.144,2.042,15.229,2.96,3.262.589,6.527,1.155,9.794,1.708.857-2.899,2.079-5.622,3.547-8.208-4.302-.735-8.601-1.488-12.884-2.267-6.069-1.103-12.134-2.314-18.18-3.593.113.312.234.621.342.936.957,2.788,1.672,5.611,2.151,8.464Z" fill="#fc6363" stroke-width="0"/>
          <path d="M752.11,523.696c-4.382-.115-8.77-.265-13.136-.63-4.383-.368-8.768-.445-13.15-.416-14.77.1-29.42,1.459-43.94,4.25-6.644,1.277-13.305,2.602-20.128,2.433-6.493-.161-12.273-1.828-17.079-5.557-1.054.062-2.102.133-3.158.191-8.529.477-17.073.943-25.632,1.347-6.692.315-13.394.615-20.117.764-6.086.135-12.162.229-18.281.221-7.533-.009-15.035-.046-22.615-.217-10.339-.233-20.663-.661-31.036-1.388-5.328-.373-10.705-.824-16.077-1.308-4.864.153-9.733.143-14.581.437-4.797.292-9.58.221-14.364.188-2.775-.019-5.537-.568-8.142-1.695-1.935-.837-3.65-1.909-5.058-3.46-6.102-.746-12.208-1.536-18.276-2.416-5.65-.819-11.297-1.67-16.934-2.579-1.415,3.567-3.505,6.842-6.36,9.747-.353.359-.72.697-1.088,1.035,8.178,1.429,16.377,2.648,24.591,3.934,6.714,1.051,13.47,1.828,20.216,2.633,7.777.927,15.572,1.75,23.358,2.563,3.654.381,7.33.688,10.987.966,8.984.683,18.078,1.381,27.029,1.942,6.892.432,13.726.54,20.562.576,9.357.049,18.745.083,28.043.117,16.338.059,32.552-.868,48.832-1.576,5.146-.224,10.273-.558,15.376-.91,5.796-.4,11.512-.825,17.276-1.326,8.068-.702,16.114-1.296,24.184-1.965,6.144-.509,12.3-1.147,18.437-1.774,7.595-.775,15.245-1.481,22.824-2.245,8.497-.855,16.89-1.722,25.381-2.64,4.002-.433,8.021-.845,12.042-1.254-3.322.138-6.654.098-9.987.01Z" fill="#fc6363" stroke-width="0"/>
        </g>
        <g>
          <ellipse cx="127.517" cy="400.258" rx="6.533" ry="3.795" fill="#fc6363" stroke-width="0"/>
          <ellipse cx="156.213" cy="410.733" rx="4.148" ry="6.222" transform="translate(-271.429 309.609) rotate(-55.872)" fill="#fc6363" stroke-width="0"/>
          <path d="M111.425,414.668c7.109,7.394,18.175,10.937,28.201,12.106,3.536.473,7.01.104,10.524.046,9.125.548,8.971,13.62-.166,13.959-8.489-.262-16.893-2.981-24.41-6.706-7.47-3.9-14.426-8.649-19.087-15.995-1.891-3.251,2.572-6.313,4.938-3.409h0Z" fill="#fc6363" stroke-width="0"/>
        </g>
        <path d="M1468.632,165.969c30.556-6.227,10.1-44.419-.394-61.059-.907-1.246.681-6.031,2.385-7.718,66.183-51.082-1.781-53.027-42.535-37.154-10.497,1.674-16.335-11.959-24.259-17.337-9.719-12.897-27.558-1.726-26.481,13.647.851,7.812,1.873,15.604,2.58,23.435.667,18.529-19.743,23.866-30.594,34.089-22.732,20.474,1.603,40.744,23.939,35.032,13.618-.14,10.624-.461,13.191,12.542,6.954,52.935,30.702,25.476,46.792-4.755,9.27-11.248,23.953,9.029,35.377,9.278M1469.836,149.829c-5.867,12.848-19.332-5.154-27.718-7.041-23.035-17.918-32.125,51.918-41.766,30.281-1.347-6.24-2.879-12.544-3.21-18.911-1.754-32.287-51.195-5.179-43.71-24.383,7.746-16.106,28.83-18.009,38.301-31.037.261-9.303-14.675-64.045,6.446-49.222,27.97,31.777,23.236,24.637,61.805,14.601,47.655-9.395,13.738,14.329-3.667,28.776-15.109,9.268,19.472,34.046,13.519,56.936Z" fill="#fc6363" stroke-width="0"/>
        <path d="M117.537,214.751c-27.155,23.241-47.277-22.159-54.928-43.37-.488-1.698-5.932-3.633-8.658-3.281-92.809,23.854-46.689-38.965-3.628-64.632,8.908-8.311.695-23.194,1.414-34.147-4.814-17.873,17.854-26.132,30.994-14.33,6.464,6.272,12.789,12.686,19.371,18.842,16.283,13.656,35.487-1.037,52.374-3.647,34.525-6.13,35.71,30.152,14.81,46.323-9.719,12.214-7.901,9.281,2.047,20.762,42.962,43.578,1.405,45.706-37.262,38.957-16.7.458-8.711,28.018-16.533,38.522M102.886,188.111c12.387,2.947,7.046-16.603,10.351-23.612.021-26.309,54.721,5.921,44.676-12.923-3.691-4.415-7.325-8.998-11.67-12.761-21.989-19.137,24.683-39.277,6.879-44.594-15.746-3.416-28.781,10.524-43.294,10.04-6.761-4.969-37.414-45.922-38.575-22.689,7.1,37.498,4.646,30.175-23.862,52.042-33.086,28.684,2.578,17.709,22.495,13.336,14.962-5.609,13.423,32.712,32.999,41.161Z" fill="#fc6363" stroke-width="0"/>
        <g>
          <ellipse cx="84.063" cy="123.401" rx="4.478" ry="4.168" transform="translate(-63.378 99.831) rotate(-46.654)" fill="#fc6363" stroke-width="0"/>
          <ellipse cx="103.726" cy="114.208" rx="4.265" ry="3.758" transform="translate(-22.302 25.217) rotate(-12.527)" fill="#fc6363" stroke-width="0"/>
          <path d="M93.434,133.762c3.16-3.856,7.074-7.991,12.455-7.825,3.478-.055,6.061,3.576,4.76,6.821-2.362,5.772-10.809,8.193-16.463,6.207-1.793-.664-2.449-2.983-1.29-4.493,0,0,.537-.709.537-.709h0Z" fill="#fc6363" stroke-width="0"/>
        </g>
        <g>
          <ellipse cx="1425.566" cy="87.071" rx="5.559" ry="3.229" transform="translate(-1.605 141.861) rotate(-5.694)" fill="#fc6363" stroke-width="0"/>
          <ellipse cx="1402.154" cy="98.362" rx="5.294" ry="3.529" transform="translate(262.245 920.747) rotate(-39.821)" fill="#fc6363" stroke-width="0"/>
          <path d="M1444.876,100.383c-6.182,11.992-21.824,21.021-34.911,22.893-7.75.51-8.996-10.583-1.327-11.803,1.533-.21,3.084-.114,4.631-.285,9.896-1.142,20.782-5.368,27.139-13.273,1.763-2.663,5.801-.428,4.468,2.469h0Z" fill="#fc6363" stroke-width="0"/>
        </g>
        <g>
          <ellipse cx="1370.453" cy="364.955" rx="3.439" ry="4.478" transform="translate(968.772 1725.097) rotate(-88.459)" fill="#fc6363" stroke-width="0"/>
          <ellipse cx="1390.694" cy="373.794" rx="3.241" ry="4.265" transform="translate(276.113 1285.64) rotate(-54.331)" fill="#fc6363" stroke-width="0"/>
          <path d="M1365.814,374.161c3.251,4.03,8.401,5.781,13.381,6.95,1.879.493,3.892.795,5.94,1.382,1.216.34,1.925,1.602,1.584,2.817-.221.789-.833,1.365-1.566,1.579-3.311.987-6.901,1.051-10.322.389-5.991-1.275-12.663-5.557-13.051-12.318-.042-1.887,2.467-2.769,3.618-1.307,0,0,.416.507.416.507h0Z" fill="#fc6363" stroke-width="0"/>
        </g>
      </g>
    </g>
  </g>
</svg>