<?xml version="1.0" encoding="UTF-8"?>
<svg id="b" data-name="Layer 2" xmlns="http://www.w3.org/2000/svg" width="2280.484" height="397.403" viewBox="0 0 2280.484 397.403">
  <g id="c" data-name="Layer 2">
    <g>
      <g>
        <path d="M2021.728,254.06c-1.01.138-2.019.28-3.028.42h-7.68c-2.016-.301-4.027-.631-6.046-.897-7.018-.925-13.735-2.831-20.088-5.992-.403-.201-.8-.41-1.193-.624-7.897-.967-15.698-1.943-23.497-2.982-1.202,1.463-2.537,2.828-4.073,4.047-2.832,2.247-6.139,3.416-9.641,3.915-4.648.663-9.32,1.248-14.002,1.573-5.328.369-10.684.648-16.019.54-6.469-.131-12.864-.956-18.854-3.759-3.54-1.657-6.56-3.913-9.037-6.921-1.774-2.155-3.564-4.296-5.35-6.441-2.053-2.467-3.287-4.982-3.682-7.547-4.876-1.083-9.756-2.17-14.64-3.241-.895-.196-1.788-.396-2.682-.594.385.478.782.948,1.16,1.432,2.249,2.883,3.687,6.151,4.111,9.804.783,6.741-2.811,12.521-9.329,14.692-2.011.67-4.199.93-6.328,1.102-6.768.546-13.309-1.206-19.939-2.094-4.415-.591-8.855-1.014-13.296-1.365-3.097-.245-6.216-.374-9.32-.318-6.295.113-12.572.591-18.792,1.601-5.312.863-10.673,1.062-16.002.682-5.437-.388-10.171-2.513-13.583-7.065-.351-.468-.713-.928-1.076-1.387-.724-.916-1.466-1.819-2.218-2.714-.77-.917-1.545-1.83-2.314-2.747-1.268-1.511-2.227-3.157-2.875-4.941-.374-1.03-.646-2.105-.81-3.23-.021-.141-.025-.277-.042-.416-.333-2.839.202-5.395,1.889-7.633.297-.393.619-.78.988-1.153.256-.26.517-.517.774-.775,1.921-1.93,3.86-3.847,5.77-5.79.279-.284.551-.574.828-.86,1.686-1.736,3.344-3.494,4.913-5.329.07-.082.135-.166.205-.247-6.522-1.017-13.047-2.001-19.565-2.954-.299,2.117-.708,4.218-1.184,6.31-.092.407-.169.815-.268,1.221-.517,2.111-1.146,4.207-1.85,6.29-.154.457-.29.917-.453,1.373-.109.305-.232.602-.345.904-.982,2.628-2.114,5.166-3.437,7.587-.74,1.355-1.529,2.681-2.4,3.957-1.588,2.328-3.404,4.517-5.505,6.532-.257.247-.527.467-.789.703-1.469,1.328-3.012,2.503-4.632,3.521-3.766,2.365-7.932,3.913-12.524,4.612-5.326.811-10.687.627-16.02.357-8.058-.408-16.116-.792-24.17-.315-8.669.513-17.256,1.768-25.781,3.452-5.12,1.011-10.302,1.371-15.448.271-3.236-.691-6.048-2.159-8.421-4.332-.692-.634-1.352-1.32-1.967-2.074-1.394-1.707-2.81-3.396-4.223-5.088-.58-.694-1.162-1.388-1.738-2.085-1.588-1.92-2.547-3.912-2.896-5.954-.444-2.607.108-5.299,1.631-8.034.138-.248.291-.49.435-.735,1.262-2.155,2.72-4.217,4.278-6.167.562-.704,1.088-1.42,1.58-2.15,1.075-1.597,1.969-3.259,2.727-4.973,1.059-2.394,1.824-4.896,2.34-7.492.186-.934.337-1.88.46-2.837.073-.562.151-1.122.204-1.691.168-1.843.29-3.69.395-5.54-4.514-.28-9.022-.545-13.525-.798-.215,2.431-.59,4.85-1.049,7.261-.089.469-.176.938-.271,1.405-.118.584-.245,1.166-.367,1.749-.524,2.509-1.086,5.009-1.69,7.497-.431,1.775-.877,3.545-1.355,5.307-.765,2.82-1.601,5.621-2.508,8.401-.685,2.1-1.406,4.19-2.184,6.264-.371.988-.77,1.961-1.189,2.923-1.302,2.988-2.866,5.836-4.845,8.46-.475.63-.966,1.252-1.492,1.855-3.848,4.417-8.646,7.04-14.378,7.814-3.858.521-7.767.767-11.661.9-8.776.3-17.557.44-26.335.673-4.864.129-9.726.32-14.59.47-5.503.169-11.006.333-16.51.482-4.459.121-8.921.336-13.38.286-3.676-.041-6.846-1.254-9.261-4.012-.282-.323-.561-.654-.822-1.021-1.34-1.876-2.827-3.669-4.414-5.342-.613-.646-1.112-1.311-1.514-1.991-1.637-2.769-1.621-5.817-.641-9.098.426-1.427.976-2.794,1.608-4.118.843-1.766,1.839-3.453,2.927-5.082,1.048-1.568,2.034-3.162,2.974-4.774,1.464-2.51,2.808-5.07,4.033-7.681,1.278-2.725,2.43-5.502,3.478-8.324.613-1.652,1.191-3.318,1.732-5,.831-2.581,1.579-5.197,2.26-7.841-12.833-.083-25.519.044-38.265.384-6.598.176-13.18.35-19.755.524,1.431,2.604,2.882,5.198,4.338,7.788.287.51.573,1.02.859,1.53.784,1.395,1.534,2.803,2.245,4.226,1.335,2.672,2.507,5.405,3.414,8.233.74,2.307,1.312,4.674,1.632,7.131.05.386.091.77.13,1.153.346,3.386.255,6.671-.435,9.809-.795,3.612-2.38,7.029-5.011,10.174-1.83,2.187-3.993,3.858-6.37,5.187-1.824,1.02-3.77,1.843-5.808,2.51-4.882,1.599-9.937,2.371-15.053,2.441-6.595.091-13.189.17-19.785.225-6.989.059-13.978.09-20.966.076-4.686-.009-9.379-.415-13.957-1.68-5.085-1.406-9.359-3.961-12.627-8.164-.301-.387-.613-.765-.922-1.146-1.651-2.033-3.391-3.998-4.99-6.071-.989-1.282-1.79-2.63-2.459-4.024-1.529-3.185-2.289-6.642-2.469-10.299-.002-.046-.008-.091-.01-.137-.146-3.217.159-6.295.812-9.263.578-2.632,1.432-5.177,2.508-7.649,1.24-2.848,2.769-5.602,4.496-8.285-1.057.057-2.111.117-3.17.17-10.735.538-21.488,1.017-32.139,1.534-15.727.764-31.298,1.883-46.879,2.889-9.714.627-19.619,1.146-29.214,1.691-4.126.235-8.264.46-12.396.681-.965,2.931-1.987,5.835-3.149,8.676-1.397,3.419-3.012,6.74-5.001,9.889-.401.635-.803,1.27-1.236,1.89-2.412,3.452-5.077,6.536-7.984,9.252-7.079,6.615-15.634,10.995-25.759,12.781-13.215,2.331-25.236-.749-35.589-8.67-.842-.644-1.676-1.309-2.495-2.017-3.082-2.662-6.001-5.485-8.709-8.487-3.004-3.33-5.742-6.884-8.136-10.693-1.434-2.28-2.747-4.65-3.916-7.121-.22-.464-.424-.931-.628-1.397-2.655.033-5.306.057-7.951.08.315,2.895.535,5.798.629,8.712.079,2.456.08,4.918-.015,7.388-.05,1.306-.152,2.598-.315,3.874-.522,4.083-1.71,7.984-4.152,11.517-.001.002-.003.004-.005.006-2.683,3.878-6.458,6.047-10.977,7.067-4.395.992-8.857,1.061-13.331.932-.398-.011-.794-.097-1.192-.105-5.747-.114-11.495-.216-17.242-.328-10.86-.211-21.72-.414-32.58-.644-5.638-.119-11.278-.212-16.914-.42-.746-.028-1.491-.05-2.237-.082-4.925-.211-9.875-.31-14.646-1.898-3.671-1.222-6.746-3.255-9.223-6.186-.566-.67-1.124-1.347-1.686-2.021-1.584-1.899-3.154-3.81-4.671-5.761-1.798-2.313-2.977-4.893-3.253-7.831-.022-.238-.051-.474-.061-.716-.101-2.398.727-4.341,2.466-5.968.938-.878,1.821-1.8,2.678-2.744-5.472.269-10.934.525-16.399.768-3.752.167-7.49.349-11.231.527,1.019,1.257,2.064,2.492,3.162,3.676,1.427,1.538,2.457,3.345,3.121,5.277,1.644,4.784.977,10.357-1.952,14.669,0,.002-.002.003-.004.005-3.075,4.524-7.349,7.488-12.206,9.702-5.126,2.337-10.516,3.686-16.17,3.969-13.158.659-24.583-2.508-34.472-9.07-5.117-3.396-9.83-7.684-14.143-12.857-.708-.849-1.414-1.701-2.12-2.552-1.536-1.85-3.062-3.708-4.52-5.617-.914-1.197-1.734-2.434-2.51-3.689-.576.016-1.152.038-1.729.053-6.199.164-12.397.292-18.595.413.987,2.518,1.938,5.051,2.725,7.63.194.635.35,1.27.478,1.902.831,4.098.28,8.133-1.846,11.97-1.291,2.331-3.02,4.208-5.062,5.76-.862.655-1.773,1.257-2.741,1.802-5.232,2.948-10.951,4.451-16.842,5.095-6.646.727-13.334,1.061-20.005,1.548-6.433.469-12.862,1.003-19.302,1.344-5.667.3-11.327.281-16.868-1.339-3.239-.947-6.055-2.497-8.343-4.894-.277-.29-.55-.586-.811-.902-1.677-2.027-3.249-4.147-5.006-6.102-3.368-3.748-4.282-8.393-2.824-12.943.458-1.432,1.146-2.854,2.074-4.236,1.435-2.137,3.141-4.011,4.956-5.782-3.433-.039-6.877-.087-10.313-.159-1.77,3.063-3.83,6.02-6.13,8.884-.313.39-.648.755-.969,1.137-6.124,7.269-13.625,12.908-22.12,17.181-2.404,1.209-4.852,2.282-7.336,3.238-6.271,2.415-12.799,4.005-19.607,4.576-2.46.206-4.922.394-6.186.495-11.758-.094-22.145-2.434-31.472-7.105-5.293-2.651-10.25-6.046-14.912-10.227-4.731-4.242-8.493-9.286-12.592-14.059-.529-.616-1.024-1.251-1.53-1.879-3.021-3.752-5.639-7.718-7.833-11.909-9.105-1.149-18.199-2.368-27.28-3.691-1.439,3.58-3.06,7.058-4.95,10.374-2.465,4.324-5.386,8.375-8.958,12.024-4.081,4.167-8.708,7.511-13.752,10.187-2.743,1.455-5.605,2.72-8.58,3.795-6.707,2.422-13.612,3.855-20.75,4.372-15.822,1.145-31.174-.742-45.954-6.645-5.396-2.155-10.488-5.019-14.394-9.277-2.625-2.862-5.313-5.698-7.759-8.717-2.756-3.402-5.204-7.038-6.891-11.217-2.016-4.992-3.239-10.189-3.643-15.526-.135-1.777-.252-3.555-.365-5.333-.253-4.023-.463-8.049-.674-12.075-6.49-1.803-12.966-3.628-19.41-5.515.381,2.847.827,5.688,1.363,8.517.259,1.366.544,2.723.834,4.079,2.422,11.34,5.935,22.34,10.603,32.97.333.76.654,1.524,1,2.28,1.293,2.83,2.683,5.625,4.194,8.345,1.235,2.223,1.55,4.398,1.204,6.536-.239,1.479-.792,2.938-1.586,4.382-1.708,3.102-4.355,5.234-7.601,6.651-3.551,1.55-7.316,2.273-11.117,2.699-10.917,1.223-21.838,2.417-32.775,3.424-4.514.416-9.079.529-13.612.421-10.617-.254-19.279-4.479-25.592-13.181-.841-1.16-1.751-2.278-2.709-3.344-5.034-5.605-6.355-12.119-4.864-19.361.811-3.939,2.193-7.669,3.753-11.335.591-1.39,1.206-2.771,1.828-4.149,1.507-3.339,3.02-6.676,4.531-10.013,3.488-7.701,6.977-15.401,10.42-23.122.529-1.187.794-2.555.88-3.87.006-.09.019-.181.022-.271.145-3.138-.117-3.342-3.146-4.46-2.911-1.075-5.749-.983-8.527-.016-.486.169-.97.356-1.452.578-6.462,2.973-10.159,8.305-12.379,14.802-1.073,3.14-1.519,6.35-1.592,9.578-.057,2.486.102,4.983.399,7.469.419,3.5,1.019,6.977,1.615,10.455.465,2.717.929,5.434,1.296,8.164.872,6.492,1.188,12.993-.599,19.446-1.691,6.112-5.034,10.944-9.594,14.823-1.257,1.069-2.602,2.07-4.036,3-6.2,4.021-13.062,6.176-20.416,6.932-.838.086-1.675.141-2.511.195-7.885.508-15.673-.369-23.391-1.941-6.555-1.335-13.064-2.929-19.53-4.648-3.726-.99-7.186-2.797-9.968-5.512-2.101-2.05-3.797-4.507-5.8-6.666-2.41-2.598-4.092-5.567-5.23-8.846-.163-.469-.314-.944-.456-1.425v-2.877c.297-.704.599-1.406.89-2.112.697-1.687,1.218-3.474,2.116-5.046,1.317-2.307,2.914-4.387,4.663-6.338,1.651-1.84,3.438-3.566,5.267-5.25,4.164-3.834,8.432-7.548,12.125-11.876,5.634-6.604,10.089-13.849,13.653-21.583,1.69-3.668,3.182-7.444,4.5-11.316.487-1.431.942-2.868,1.383-4.308,2.615-8.557,4.434-17.274,5.763-26.087.611-4.059,1.123-8.136,1.559-12.229-6.791-3.944-13.495-8.004-20.108-12.183-7.837-4.953-15.178-10.487-22.508-16.033-6.918-5.234-13.383-10.875-19.892-16.511-4.807-4.164-9.46-8.453-13.854-12.978-6.366-6.557-12.305-13.395-18.299-20.229-2.858-3.259-5.434-6.702-8.03-10.153-3.528-4.69-6.786-9.457-11.019-13.635-3.611-3.564-7.848-6.19-12.611-8.333-1.676-.754-3.618-1.228-5.317-1.967-3.117-.105-6.211-.219-9.322-.35-2.084.595-4.3.88-6.362,1.548-6.637,2.148-12.856,4.856-18.555,8.824-6.685,4.656-12.673,10.276-19.217,14.977-5.355,3.847-10.408,8.105-16.576,10.418-9.382,3.52-17.466,3.573-26.507.607-6.419-2.105-11.547-6.128-17.59-8.982-7.517-3.549-14.364-8.403-22.381-11.222-8.007-2.816-15.682-2.379-24.101.532-4.813,1.665-7.897,5.469-11.02,9.24-.388.469-.94,1.036-1.463,1.398-.448,2.328-.946,4.624-1.333,6.956-.032.19.229.294.269.46,1.667,6.782,4.452,12.504,7.227,18.956,2.14,4.976,4.604,9.841,6.881,15.009,2.753,6.252,5.601,12.86,7.374,19.676.57,2.191.865,4.951.862,7.231-.003,3.469-.753,6.687-2.542,9.644-6.714,11.102-13.787,22.061-18.707,33.756-4.926,11.711-8.424,23.071-10.837,35.266-1.585,8.009-1.374,15.801-.383,23.739.375,3.004,1.726,5.929,2.977,8.592,1.251,2.663,3.087,4.548,5.355,6.367,6.104,4.894,12.244,9.876,18.456,14.648,7.572,5.817,15.177,11.622,23.043,17.088,13.732,9.542,27.894,18.727,42.48,27.179,11.145,6.458,22.538,12.742,34.017,18.666,11.499,5.933,23.21,11.565,35.091,16.818,12.948,5.724,26.109,11.104,39.461,16.145,13.373,5.049,26.918,9.668,40.551,14.256,9.13,3.073,18.397,5.698,27.706,8.316,11.674,3.286,23.37,6.632,35.208,9.481,14.568,3.506,29.25,6.769,44.031,9.682,15.65,3.085,31.35,5.994,47.21,8.432,17.704,2.722,35.446,5.102,53.301,7.443,10.616,1.391,21.273,2.324,31.966,3.309,12.667,1.167,25.29,2.115,38.009,3.104,9.328.725,18.617,1.241,27.974,1.787,6.834.398,13.68.611,20.526,1.006.949.055,1.882.382,2.808.573,28.091.409,56.24.526,84.448.719,1.041-.162,2.097-.466,3.151-.49,8.806-.202,17.633-.276,26.437-.431,2.753-.048,5.547-.098,8.261-.229,9.656-.471,19.337-1.118,28.94-1.804,9.073-.648,18.133-1.15,27.159-1.942,11.822-1.037,23.731-2.151,35.509-3.254,12.433-1.165,24.768-2.565,37.1-4.198,17.873-2.366,35.737-4.816,53.606-7.246,10.539-1.433,20.979-3.056,31.465-4.747,14.416-2.326,28.752-4.615,43.22-6.893,12.775-2.011,25.276-4.161,38.152-6.282,12.883-2.124,25.708-4.446,38.765-6.518,18.963-3.008,37.782-6.087,56.87-9,19.645-2.999,39.268-6.125,59.064-9.366,15.017-2.459,30.391-4.527,45.648-6.726,12.723-1.833,25.535-3.978,38.285-6.081,12.758-2.104,25.486-4.365,38.259-6.649,18.495-3.308,37.013-6.558,55.563-9.91,11.585-2.093,23.05-4.441,34.642-6.672,19.707-3.793,39.521-7.205,59.418-10.497,11.38-1.882,22.697-4.102,34.139-5.882,10.874-1.691,21.848-2.98,32.777-4.603,13.132-1.951,26.388-4.127,39.644-5.648,20.252-2.324,40.528-4.324,60.899-6.646,11.824-1.348,23.632-2.858,35.71-3.532,12.086-.673,24.07-1.175,36.381-1.884,12.32-.708,25.081-1.548,37.611-2.292,7.097-.42,14.577-.326,21.798-.265,11.917.103,23.857.023,35.8.224,13.653.229,27.414.931,41.111,1.727,18.929,1.1,37.95,2.95,56.918,4.662,10.958.989,21.965,2.133,32.867,3.015,13.935,1.127,27.873,1.853,41.754,2.27,18.629.559,36.979.568,55.576-.15,14.118-.545,28.196-2.128,42.082-4.224.704-1.646,1.402-3.234,2.107-4.882-.118-.188-.235-.359-.352-.539Z" fill="#fff" stroke-width="0"/>
        <path d="M2162.947,187.211c27.155,23.241,47.277-22.159,54.928-43.37.488-1.698,5.932-3.633,8.658-3.281,92.809,23.854,46.689-38.965,3.628-64.632-8.908-8.311-.695-23.194-1.414-34.147,4.814-17.873-17.854-26.132-30.994-14.33-6.464,6.272-12.789,12.686-19.371,18.842-16.283,13.656-35.487-1.037-52.374-3.647-34.525-6.13-35.71,30.152-14.81,46.323,9.719,12.214,7.901,9.281-2.047,20.762-42.962,43.578-1.405,45.706,37.262,38.957,16.7.458,8.711,28.018,16.533,38.522" fill="#fff" stroke-width="0"/>
        <path d="M2178.023,339.462c30.556-6.227,10.1-44.419-.394-61.059-.907-1.246.681-6.031,2.385-7.718,66.183-51.082-1.781-53.027-42.535-37.154-10.497,1.674-16.335-11.959-24.259-17.337-9.719-12.897-27.558-1.726-26.481,13.647.851,7.812,1.873,15.604,2.58,23.435.667,18.529-19.743,23.866-30.594,34.089-22.732,20.474,1.603,40.744,23.939,35.032,13.618-.14,10.624-.461,13.191,12.542,6.954,52.935,30.702,25.476,46.792-4.755,9.27-11.248,23.953,9.029,35.377,9.278" fill="#fff" stroke-width="0"/>
        <path d="M1942.474,392.904c18.929,16.2,32.955-15.446,38.289-30.232.34-1.183,4.135-2.532,6.035-2.287,64.693,16.628,32.545-27.161,2.529-45.052-6.209-5.793-.484-16.168-.986-23.803,3.356-12.459-12.445-18.216-21.605-9.989-4.506,4.372-8.915,8.843-13.503,13.134-11.35,9.519-24.736-.723-36.508-2.542-24.066-4.273-24.892,21.018-10.323,32.29,6.775,8.514,5.508,6.47-1.427,14.472-29.947,30.376-.979,31.86,25.974,27.156,11.641.319,6.072,19.53,11.524,26.853" fill="#fff" stroke-width="0"/>
        <path d="M271.671,224.646c.931-1.556,1.775-3.071,2.716-4.523,3.483-5.377,7.734-10.131,12.084-14.805,5.812-6.247,11.806-12.33,16.716-19.366,5.153-7.385,9.036-15.389,12.033-23.844,3.849-10.857,6.255-22.062,7.675-33.466.992-7.965,1.661-15.97,2.45-23.96.72-7.289,1.453-14.589,1.245-21.919-.186-6.562-1.046-13.057-4.293-18.923-3.628-6.555-8.807-11.295-16.349-12.942-1.521-.332-3.114-.335-4.831-.505.431-1.978,1.572-3.41,2.714-4.801,4.968-6.049,11.506-9.5,19.033-11.191,6.134-1.378,12.348-1.498,18.551-.594,6.222.907,12.436,1.901,18.616,3.061,3.383.634,6.587,1.933,9.463,3.899,4.974,3.399,6.524,7.879,4.334,13.515-1.499,3.857-3.392,7.562-5.118,11.33-2.528,5.52-4.706,11.158-5.736,17.174-1.246,7.282-.912,14.332,3.601,20.579,3.27,4.525,7.49,7.755,13.052,9.133,7.281,1.803,13.869-2.525,16.601-7.599,1.57-2.916,2.493-6.052,2.851-9.316.347-3.162.421-6.353.669-9.527.463-5.94.353-11.929,1.767-17.784,1.94-8.037,6.723-13.548,14.343-16.733,5.639-2.357,11.606-3.441,17.519-4.743,8.483-1.867,16.966-3.744,25.479-5.467,2.4-.486,4.933-.78,7.358-.585,4.624.372,6.814,2.343,7.608,5.688.813,3.426-.782,6.065-4.215,6.705-10.501,1.956-18.02,8.193-23.827,16.726-6.289,9.242-9.913,19.592-11.954,30.511-1.33,7.119-2.394,14.285-2.559,21.543-.156,6.852-.588,13.723-.254,20.554.747,15.315,3.374,30.34,7.935,45.017,3.563,11.465,8.194,22.46,13.967,32.981.115.209.187.441.378.904-.69.305-1.37.653-2.082.912-10.232,3.726-20.741,6.195-31.587,7.37-6.531.707-13.067.947-19.596.661-4.993-.218-9.959-1.07-14.931-1.688-.859-.107-1.72-.376-2.524-.705-3.159-1.294-4.74-4.307-4.258-7.706.749-5.285,2.736-10.149,5.089-14.86,3.315-6.638,6.848-13.166,10.207-19.783,2.755-5.427,4.788-11.115,5.841-17.134.934-5.339.842-10.62-.773-15.825-1.82-5.868-5.52-10.281-10.956-13.006-7.778-3.9-15.943-4.453-24.165-1.554-8.067,2.844-13.054,8.727-15.216,16.882-.828,3.122-1.164,6.416-1.362,9.653-.453,7.444.898,14.758,2.036,22.069.959,6.157,1.649,12.325,1.109,18.554-.595,6.865-2.355,13.315-7.038,18.672-3.21,3.672-7.321,5.892-11.869,7.312-5.504,1.718-11.195,2.348-16.945,2.767-6.174.449-12.252-.066-18.307-1.045-8.164-1.319-15.975-3.797-23.337-7.61-.267-.138-.499-.344-.957-.665Z" fill="#fff" stroke-width="0"/>
        <path d="M2052.005,86.416c-2.975,2.73-6.018,5.199-8.672,8.031-4.927,5.256-8.145,11.595-10.72,18.26-2.881,7.457-4.847,15.177-6.186,23.041-1.668,9.799-3.308,19.607-4.692,29.449-.83,5.9-1.23,11.865-1.674,17.813-.514,6.899-1.126,13.808-1.201,20.718-.059,5.407.685,10.803,3.253,15.76,1.516,2.927,3.666,5.188,6.549,6.774,3.614,1.988,4.145,5.876,1.297,8.931-1.791,1.921-4.138,2.745-6.544,3.276-11.321,2.496-22.659,2.473-33.886-.478-5.257-1.382-9.97-3.914-13.296-8.434-1.942-2.639-2.618-5.571-1.75-8.816,2.717-10.156,5.386-20.325,8.105-30.481,1.484-5.542,2.915-11.117,3.326-16.838.593-8.256-1.128-15.903-7.308-21.946-3.071-3.002-6.791-4.829-11.147-4.798-4.289.03-8.09,1.643-11.416,4.331-4.162,3.365-6.433,7.796-7.412,13.001-.944,5.019-.159,9.831,1.55,14.537,2.586,7.123,4.925,14.313,5.936,21.853.999,7.453.723,14.772-2.748,21.676-2.592,5.157-6.511,9.02-11.518,11.819-5.894,3.295-12.303,4.854-18.976,5.253-4.935.296-9.893.387-14.837.309-3.493-.055-7.002-.386-10.462-.886-3.378-.488-6.484-1.695-8.425-4.84-1.444-2.339-1.692-6.311.807-8.827,7.617-7.671,12.666-16.941,16.386-26.993,3.806-10.284,6.062-20.954,7.687-31.757,1.206-8.016,2.387-16.047,3.184-24.11,1.024-10.349.957-20.675-2.614-30.668-1.633-4.57-4.07-8.642-7.455-12.136-2.811-2.9-2.49-7.164.701-9.784,1.989-1.633,4.361-2.397,6.812-2.706,5.211-.658,10.437-1.337,15.677-1.582,7.893-.37,15.802-.453,23.705-.501,3.5-.021,7.004.305,10.501.552.938.066,1.904.303,2.773.663,1.489.618,2.43,1.672,2.53,3.438.099,1.73-.795,2.564-2.175,3.327-7.404,4.092-12.051,10.293-13.864,18.555-2.398,10.921,4.012,20.29,13.401,23.844,5.432,2.056,10.787,2.049,15.896-.975,7.259-4.297,10.923-13.873,8.251-21.809-.596-1.769-1.436-3.774-2.799-4.908-4.593-3.822-3.057-11.252.519-14.787,2.719-2.688,6.039-4.175,9.647-5,4.423-1.012,8.898-1.804,13.365-2.617,6.75-1.228,13.568-2.073,20.419-2.01,6.682.062,13.332.802,19.501,3.481Z" fill="#fff" stroke-width="0"/>
        <path d="M865.282,85.042c-3.304,2.881-6.494,5.417-9.394,8.248-4.581,4.471-7.652,9.9-8.192,16.331-.442,5.272,1.33,10.046,4.881,14.074,2.008,2.278,4.448,3.881,7.403,4.622,4.539,1.138,8.515-.315,12.143-2.899,4.848-3.454,7.902-8.298,9.965-13.754,1.606-4.246,2.917-8.604,4.352-12.915,1.857-5.577,4.407-10.757,8.452-15.12,2.852-3.076,6.162-5.534,9.826-7.543,6.447-3.535,13.414-5.47,20.616-6.669,5.27-.877,10.563-1.52,15.918-1.583,4.381-.052,8.764-.335,13.14-.244,1.862.039,3.761.617,5.55,1.226,2.257.769,3.601,2.599,4.392,4.772.558,1.531.595,3.103-.307,4.596-6.264-.509-11.158,2.226-15.531,6.198-3.859,3.506-7.088,7.574-10.19,11.735-9.862,13.225-21.931,23.979-36.047,32.504-3.066,1.851-6.051,3.888-8.839,6.13-3.43,2.759-5.796,6.318-6.793,10.709-1.344,5.922,1.029,10.948,6.709,13.179,3.167,1.244,6.583,1.846,9.858,2.831,2.435.732,4.949,1.367,7.206,2.49,3.303,1.642,5.567,4.449,7.311,7.693,2.411,4.486,3.544,9.382,4.676,14.273.935,4.039,1.745,8.111,3.455,11.918,1.679,3.738,3.802,7.158,6.977,9.87,3.492,2.983,7.461,3.747,11.869,2.905,1.718-.328,3.444-.661,5.183-.82,4.064-.371,6.701,2.266,6.939,6.51.303,5.415-2.191,8.889-7.202,10.957-2.546,1.051-5.325,1.748-8.062,2.088-6.822.848-13.701,1.064-20.56.531-6.308-.49-12.225-2.251-17.239-6.353-3.771-3.084-6.776-6.836-8.799-11.215-2.269-4.911-4.267-9.959-6.127-15.042-2.136-5.838-3.995-11.779-7.096-17.214-3.019-5.292-6.768-9.861-12.459-12.504-4.31-2.002-8.771-2.716-13.501-1.907-8.203,1.404-12.425,8.385-12.68,15.244-.163,4.364.629,8.57,1.846,12.718,1.1,3.747,2.39,7.442,3.369,11.218,1.312,5.061,1.75,10.217.682,15.394-1.407,6.828-5.701,11.175-12.618,11.76-4.522.383-9.052.674-13.581.957-5.247.328-10.496.618-15.746.896-4.061.216-8.123.394-12.186.579-3.573.162-7.158.189-10.719.491-5.287.448-8.854-4.064-6.259-10.212.958-2.27,2.663-3.954,4.608-5.397,3.011-2.233,6.159-4.298,9.046-6.68,5.92-4.886,10.47-10.921,14.16-17.622,5.558-10.093,8.761-20.993,11.091-32.197,1.702-8.184,2.995-16.442,3.677-24.762.634-7.724.503-15.452-1.954-22.956-1.983-6.057-5.587-10.876-10.805-14.518-1.046-.73-2.096-1.467-3.066-2.293-4.779-4.069-5.395-9.326-1.73-14.448,2.396-3.348,5.767-5.329,9.663-6.196,4.029-.897,8.151-1.399,12.247-1.969,6.274-.873,12.596-.899,18.885-.41,6.524.507,12.745,2.183,17.972,6.422,1.289,1.045,2.436,2.266,3.614,3.373Z" fill="#fff" stroke-width="0"/>
        <path d="M1404.306,232.47c-10.067,0-20.134.01-30.201-.007-2.476-.004-4.957-.221-7.427-.127-4.662.178-7.985-2.035-10.338-5.765-2.809-4.452-3.528-9.286-2.122-14.437,1.432-5.247,4.116-9.847,7.207-14.225,5.578-7.902,10.834-15.988,14.991-24.746,5.396-11.368,9.225-23.232,11.632-35.586,2.131-10.94,2.712-21.975,2.389-33.072-.209-7.169-1.244-14.258-2.591-21.3-1.233-6.448-6.907-7.815-11.383-7.446-4.171.344-7.445,2.502-10.163,5.682-2.94,3.44-4.854,7.488-7.122,11.327-1.634,2.765-3.41,5.419-5.883,7.502-3.111,2.621-6.52,4.299-10.729,2.792-2.952-1.057-4.863-3.241-6.364-5.872-2.073-3.634-2.748-7.617-2.848-11.718-.107-4.391-.035-8.786-.191-13.174-.061-1.732-.36-3.497-.838-5.165-1.392-4.856.011-9.059,3.111-12.681,4.654-5.438,10.62-8.53,17.833-9.157,5.318-.462,10.463.495,15.561,1.759,6.113,1.516,12.172,3.248,18.285,4.763,3.721.922,7.522,1.394,11.375,1.329,3.996-.068,7.999.014,11.987-.196,4.209-.222,8.406-.7,12.606-1.089,10.208-.946,20.383-1.316,30.357,1.745,6.047,1.856,11.519,4.68,15.771,9.507,3.768,4.278,5.751,9.283,6.219,14.956.603,7.316-1.213,14.206-3.666,20.957-1.386,3.817-3.23,7.466-4.664,11.267-.814,2.156-3.333,3.133-5.545,2.535-2.34-.632-3.984-2.139-4.682-4.391-.631-2.035-.948-4.179-1.269-6.296-.381-2.511-.363-5.111-.999-7.548-.529-2.03-1.458-4.104-2.728-5.764-3.177-4.152-7.757-4.328-12.499-2.046-3.896,1.875-6.36,5.168-7.607,9.144-1.569,5.004-2.882,10.11-3.939,15.247-1.715,8.335-3.207,16.719-4.633,25.109-.492,2.892-.524,5.864-.732,8.801-.141,1.983-.306,3.97-.315,5.956-.044,9.131,1.026,18.114,3.804,26.847,2.771,8.714,7.006,16.633,13.439,23.184,3.954,4.026,4.935,8.535,3.488,13.795-2.267,8.244-7.993,13.007-15.83,15.554-3.956,1.285-8.044,1.95-12.221,2.063-3.507.095-7.011.297-10.517.452-.003-.155-.005-.311-.008-.466Z" fill="#fff" stroke-width="0"/>
        <path d="M767.968,109.773c-3.917,3.69-7.598,7.339-11.497,10.74-1.587,1.384-3.533,2.556-5.517,3.247-4.054,1.413-7.88.7-11.054-2.373-1.401-1.357-2.021-3.118-1.689-5.02,1.091-6.257-1.249-11.374-5.573-15.531-5.156-4.958-11.478-7.397-18.731-7.1-4.574.187-8.742,1.71-12.671,3.948-6.021,3.43-10.686,8.301-14.558,13.961-5.806,8.485-9.589,17.844-11.306,27.946-1.642,9.656-.804,19.074,4.077,27.825,3.918,7.024,9.416,12.246,17.263,14.633,10.157,3.089,22.789-.619,28.506-10.281,4.665-7.885,16.462-8.742,22.851-3.093,4.018,3.553,6.136,8.063,6.86,13.302.938,6.796-1.071,12.918-4.398,18.692-4.583,7.955-10.928,14.307-18.414,19.522-10.284,7.164-21.687,11.422-34.181,12.661-11.286,1.119-22.126-.617-32.276-5.699-10.8-5.407-19.026-13.61-24.902-24.131-3.851-6.895-6.198-14.256-6.998-22.166-.57-5.635.04-11.106,1.082-16.602,1.929-10.178,4.13-20.289,7.163-30.203,3.658-11.955,8.422-23.42,15.501-33.803,8.998-13.198,20.672-23.15,35.66-29.023,8.084-3.168,16.448-4.49,25.104-3.691,5.787.535,11.263,2.151,16.292,5.132,6.664,3.949,10.657,9.642,11.618,17.422.35,2.835.861,5.675,1.601,8.431.989,3.682,3.117,6.498,7.134,7.253,1.793.337,3.639.395,5.459.598,1.344.15,2.712.217,4.019.528,1.584.377,2.997,1.118,3.576,2.876Z" fill="#fff" stroke-width="0"/>
        <path d="M1156.326,78.396c8.071.091,16.057,1.014,23.958,2.612,3.066.62,5.978,1.752,8.482,3.718,2.432,1.91,3.861,4.412,4.284,7.474.29,2.096-.228,3.915-1.75,5.469-8.105,8.275-8.64,23.078-1.807,31.74,4.422,5.607,10.106,9.053,17.285,9.495,6.239.384,11.473-2.602,14.546-8.644,2.669-5.248,2.949-10.756.34-16.134-3.629-7.481-2.369-14.383,2.162-20.953,4.004-5.806,9.84-8.676,16.577-9.959,5.761-1.097,11.567-1.074,17.386-.524,2.219.21,4.446.328,6.668.507,4.495.362,6.52,2.9,5.91,7.399-.407,2.997-1.857,5.592-3.29,8.163-2.147,3.85-4.91,7.262-7.937,10.458-7.569,7.99-15.432,15.704-21.952,24.643-9.469,12.981-17.054,26.96-22.378,42.1-2.587,7.358-4.514,14.946-6.941,22.363-1.185,3.62-2.618,7.194-4.311,10.605-4.177,8.419-11.399,12.842-20.352,14.773-6.032,1.301-12.13,1.957-18.298,1.399-6.114-.553-11.944-2.026-17.034-5.695-5.737-4.135-8.938-9.857-10.4-16.633-1.497-6.944-1.137-13.926-.207-20.903.231-1.735.441-3.473.702-5.203.423-2.802,2.367-4.787,5.182-5.16,3.703-.49,7.183.197,10.218,2.452,1.918,1.425,3.714,3.013,5.574,4.518,2.479,2.005,4.933,3.995,8.007,5.142,5.367,2.004,10.278-.503,13.162-3.732,3.771-4.222,4.739-9.305,4.375-14.715-.495-7.344-2.957-14.157-6.093-20.733-3.563-7.469-8.217-14.19-13.947-20.197-3.93-4.12-8.228-7.76-12.933-10.94-4.564-3.084-9.216-6.05-13.008-10.125-1.813-1.949-3.274-4.073-4.118-6.647-1.726-5.267-.071-9.568,3.735-13.179,3.932-3.731,8.907-4.759,14.125-4.949,1.358-.049,2.719-.007,4.079-.007Z" fill="#fff" stroke-width="0"/>
        <path d="M1624.114,232.988c1.204-2.551,2.419-5.053,3.572-7.583,4.556-9.995,7.539-20.468,9.456-31.261,1.169-6.583,2.143-13.19,2.443-19.88.271-6.044.624-12.086.772-18.134.13-5.344.13-10.697-.003-16.041-.122-4.929-.506-9.852-.755-14.778-.088-1.753-.075-3.511-.183-5.262-.243-3.969-.433-7.945-.832-11.899-.379-3.752-1.819-7.071-4.644-9.713-2.274-2.128-4.573-4.241-6.693-6.517-1.115-1.198-2.11-2.631-2.735-4.134-1.113-2.681-.288-5.18,2.183-6.609,1.407-.813,3.084-1.511,4.672-1.587,3.489-.167,7,.084,10.501.185,1.676.048,3.351.137,5.026.217,6.608.319,13.216.628,19.823.966,5.889.301,11.776.633,17.663.957,5.728.315,11.459.597,17.183.978,2.057.137,4.116.42,6.14.813,6.497,1.261,10.089,5.494,11.456,11.718,1.11,5.053.768,10.16-.147,15.21-.424,2.341-.985,4.687-1.804,6.914-.472,1.285-1.388,2.573-2.447,3.441-2.323,1.903-5.896.916-7.234-1.818-3.515-7.182-9.574-11.475-17.122-13.539-16.28-4.452-27.468,7.661-28.958,19.441-.36,2.849-.029,5.523.564,8.255,1.443,6.643,7.55,8.581,12.968,6.397,2.087-.841,3.929-2.396,5.72-3.829,1.168-.934,2.043-2.233,2.885-3.183,4.23.92,7.348,6.085,7.7,9.879.762,8.227-7.872,12.774-14.31,10.408-4.463-1.641-8.354-.335-11.679,2.721-2.339,2.149-3.677,5.025-4.536,8.039-1.424,4.995-2.41,10.076-1.974,15.316.433,5.196,1.976,9.91,6.54,12.983,4.818,3.242,9.933,2.979,15.064.769,4.187-1.803,7.557-4.753,10.654-7.999,4.075-4.271,8.031-8.655,12.067-12.963,2.233-2.384,4.477-4.762,6.802-7.055,7.138-7.038,15.439-3.574,19.793,2.73,2.65,3.836,3.618,8.208,3.406,12.72-.257,5.475-.821,10.952-1.573,16.384-.886,6.398-2.356,12.677-5.095,18.595-4.27,9.225-11.174,15.037-21.455,16.228-4.82.559-9.689.707-14.539.997-4.93.294-9.862.544-14.795.792-1.755.088-3.512.11-5.268.169-4.784.16-9.569.29-14.351.494-6.21.265-12.416.64-18.628.87-3.328.123-6.666.097-9.996.022-1.305-.029-2.42-.693-3.298-1.821Z" fill="#fff" stroke-width="0"/>
        <path d="M996.306,224.878c-.225-3.023.329-5.6,1.578-7.927,1.543-2.876,3.272-5.665,5.094-8.376,5.025-7.48,7.939-15.768,9.642-24.535,1.895-9.758,2.212-19.647,1.771-29.519-.393-8.806-1.434-17.583-2.151-26.375-.466-5.715-1.123-11.4-2.461-16.986-1.446-6.035-3.858-11.621-7.556-16.659-1.648-2.245-3.145-4.63-4.434-7.096-.752-1.439-1.207-3.141-1.351-4.764-.257-2.892,1.158-4.983,3.849-5.924,2.574-.9,5.271-1.117,7.994-.862.554.052,1.109.132,1.664.138,6.075.062,12.15.087,18.224.17,10.222.14,20.443.295,30.664.481,6.703.123,13.411.181,20.104.53,3.155.165,6.376.619,9.396,1.518,6,1.786,9.801,6.111,12.032,11.819,2.043,5.228,2.982,10.728,3.493,16.29.113,1.235-.215,2.52-.404,3.773-.471,3.115-5.242,5.36-8.335,2.245-2.638-2.656-5.236-5.382-8.104-7.775-6.698-5.591-14.133-9.84-22.851-11.451-8.745-1.617-16.711.082-23.361,6.141-3.901,3.554-6.052,8.099-6.212,13.531-.124,4.202.709,8.095,3.012,11.61,2.233,3.408,5.191,5.826,9.421,6.266,4.511.469,7.342-1.423,8.407-5.804.833-3.429,4.956-3.897,7.479-2.844,1.908.796,3.343,2.199,4.48,3.86,3.615,5.278,3.225,12.736-.853,17.606-1.592,1.901-3.651,3.022-6.023,3.649-3.432.907-6.948.807-10.45.982-2.374.119-4.789.299-7.089.854-5.037,1.216-7.819,4.853-7.858,10.066-.065,8.658,4.324,14.759,11.68,18.618,9.739,5.109,19.163,3.89,27.787-2.786,2.628-2.034,5.087-4.41,7.167-6.995,2.488-3.092,5.381-3.598,8.939-2.714,5.135,1.276,8.364,4.71,10.764,9.167,2.413,4.482,3.584,9.369,4.571,14.289,1.002,4.996,1.8,10.059,1.505,15.168-.177,3.075-.596,6.194-1.39,9.165-2.037,7.625-7.215,11.766-15.03,12.649-.95.107-1.912.163-2.869.159-9.674-.041-19.348-.059-29.021-.165-10.062-.11-20.123-.309-30.185-.468-10.141-.16-20.283-.316-30.424-.488-.702-.012-1.402-.137-2.303-.231Z" fill="#fff" stroke-width="0"/>
        <path d="M1763.295,139.053c-.831-4.356-1.795-8.143-2.226-11.989-.558-4.975-1.006-10.003-.918-14.997.084-4.75.565-9.556,1.494-14.214,1.982-9.928,7.172-14.385,18.066-15.092,6.941-.451,13.86.272,20.752,1.214,7.336,1.003,14.672,2.074,22.094,2.248,6.755.158,13.313-1.044,19.849-2.663,4.473-1.108,9.033-2.183,13.606-2.487,6.413-.426,12.594,1.705,16.656,9.05,2.233,4.037,3.323,8.45,3.971,12.96.995,6.926,1.915,13.864,2.728,20.813.277,2.368.289,4.793.154,7.176-.261,4.608-3.31,7.735-7.45,7.893-2.391.091-3.752-.703-4.708-2.92-1.041-2.413-1.902-4.907-3-7.294-2.164-4.705-4.956-8.945-9.495-11.745-4.397-2.714-9.037-3.58-13.916-1.473-3.775,1.629-6.158,4.713-8.056,8.225-2.495,4.617-3.672,9.65-4.728,14.735-1.782,8.58-3.018,17.246-3.735,25.966-.726,8.824-1.072,17.688-.49,26.535.372,5.648,1.307,11.217,4.063,16.336,2.13,3.955,5.084,6.936,9.284,8.575,2.748,1.072,5.563,1.972,8.315,3.033,1.409.544,2.824,1.148,4.103,1.94,4.898,3.033,4.999,8.317.784,11.991-2.683,2.338-5.924,3.156-9.364,2.828-3.958-.379-7.88-1.126-11.832-1.596-4.267-.508-8.543-1.002-12.83-1.279-4.695-.304-9.406-.501-14.11-.483-12.315.047-24.481,1.549-36.521,4.105-.978.208-2.164.987-2.902.081-.864-1.06-1.616-2.42-1.841-3.748-.448-2.642.523-5.078,2.206-7.099,1.213-1.458,2.596-2.834,4.109-3.975,13.513-10.182,22.214-23.768,28.259-39.317,4.494-11.561,7.48-23.523,9.937-35.639,1.092-5.382,2.14-10.774,3.099-16.181.825-4.657,1.053-9.338-.221-13.97-.957-3.481-2.738-6.503-5.583-8.737-4.76-3.738-9.984-3.84-15.593-.457-4.945,2.982-8.223,7.47-10.91,12.455-2.006,3.721-3.984,7.458-6.055,11.142-1.652,2.94-3.894,5.399-7.046,8.055Z" fill="#fff" stroke-width="0"/>
        <path d="M1488.945,236.266c2.874-4.233,5.866-8.273,8.469-12.55,5.092-8.365,8.506-17.46,11.13-26.869,2.787-9.994,4.622-20.17,5.722-30.471.785-7.35,1.39-14.722,1.936-22.094.435-5.872.85-11.757.925-17.641.074-5.826-.607-11.599-2.816-17.094-1.827-4.545-4.692-8.113-9.236-10.184-2.035-.927-2.844-2.513-2.969-4.752-.303-5.44,3.013-9.36,8.302-10.753,2.212-.583,4.55-.9,6.838-.945,6.316-.125,12.637-.078,18.955-.036,12.385.082,24.771.204,37.156.314,5.035.045,10.072.07,15.105.182,1.26.028,2.548.233,3.763.574,2.461.691,3.86,2.49,4.422,4.899.396,1.7.651,3.438.871,5.172.795,6.259,1.273,12.519-.292,18.742-.789,3.136-2.202,5.966-4.176,8.53-.643.835-1.27,1.176-2.427.923-3.304-.723-6.079-2.401-8.615-4.5-1.717-1.422-3.244-3.071-4.896-4.575-2.535-2.308-5.021-4.681-7.68-6.838-2.917-2.367-6.317-3.78-10.13-3.754-5.072.035-9.507,1.918-13.297,5.217-5.685,4.948-8.548,11.415-9.688,18.721-.706,4.524-.953,9.076.91,13.4.709,1.646,1.703,3.281,2.934,4.571,3.297,3.454,8.914,3.765,12.653.777.947-.757,1.679-1.885,2.257-2.976.831-1.567,1.956-2.517,3.753-2.467,1.924.053,3.784.518,4.506,2.51.53,1.461.893,3.1.826,4.637-.166,3.834-.98,7.588-2.43,11.153-1.196,2.942-3.214,5.084-6.446,5.901-1.815.459-3.56.369-5.004-.798-2.403-1.943-5.01-2.306-7.868-1.434-3.312,1.011-5.703,3.047-7.104,6.27-1.775,4.083-1.618,8.21-.512,12.392,1.439,5.442,3.936,10.245,8.355,13.91,4.835,4.011,10.213,4.559,15.969,2.489,5.916-2.128,10.352-6.208,14.159-11.039,3.061-3.884,5.92-7.93,9.076-11.733,3.057-3.683,6.802-6.48,11.641-7.501,4.904-1.035,8.333,1.567,8.078,6.573-.202,3.956-.814,7.918-1.574,11.813-2.263,11.595-5.556,22.903-9.96,33.878-1.342,3.343-2.934,6.545-5.171,9.398-4.02,5.128-9.53,6.927-15.786,7.142-8.528.293-17.054.629-25.581.957-3.824.147-7.647.322-11.471.474-8.127.325-16.253.646-24.38.962-4.303.167-8.605.381-12.91.452-2.338.038-4.597-.43-6.292-1.933Z" fill="#fff" stroke-width="0"/>
        <path d="M602.4,133.755c-.237,10.442-1.921,20.626-4.458,30.697-2.867,11.38-6.631,22.465-11.049,33.329-1.75,4.304-4.001,8.323-7.113,11.834-4.053,4.573-9.089,7.741-14.569,10.253-7.891,3.618-16.173,5.86-24.817,6.733-13.85,1.399-27.193-.55-39.967-6.13-2.046-.894-4.038-1.92-6.013-2.963-7.806-4.121-12.244-10.719-14.032-19.227-1.277-6.081-2.068-12.222-2.606-18.417-.61-7.018-.654-14.039-.212-21.034.633-10.019,2.266-19.905,4.939-29.615,2.505-9.101,5.692-17.925,10-26.332,9.19-17.938,23.811-28.823,43.456-32.857,9.251-1.9,18.541-1.565,27.666,1.225,11.338,3.467,19.957,10.517,26.545,20.165,6.09,8.918,9.64,18.856,11.112,29.51.587,4.247.758,8.551,1.118,12.829ZM514.656,145.031c.158,1.673.217,4.641.749,7.522,2.159,11.695,12.989,20.051,24.826,18.931,12.927-1.223,21.992-8.095,26.952-19.998,4.576-10.984,3.895-22.111-.237-33.112-2.078-5.533-5.092-10.477-9.748-14.234-5.557-4.484-11.803-6.249-18.8-4.098-8.719,2.68-14.585,8.601-18.324,16.72-3.939,8.553-5.021,17.701-5.416,28.268Z" fill="#fff" stroke-width="0"/>
      </g>
      <g>
        <path d="M333.9,22.88c.355.12.709.34,1.065.345,6.087.084,12.057,1.138,18.005,2.264,4.775.904,9.532,1.936,14.246,3.115,3.745.937,7.229,2.558,10.179,5.129.835.728,1.598,1.55,2.32,2.393,1.815,2.119,3.538,4.318,5.387,6.407,4.58,5.175,5.672,11.221,4.723,17.862-1.001,7.001-3.512,13.556-5.822,20.169-1.922,5.501-3.661,11.045-4.327,16.854-.186,1.62-.028,3.28-.028,5.461,1.169-.861,2.011-1.39,2.748-2.038,4.09-3.595,5.967-8.393,7.197-13.504,1.219-5.064,1.226-10.255,1.529-15.42.308-5.248.867-10.463,2.982-15.385,2.231-5.192,6.027-8.836,11.16-10.947,3.748-1.542,7.651-2.748,11.553-3.871,10.04-2.888,20.123-5.628,30.179-8.463,5.005-1.411,10.096-2.52,15.278-2.587,7.483-.097,14.147,2.117,19.061,8.203,1.903,2.357,3.872,4.662,5.795,7.003,5.658,6.892,4.698,15.361-1.813,21.091-3.388,2.982-7.368,5.027-11.174,7.363-3.529,2.166-7.11,4.326-10.309,6.929-4.395,3.576-6.777,8.59-8.559,13.875-2.373,7.038-3.952,14.271-5.155,21.585-1.111,6.755-1.988,13.537-2.067,20.402-.048,4.144-.425,8.295-.265,12.428.347,8.985,1.222,17.932,2.899,26.78,2.577,13.602,6.679,26.732,12.436,39.329,1.293,2.83,2.683,5.625,4.194,8.345,2.089,3.76,1.561,7.387-.383,10.918-1.708,3.102-4.355,5.235-7.601,6.652-3.551,1.55-7.316,2.273-11.117,2.698-10.916,1.223-21.838,2.417-32.775,3.424-4.513.415-9.079.529-13.612.421-10.617-.255-19.279-4.479-25.592-13.181-.841-1.16-1.751-2.278-2.709-3.344-5.034-5.605-6.356-12.119-4.864-19.361,1.119-5.432,3.318-10.47,5.58-15.485,4.984-11.045,10.016-22.068,14.952-33.135.565-1.268.838-2.745.902-4.14.145-3.138-.117-3.342-3.145-4.46-3.42-1.263-6.741-.928-9.979.562-6.462,2.973-10.159,8.305-12.379,14.802-1.899,5.558-1.877,11.334-1.193,17.047.747,6.233,2.074,12.394,2.911,18.619.872,6.491,1.188,12.992-.598,19.446-2.158,7.797-6.992,13.518-13.63,17.824-6.199,4.021-13.062,6.176-20.416,6.932-8.745.898-17.366-.007-25.902-1.746-6.555-1.335-13.064-2.929-19.53-4.648-3.726-.99-7.186-2.797-9.968-5.512-2.101-2.05-3.797-4.507-5.8-6.666-2.755-2.97-4.558-6.424-5.686-10.271,0-.959,0-1.918,0-2.877.297-.704.598-1.406.89-2.112.697-1.687,1.218-3.474,2.116-5.047,2.56-4.483,6.163-8.118,9.93-11.588,4.163-3.835,8.432-7.548,12.124-11.876,8.307-9.736,14.057-20.863,18.153-32.899,5.033-14.789,7.488-30.098,9.006-45.578.637-6.488,1.088-12.996,1.509-19.503.241-3.719.769-7.436.125-11.185-.457-2.66-.732-5.348-1.963-7.986-1.321-.165-2.652-.388-3.993-.488-3.857-.286-7.075-1.897-9.6-4.764-2.317-2.632-4.548-5.347-6.696-8.119-2.777-3.584-3.76-7.639-2.965-12.15.982-5.58,4.144-9.786,8.346-13.287,6.895-5.745,15.104-8.014,23.872-8.702.68-.053,1.35-.232,2.025-.353,2.08,0,4.16,0,6.24,0ZM271.671,224.646c.458.321.69.527.957.665,7.361,3.812,15.173,6.29,23.337,7.61,6.055.979,12.133,1.494,18.307,1.045,5.751-.419,11.441-1.049,16.945-2.767,4.548-1.42,8.659-3.64,11.869-7.312,4.683-5.357,6.443-11.807,7.038-18.672.54-6.23-.15-12.397-1.109-18.554-1.139-7.311-2.49-14.625-2.036-22.069.197-3.237.534-6.531,1.362-9.653,2.162-8.155,7.149-14.038,15.216-16.882,8.222-2.899,16.388-2.345,24.165,1.554,5.437,2.726,9.136,7.138,10.956,13.006,1.615,5.205,1.707,10.486.773,15.825-1.053,6.019-3.086,11.707-5.841,17.134-3.359,6.616-6.892,13.145-10.207,19.783-2.353,4.711-4.34,9.575-5.089,14.86-.482,3.399,1.098,6.412,4.258,7.706.804.329,1.665.599,2.524.705,4.972.618,9.939,1.47,14.931,1.688,6.528.285,13.064.046,19.596-.661,10.847-1.175,21.356-3.643,31.587-7.37.712-.259,1.393-.608,2.082-.912-.192-.462-.264-.695-.378-.904-5.773-10.522-10.404-21.517-13.967-32.981-4.561-14.677-7.188-29.702-7.935-45.017-.333-6.831.099-13.703.254-20.554.165-7.259,1.228-14.425,2.559-21.543,2.04-10.919,5.664-21.27,11.954-30.511,5.807-8.533,13.327-14.77,23.827-16.726,3.433-.639,5.027-3.278,4.215-6.705-.793-3.345-2.984-5.316-7.608-5.688-2.425-.195-4.958.099-7.358.585-8.513,1.723-16.996,3.6-25.479,5.467-5.913,1.301-11.88,2.386-17.519,4.743-7.619,3.184-12.402,8.696-14.343,16.733-1.414,5.855-1.304,11.844-1.767,17.784-.247,3.174-.322,6.365-.669,9.527-.358,3.264-1.281,6.4-2.851,9.316-2.732,5.075-9.32,9.402-16.601,7.599-5.562-1.378-9.782-4.608-13.052-9.133-4.513-6.246-4.847-13.297-3.601-20.579,1.029-6.016,3.207-11.654,5.736-17.174,1.726-3.769,3.619-7.473,5.118-11.33,2.19-5.636.641-10.116-4.334-13.515-2.877-1.966-6.081-3.265-9.463-3.899-6.179-1.159-12.393-2.154-18.616-3.061-6.203-.904-12.418-.784-18.551.594-7.527,1.691-14.065,5.142-19.033,11.191-1.142,1.39-2.284,2.823-2.714,4.801,1.717.17,3.31.173,4.831.505,7.542,1.647,12.721,6.387,16.349,12.942,3.247,5.867,4.107,12.361,4.293,18.923.208,7.331-.525,14.63-1.245,21.919-.789,7.99-1.458,15.995-2.45,23.96-1.42,11.403-3.827,22.609-7.675,33.466-2.997,8.454-6.88,16.459-12.033,23.844-4.91,7.037-10.903,13.119-16.716,19.366-4.349,4.674-8.601,9.429-12.084,14.805-.941,1.452-1.785,2.966-2.716,4.523Z" fill="#005cff" stroke-width="0"/>
        <path d="M2011.02,254.48c-2.015-.301-4.027-.631-6.046-.897-7.018-.925-13.735-2.831-20.088-5.992-2.822-1.404-5.415-3.119-7.469-5.511-2.647-3.083-5.2-6.249-7.747-9.415-.634-.789-1.093-1.718-1.804-2.858-.751,1.814-1.348,3.442-2.086,5.005-2.372,5.018-5.221,9.699-9.657,13.22-2.832,2.247-6.139,3.415-9.641,3.915-4.648.663-9.32,1.248-14.002,1.572-5.328.369-10.684.648-16.018.54-6.469-.131-12.864-.956-18.854-3.759-3.54-1.657-6.56-3.913-9.037-6.921-1.774-2.155-3.564-4.296-5.35-6.441-4.668-5.607-5.108-11.466-1.067-17.596,1.615-2.451,3.456-4.814,5.516-6.9,6.877-6.961,10.645-15.428,12.415-24.877,1.524-8.136,2.907-16.298,4.307-24.456,1.602-9.337,3.189-18.677,4.713-28.027.731-4.484,1.269-8.998,1.031-13.56-.251-4.823-2.063-9.124-4.45-13.239-1.56-2.691-3.153-5.369-4.566-8.137-1.55-3.038-2.295-6.282-1.721-9.725.677-4.063,3.075-6.93,6.43-9.09,3.691-2.377,7.809-3.614,12.11-4.232,6.972-1.003,14.01-1.205,21.02-.879,7.47.348,14.926,1.11,22.369,1.884,2.43.253,4.829,1.002,7.182,1.719,2.587.788,4.607,2.457,6.292,4.574,1.931,2.428,3.942,4.793,5.872,7.13.299-.082.499-.075.552-.16,3.521-5.591,8.819-8.785,14.996-10.371,6.163-1.583,12.447-2.733,18.718-3.846,6.046-1.073,12.156-1.754,18.317-1.624,5.121.108,10.195.606,15.013,2.52,2.935,1.166,5.524,2.814,7.473,5.392,1.249,1.652,2.642,3.197,3.989,4.774,1.701,1.992,3.328,4.025,4.088,6.596v6.234c-1.062,2.817-3.119,4.738-5.692,6.13-5.652,3.059-9.319,7.786-11.041,13.845-2.001,7.038-3.863,14.138-5.31,21.306-2.031,10.055-3.828,20.167-5.344,30.312-1.374,9.191-2.272,18.454-3.305,27.693-.353,3.159-.432,6.348-.719,9.516-.332,3.655-.529,7.289.095,10.943.206,1.207.544,2.045,1.74,2.575.768.341,1.47.974,2.026,1.626,2.018,2.364,3.975,4.78,5.93,7.198,2.915,3.606,3.107,7.569,1.29,11.662-1.47,3.312-4.293,5.285-7.453,6.78-3.346,1.583-6.929,2.384-10.574,2.917-2.252.329-4.508.626-6.762.937h-7.68ZM2052.005,86.416c-6.169-2.679-12.819-3.419-19.501-3.481-6.851-.064-13.67.782-20.419,2.01-4.466.813-8.942,1.606-13.365,2.617-3.608.825-6.929,2.313-9.647,5-3.576,3.535-5.111,10.965-.519,14.787,1.363,1.134,2.203,3.14,2.799,4.908,2.672,7.936-.992,17.512-8.251,21.809-5.109,3.024-10.464,3.031-15.896.975-9.39-3.554-15.799-12.923-13.401-23.844,1.814-8.262,6.461-14.462,13.864-18.555,1.381-.763,2.274-1.597,2.175-3.327-.101-1.766-1.041-2.82-2.53-3.438-.869-.36-1.835-.597-2.773-.663-3.497-.246-7.001-.573-10.501-.552-7.903.048-15.812.131-23.705.501-5.24.245-10.466.924-15.677,1.582-2.451.31-4.822,1.073-6.812,2.706-3.191,2.62-3.511,6.884-.701,9.784,3.385,3.493,5.822,7.566,7.455,12.136,3.572,9.993,3.638,20.319,2.614,30.668-.798,8.063-1.978,16.094-3.184,24.11-1.626,10.804-3.882,21.473-7.687,31.757-3.72,10.052-8.769,19.322-16.386,26.993-2.498,2.516-2.251,6.488-.807,8.827,1.942,3.145,5.047,4.352,8.425,4.84,3.459.5,6.969.831,10.462.886,4.944.078,9.902-.014,14.837-.309,6.673-.4,13.082-1.959,18.976-5.253,5.007-2.799,8.926-6.662,11.518-11.819,3.471-6.905,3.747-14.223,2.748-21.676-1.011-7.539-3.35-14.73-5.936-21.853-1.708-4.706-2.494-9.518-1.55-14.537.98-5.205,3.251-9.636,7.412-13.001,3.326-2.689,7.127-4.301,11.416-4.331,4.356-.031,8.077,1.795,11.147,4.798,6.18,6.043,7.901,13.69,7.308,21.946-.411,5.721-1.842,11.296-3.326,16.838-2.719,10.156-5.389,20.325-8.105,30.481-.868,3.245-.192,6.177,1.75,8.816,3.326,4.52,8.039,7.052,13.296,8.434,11.227,2.951,22.565,2.974,33.886.478,2.406-.53,4.754-1.354,6.544-3.276,2.848-3.055,2.316-6.943-1.297-8.931-2.883-1.586-5.033-3.847-6.549-6.774-2.567-4.957-3.311-10.352-3.253-15.76.075-6.91.687-13.819,1.201-20.718.443-5.947.844-11.913,1.674-17.813,1.384-9.842,3.024-19.65,4.692-29.449,1.339-7.865,3.304-15.585,6.186-23.041,2.575-6.665,5.793-13.004,10.72-18.26,2.655-2.832,5.698-5.3,8.672-8.031ZM1969.271,206.007c.119-.031.238-.062.358-.093,3.091-13.767,6.181-27.535,9.276-41.321-2.294-.977-4.326-1.106-6.373-.516-4.086,1.179-6.498,4.137-8.11,7.867-2.244,5.195-2.165,10.547-.68,15.867,1.432,5.132,3.15,10.184,4.728,15.275.299.963.535,1.946.8,2.92ZM1979.084,104.484c-2.303,2.391-4.599,4.706-6.812,7.097-1.294,1.398-2.529,2.862-3.66,4.394-1.439,1.95-2.301,4.157-2.498,6.604-.245,3.051.586,4.184,3.546,4.887,4.16.99,7.443-.481,10.303-3.441,3.452-3.571,5.472-10.872,1.266-16.178-.783-.988-1.369-2.133-2.145-3.364Z" fill="#005cff" stroke-width="0"/>
        <path d="M879.364,90.694c.335-.623.572-.944.691-1.304,2.885-8.783,8.923-14.978,16.482-19.862,7.167-4.631,15.182-6.986,23.531-8.305,7.58-1.197,15.219-1.604,22.889-1.549,1.027.007,2.055-.246,3.084-.262,5.594-.082,11.169.021,16.552,1.86,2.797.955,5.125,2.569,7.009,4.826,1.942,2.326,3.905,4.636,5.785,7.012,2.509,3.173,3.881,6.713,3.232,10.846-.308,1.962-1.138,3.678-2.581,5.008-4.456,4.11-8.963,8.166-13.457,12.235-4.849,4.391-9.706,8.772-14.557,13.159-6.565,5.938-13.134,11.871-19.689,17.819-5.672,5.146-11.327,10.311-16.992,15.465-1.462,1.33-2.933,2.65-4.545,4.106,1.814,1.027,3.498,1.909,5.11,2.907,4.791,2.965,9.01,6.584,12.545,10.994,3.936,4.91,8.337,9.467,11.331,15.084,2.959,5.55,4.922,11.396,5.405,17.701.097,1.262.302,2.517.493,4.067,1.429.181,2.9.469,4.382.534,2.793.123,5.596.049,8.388.183,3.687.177,6.761,1.578,9.042,4.626,1.527,2.04,3.169,4.009,4.903,5.877,4.961,5.346,5.28,13.894,1.169,19.946-3.075,4.528-7.351,7.492-12.21,9.707-5.127,2.337-10.516,3.686-16.17,3.969-19.967,1-35.966-6.758-48.615-21.927-2.247-2.695-4.51-5.382-6.639-8.169-4.838-6.333-7.666-13.521-9.194-21.322-.778-3.971-2.1-7.835-3.131-11.759-.324-1.234-1.091-1.81-2.277-2.147-3.738-1.063-7.756.32-10.101,3.656-3.171,4.511-3.697,9.575-2.949,14.87.509,3.603,2.168,6.811,3.495,10.14,1.444,3.62,2.911,7.248,4.047,10.97,1.449,4.749,1.086,9.443-1.368,13.873-1.835,3.313-4.543,5.726-7.803,7.562-5.233,2.948-10.951,4.451-16.842,5.095-6.645.727-13.334,1.061-20.005,1.548-6.433.469-12.862,1.003-19.302,1.344-5.667.3-11.327.281-16.867-1.339-3.631-1.062-6.735-2.873-9.153-5.796-1.677-2.027-3.249-4.147-5.006-6.102-4.428-4.926-4.627-11.407-.75-17.179,2.612-3.889,6.108-6.922,9.562-10.011,3.562-3.186,7.212-6.298,10.53-9.725,5.291-5.464,8.808-12.094,11.653-19.089,3.469-8.529,5.606-17.431,7.194-26.466,1.06-6.029,1.96-12.089,2.819-18.15.548-3.868.827-7.778.103-11.655-.422-2.263-.945-4.531-1.71-6.695-.374-1.057-1.266-2.054-2.162-2.785-4.94-4.026-8.724-9.087-12.527-14.086-3.668-4.823-3.83-10.452-2.058-15.99,2.905-9.076,9.034-15.231,18.016-18.494,6.019-2.187,12.287-2.811,18.618-2.522,9.488.433,18.876,1.757,28.126,3.936,4.25,1.001,8.252,2.703,11.377,5.812,2.308,2.297,4.228,4.981,6.342,7.475,2.07,2.44,3.925,5,4.754,8.473ZM865.282,85.042c-1.178-1.107-2.325-2.328-3.614-3.373-5.227-4.239-11.448-5.915-17.972-6.422-6.289-.489-12.611-.463-18.885.41-4.096.57-8.218,1.072-12.247,1.969-3.896.867-7.267,2.848-9.663,6.196-3.665,5.122-3.049,10.379,1.73,14.448.97.826,2.02,1.563,3.066,2.293,5.218,3.642,8.822,8.461,10.805,14.518,2.457,7.505,2.588,15.232,1.954,22.956-.683,8.321-1.975,16.578-3.677,24.762-2.33,11.204-5.534,22.103-11.091,32.197-3.69,6.701-8.24,12.736-14.16,17.622-2.886,2.382-6.035,4.446-9.046,6.68-1.945,1.443-3.65,3.127-4.608,5.397-2.596,6.148.971,10.66,6.259,10.212,3.561-.302,7.145-.329,10.719-.491,4.062-.184,8.125-.363,12.186-.579,5.25-.279,10.499-.568,15.746-.896,4.529-.283,9.059-.575,13.581-.957,6.917-.585,11.211-4.932,12.618-11.76,1.067-5.178.63-10.333-.682-15.394-.979-3.777-2.269-7.472-3.369-11.218-1.217-4.148-2.008-8.354-1.846-12.718.255-6.859,4.477-13.84,12.68-15.244,4.73-.809,9.191-.095,13.501,1.907,5.691,2.643,9.44,7.212,12.459,12.504,3.101,5.435,4.96,11.376,7.096,17.214,1.859,5.082,3.858,10.131,6.127,15.042,2.023,4.379,5.028,8.131,8.799,11.215,5.014,4.101,10.931,5.863,17.239,6.353,6.859.533,13.738.316,20.56-.531,2.738-.34,5.516-1.037,8.062-2.088,5.012-2.068,7.506-5.542,7.202-10.957-.238-4.244-2.875-6.881-6.939-6.51-1.738.159-3.465.492-5.183.82-4.409.842-8.377.077-11.869-2.905-3.175-2.711-5.298-6.132-6.977-9.87-1.71-3.807-2.52-7.879-3.455-11.918-1.132-4.892-2.265-9.787-4.676-14.273-1.744-3.244-4.008-6.051-7.311-7.693-2.257-1.122-4.771-1.757-7.206-2.49-3.275-.985-6.691-1.587-9.858-2.831-5.681-2.231-8.053-7.258-6.709-13.179.997-4.391,3.362-7.95,6.793-10.709,2.788-2.242,5.774-4.279,8.839-6.13,14.115-8.525,26.185-19.279,36.047-32.504,3.102-4.161,6.331-8.229,10.19-11.735,4.373-3.972,9.267-6.707,15.531-6.198.901-1.492.864-3.064.307-4.596-.791-2.173-2.135-4.004-4.392-4.772-1.788-.609-3.688-1.188-5.55-1.226-4.376-.091-8.759.192-13.14.244-5.356.064-10.648.707-15.918,1.583-7.202,1.198-14.169,3.134-20.616,6.669-3.665,2.009-6.974,4.468-9.826,7.543-4.045,4.363-6.596,9.543-8.452,15.12-1.435,4.311-2.747,8.668-4.352,12.915-2.063,5.455-5.116,10.3-9.965,13.754-3.627,2.584-7.603,4.037-12.143,2.899-2.956-.741-5.395-2.344-7.403-4.622-3.551-4.028-5.323-8.802-4.881-14.074.539-6.431,3.61-11.86,8.192-16.331,2.901-2.831,6.09-5.366,9.394-8.248ZM872.892,105.999c-5.396-2.03-11.331,4.19-8.795,11.153,3.516-3.465,6.521-6.962,8.795-11.153Z" fill="#005cff" stroke-width="0"/>
        <path d="M1448.887,105.065c-2.602-.432-3.663.122-4.39,2.584-.72,2.437-1.215,4.943-1.754,7.431-2.562,11.829-4.407,23.779-5.643,35.809-.536,5.214-.631,10.498-.537,15.744.102,5.734,1.825,11.158,4.477,16.222,2.737,5.227,5.642,10.366,8.533,15.511,3.459,6.154,6.371,12.517,7.29,19.59,1.003,7.715-.14,14.948-5.317,21.136-3.234,3.865-7.483,6.16-12.178,7.697-4.882,1.599-9.937,2.371-15.053,2.442-13.583.187-27.167.327-40.751.301-4.686-.009-9.379-.415-13.956-1.68-5.085-1.406-9.359-3.961-12.628-8.164-1.908-2.454-4.013-4.755-5.912-7.216-3.275-4.246-4.697-9.148-4.938-14.461-.432-9.51,3.005-17.825,8.051-25.569,3.612-5.544,7.5-10.909,11.308-16.324,7.421-10.554,11.909-22.306,14.316-34.903,1.481-7.749,2.384-15.565,2.494-23.464.095-6.779.214-13.557.318-20.336.012-.787.002-1.574.002-2.712-2.672.994-4.684,2.436-6.234,4.496-2.781,3.697-5.446,7.482-8.281,11.137-2.151,2.774-4.579,5.298-7.52,7.296-7.133,4.845-15.222,3.312-20.731-2.669-2.752-2.987-5.333-6.146-7.817-9.361-2.895-3.746-4.361-8.158-5.006-12.781-.669-4.798-1.171-9.63-1.493-14.464-.296-4.442-.528-8.92-.305-13.357.457-9.098,3.241-17.372,9.87-23.967,4.499-4.476,9.918-6.715,16.345-6.807,4.769-.068,9.39.655,13.96,1.776,11.468,2.813,23.024,5.098,34.802,6.12,4.203.365,8.41.77,12.623.917,6.462.225,12.931.316,19.397.326,5.106.008,10.214-.32,15.319-.258,4.955.06,9.858.769,14.553,2.45,4.896,1.753,9.186,4.458,12.484,8.544,3.35,4.15,7.122,7.968,9.842,12.615,2.658,4.541,4.209,9.444,4.88,14.633,1.209,9.354-.374,18.406-3.125,27.307-1.506,4.873-3.08,9.73-5.542,14.235-2.685,4.912-6.413,8.546-12.165,9.513-3.97.668-7.437-.308-10.09-3.513-1.576-1.904-3.033-3.922-4.746-5.694-3.216-3.326-4.231-7.357-4.321-11.799-.043-2.13-.286-4.256-.435-6.33ZM1404.306,232.47c.003.155.005.311.008.466,3.505-.155,7.01-.357,10.517-.452,4.177-.113,8.265-.778,12.221-2.063,7.837-2.546,13.563-7.309,15.83-15.554,1.447-5.261.465-9.769-3.488-13.795-6.433-6.551-10.668-14.47-13.439-23.184-2.777-8.733-3.847-17.716-3.804-26.847.009-1.986.174-3.973.315-5.956.208-2.938.24-5.909.732-8.801,1.426-8.39,2.918-16.774,4.633-25.109,1.057-5.137,2.37-10.243,3.939-15.247,1.247-3.976,3.711-7.269,7.607-9.144,4.742-2.283,9.323-2.107,12.499,2.046,1.27,1.659,2.198,3.734,2.728,5.764.636,2.436.618,5.036.999,7.548.321,2.116.638,4.261,1.269,6.296.698,2.252,2.342,3.759,4.682,4.391,2.212.598,4.732-.379,5.545-2.535,1.434-3.801,3.278-7.45,4.664-11.267,2.453-6.751,4.269-13.641,3.666-20.957-.468-5.672-2.451-10.677-6.219-14.956-4.252-4.827-9.724-7.651-15.771-9.507-9.974-3.061-20.149-2.691-30.357-1.745-4.2.389-8.396.866-12.606,1.089-3.988.211-7.991.128-11.987.196-3.853.065-7.655-.407-11.375-1.329-6.113-1.514-12.172-3.246-18.285-4.763-5.098-1.264-10.243-2.221-15.561-1.759-7.214.627-13.179,3.719-17.833,9.157-3.1,3.622-4.502,7.825-3.111,12.681.478,1.668.776,3.433.838,5.165.156,4.388.084,8.784.191,13.174.099,4.1.774,8.083,2.848,11.718,1.501,2.631,3.412,4.815,6.364,5.872,4.209,1.507,7.618-.171,10.729-2.792,2.473-2.083,4.249-4.736,5.883-7.502,2.269-3.839,4.182-7.887,7.122-11.327,2.718-3.18,5.992-5.338,10.163-5.682,4.476-.369,10.15.998,11.383,7.446,1.347,7.042,2.382,14.131,2.591,21.3.323,11.097-.258,22.131-2.389,33.072-2.407,12.354-6.235,24.218-11.632,35.586-4.157,8.758-9.413,16.845-14.991,24.746-3.091,4.378-5.774,8.978-7.207,14.225-1.406,5.151-.687,9.984,2.122,14.437,2.353,3.73,5.676,5.943,10.338,5.765,2.47-.094,4.951.123,7.427.127,10.067.018,20.134.007,30.201.007Z" fill="#005cff" stroke-width="0"/>
        <path d="M701.021,250.234c-18.432-.147-33.506-5.786-46.384-17.332-4.732-4.242-8.493-9.286-12.592-14.059-7.077-8.239-12.085-17.58-15.009-28.031-2.729-9.754-3.133-19.641-1.426-29.596,2.832-16.524,8.447-32.188,15.094-47.498,4.563-10.509,10.303-20.365,17.775-29.103,9.497-11.106,20.751-19.811,34.758-24.591,7.106-2.425,14.439-3.636,21.908-2.997,13.496,1.156,25.121,6.344,34.027,16.856,2.473,2.919,4.92,5.864,7.287,8.87,2.794,3.548,4.699,7.583,6.053,11.87.506,1.602,1.184,2.563,3.145,2.533,3.007-.046,5.258,1.665,7.118,3.884,2.099,2.505,4.251,4.974,6.22,7.579,3.775,4.997,3.998,10.382,1.435,15.984-1.592,3.48-4.049,6.303-6.833,8.854-5.367,4.92-11.31,8.923-18.575,10.357-2.539.501-5.255.465-7.85.232-2.996-.269-5.295-2.106-7.204-4.359-2.062-2.434-4.117-4.877-6.106-7.371-2.565-3.216-3.518-7.104-4.423-10.999-.487-2.094-.946-4.194-1.46-6.281-.449-1.823-.692-1.963-2.624-2.116-2.716-.215-5.247.479-7.627,1.663-14.021,6.976-22.398,18.323-25.721,33.488-1.404,6.409-1.202,12.781.797,19.091.493,1.556,1.374,2.413,2.816,2.934,3.319,1.199,6.567.878,9.794-.354,4.148-1.584,7.702-4.18,11.372-6.59,3.135-2.058,6.235-4.208,9.54-5.961,9.117-4.834,17.703-3.24,25.796,2.591,3.81,2.745,6.418,6.623,9.424,10.121,2.713,3.157,5.241,6.439,6.593,10.457.918,2.728,1.526,5.501,1.703,8.397.825,13.444-4.446,24.694-12.603,34.851-6.29,7.833-14.149,13.82-23.089,18.317-8.472,4.262-17.438,7.017-26.944,7.814-2.46.206-4.922.394-6.185.495ZM767.968,109.773c-.579-1.758-1.992-2.499-3.576-2.876-1.308-.311-2.675-.378-4.019-.528-1.82-.203-3.665-.261-5.459-.598-4.017-.755-6.145-3.571-7.134-7.253-.74-2.756-1.251-5.596-1.601-8.431-.961-7.78-4.954-13.472-11.618-17.422-5.03-2.981-10.505-4.598-16.292-5.132-8.656-.799-17.02.523-25.104,3.691-14.988,5.873-26.662,15.826-35.66,29.023-7.079,10.383-11.843,21.848-15.501,33.803-3.033,9.913-5.233,20.025-7.163,30.203-1.042,5.497-1.652,10.967-1.082,16.602.8,7.91,3.147,15.271,6.998,22.166,5.876,10.522,14.102,18.725,24.902,24.131,10.15,5.082,20.99,6.818,32.276,5.699,12.494-1.239,23.897-5.496,34.181-12.661,7.486-5.215,13.831-11.567,18.414-19.522,3.327-5.774,5.336-11.897,4.398-18.692-.724-5.239-2.842-9.749-6.86-13.302-6.389-5.649-18.186-4.792-22.851,3.093-5.717,9.662-18.349,13.37-28.506,10.281-7.847-2.387-13.345-7.609-17.263-14.633-4.881-8.751-5.719-18.169-4.077-27.825,1.718-10.102,5.501-19.461,11.306-27.946,3.872-5.659,8.537-10.531,14.558-13.961,3.929-2.238,8.097-3.761,12.671-3.948,7.253-.297,13.575,2.141,18.731,7.1,4.323,4.157,6.663,9.275,5.573,15.531-.332,1.903.288,3.664,1.689,5.02,3.175,3.074,7,3.787,11.054,2.373,1.984-.692,3.93-1.863,5.517-3.247,3.899-3.4,7.58-7.05,11.497-10.74Z" fill="#005cff" stroke-width="0"/>
        <path d="M1208.136,96.221c3.593-12.352,11.776-19.319,23.821-22.023,8.555-1.92,17.128-1.188,25.664.224,3.533.585,7.046,1.317,10.539,2.112,3.867.88,7.012,2.932,9.466,6.089,1.711,2.202,3.65,4.227,5.349,6.437,5.241,6.819,5.51,14.196,2.169,21.861-1.966,4.51-5.08,8.265-8.228,11.991-7.098,8.401-14.305,16.717-21.197,25.286-8.138,10.119-15.041,21.038-19.527,33.304-2.079,5.684-3.832,11.487-5.704,17.245-2.446,7.524-5.15,14.935-9.729,21.487-8.286,11.856-19.46,19.513-33.743,22.033-14.289,2.521-27.187-1.273-38.084-10.687-8.546-7.383-15.877-15.983-20.761-26.302-4.747-10.03-5.95-20.442-1.9-31.051,1.847-4.837,4.859-8.807,9.695-11.053,6.149-2.856,15.602-1.561,20.231,4.58.959,1.272,2.184,2.361,3.031,3.696,1.764,2.778,4.205,3.09,7.863,2.133,3.365-.88,4.912-3.627,5.813-6.742.765-2.647.725-5.37.298-8.059-1.292-8.137-4.264-15.641-8.626-22.626-1.813-2.904-4.29-5.156-6.92-7.227-3.131-2.467-6.341-4.854-9.659-7.062-8.136-5.416-14.07-12.916-19.687-20.681-1.459-2.017-2.425-4.511-3.13-6.928-1.602-5.491-.603-10.609,3.209-14.974,2.136-2.447,4.975-3.96,7.947-5.197,4.914-2.046,10.102-2.967,15.358-3.31,5.569-.363,11.162-.509,16.744-.5,5.443.009,10.765.904,15.941,2.744,4.95,1.76,9.122,4.599,12.554,8.49,2.846,3.226,5.543,6.589,8.198,9.974,1.112,1.418,1.948,3.052,3.003,4.736ZM1156.326,78.396c-1.36,0-2.721-.042-4.079.007-5.218.19-10.192,1.218-14.125,4.949-3.806,3.611-5.462,7.912-3.735,13.179.844,2.574,2.305,4.698,4.118,6.647,3.792,4.076,8.444,7.041,13.008,10.125,4.705,3.179,9.003,6.819,12.933,10.94,5.73,6.007,10.385,12.728,13.947,20.197,3.137,6.576,5.598,13.388,6.093,20.733.364,5.41-.604,10.492-4.375,14.715-2.884,3.229-7.795,5.736-13.162,3.732-3.074-1.147-5.527-3.137-8.007-5.142-1.86-1.504-3.656-3.093-5.574-4.518-3.035-2.255-6.515-2.942-10.218-2.452-2.814.372-4.759,2.358-5.182,5.16-.261,1.73-.471,3.468-.702,5.203-.93,6.978-1.29,13.959.207,20.903,1.461,6.776,4.663,12.498,10.4,16.633,5.09,3.669,10.92,5.141,17.034,5.695,6.168.558,12.266-.098,18.298-1.399,8.953-1.931,16.175-6.354,20.352-14.773,1.693-3.411,3.126-6.986,4.311-10.605,2.428-7.418,4.354-15.005,6.941-22.363,5.324-15.141,12.909-29.119,22.378-42.1,6.52-8.939,14.383-16.653,21.952-24.643,3.027-3.195,5.79-6.607,7.937-10.458,1.433-2.57,2.884-5.166,3.29-8.163.61-4.499-1.415-7.037-5.91-7.399-2.222-.179-4.449-.298-6.668-.507-5.819-.55-11.625-.572-17.386.524-6.737,1.283-12.573,4.153-16.577,9.959-4.531,6.57-5.791,13.472-2.162,20.953,2.609,5.378,2.329,10.886-.34,16.134-3.072,6.042-8.306,9.028-14.546,8.644-7.179-.442-12.863-3.888-17.285-9.495-6.832-8.662-6.298-23.466,1.807-31.74,1.522-1.554,2.04-3.373,1.75-5.469-.423-3.062-1.852-5.564-4.284-7.474-2.504-1.966-5.416-3.099-8.482-3.718-7.901-1.598-15.887-2.521-23.958-2.612ZM1209.217,111.111c-1.533,2.407-4.737,3.911-6.186,6.269-.834,1.357-1.186,3.445-1.818,4.9-.879,2.024-.341,4.232.19,6.506,4.416-.419,8.205-4.096,8.515-8.445.218-3.059.26-6.156-.702-9.23Z" fill="#005cff" stroke-width="0"/>
        <path d="M1682.292,124.888c1.811.272,3.385.428,4.921.757,3.274.701,5.761,2.695,7.88,5.155,2.185,2.537,4.293,5.14,6.39,7.75,3.613,4.497,5.008,9.706,4.865,15.398-.032,1.267-.005,2.536-.005,3.945,1.506-.605,2.952-1.23,4.428-1.774,8.738-3.22,17.481-1.157,23.994,6.381,2.345,2.714,4.624,5.488,6.847,8.302,4.038,5.108,6.076,11.024,6.412,17.453.551,10.532-.845,20.83-4.415,30.788-2.559,7.139-6.142,13.661-11.687,18.98-5.051,4.846-11.025,7.782-17.945,8.836-5.326.811-10.687.627-16.019.357-8.058-.408-16.116-.792-24.17-.315-8.669.513-17.256,1.768-25.781,3.452-5.119,1.011-10.301,1.371-15.448.271-4.181-.893-7.662-3.066-10.388-6.405-1.966-2.408-3.98-4.778-5.961-7.174-3.615-4.372-3.981-9.111-1.265-13.988,1.35-2.425,2.976-4.73,4.713-6.902,4.494-5.622,6.667-12.091,7.311-19.144.289-3.169.456-6.352.6-9.532.348-7.716.647-15.434.973-23.152.151-3.58.324-7.158.475-10.738.326-7.717.642-15.435.966-23.152.154-3.659.359-7.316.461-10.976.075-2.688.075-5.381.013-8.07-.11-4.784-2.341-8.699-5.243-12.307-2.099-2.609-4.27-5.161-6.336-7.796-1.38-1.76-2.503-3.667-3.094-5.879-1.105-4.143.403-7.816,4.155-9.94,3.016-1.708,6.353-2.159,9.693-2.15,7.342.02,14.684.26,22.025.444,5.103.128,10.205.318,15.308.47,5.583.167,11.166.304,16.748.489,3.744.125,7.491.244,11.229.487,5.732.373,11.439.968,16.901,2.915,4.037,1.439,7.782,3.401,10.642,6.674,3.042,3.482,6.134,6.942,8.881,10.651,2.845,3.841,4.126,8.386,4.861,13.092.921,5.893.87,11.737-.781,17.493-1.024,3.57-2.73,6.757-5.452,9.408-5.606,5.458-16.718,5.116-21.465-1.075-2.518-3.284-5.073-6.54-7.628-9.796-.288-.367-.637-.725-1.034-.96-5.227-3.096-12.357-3.687-17.573,1.275ZM1624.114,232.988c.879,1.129,1.993,1.792,3.298,1.821,3.331.075,6.668.101,9.996-.022,6.211-.23,12.417-.605,18.628-.87,4.782-.204,9.567-.334,14.351-.494,1.756-.059,3.514-.081,5.268-.169,4.932-.248,9.865-.497,14.795-.792,4.85-.29,9.719-.438,14.539-.997,10.281-1.191,17.185-7.003,21.455-16.228,2.739-5.917,4.209-12.197,5.095-18.595.752-5.432,1.316-10.908,1.573-16.384.212-4.512-.757-8.884-3.406-12.72-4.354-6.304-12.655-9.767-19.793-2.73-2.326,2.293-4.569,4.672-6.802,7.055-4.037,4.308-7.992,8.692-12.067,12.963-3.097,3.246-6.467,6.196-10.654,7.999-5.131,2.209-10.246,2.473-15.064-.769-4.565-3.072-6.107-7.786-6.54-12.983-.437-5.24.55-10.322,1.974-15.316.859-3.014,2.197-5.89,4.536-8.039,3.325-3.056,7.216-4.362,11.679-2.721,6.438,2.367,15.073-2.181,14.31-10.408-.351-3.794-3.47-8.96-7.7-9.879-.842.95-1.717,2.249-2.885,3.183-1.791,1.433-3.632,2.988-5.72,3.829-5.419,2.184-11.526.246-12.968-6.397-.593-2.732-.925-5.407-.564-8.255,1.491-11.78,12.678-23.893,28.958-19.441,7.548,2.064,13.607,6.357,17.122,13.539,1.338,2.734,4.911,3.722,7.234,1.818,1.06-.868,1.975-2.157,2.447-3.441.819-2.226,1.38-4.573,1.804-6.914.914-5.05,1.256-10.157.147-15.21-1.367-6.224-4.959-10.456-11.456-11.718-2.024-.393-4.084-.676-6.14-.813-5.724-.382-11.455-.663-17.183-.978-5.887-.324-11.775-.656-17.663-.957-6.607-.338-13.215-.648-19.823-.966-1.675-.081-3.35-.169-5.026-.217-3.501-.101-7.012-.352-10.501-.185-1.588.076-3.266.773-4.672,1.587-2.471,1.429-3.296,3.928-2.183,6.609.624,1.503,1.619,2.937,2.735,4.134,2.12,2.276,4.419,4.39,6.693,6.517,2.825,2.642,4.265,5.962,4.644,9.713.399,3.954.589,7.93.832,11.899.107,1.751.094,3.509.183,5.262.249,4.926.633,9.849.755,14.778.133,5.344.133,10.697.003,16.041-.148,6.047-.501,12.09-.772,18.134-.3,6.689-1.273,13.297-2.443,19.88-1.917,10.793-4.9,21.266-9.456,31.261-1.153,2.53-2.368,5.032-3.572,7.583ZM1690.531,171.332c-4.001-2.401-7.283-2.163-11.001.553-3.88,2.834-5.796,7.819-4.678,12.499,6.128-3.256,10.915-7.975,15.679-13.051Z" fill="#005cff" stroke-width="0"/>
        <path d="M1061.497,111.8c3.815.899,6.272,3.01,8.411,5.557,1.949,2.321,3.878,4.659,5.777,7.021,5.356,6.662,7.386,14.366,6.988,22.779-.115,2.428-.497,4.844-.761,7.312,7.023-.769,12.768,2.006,17.52,6.643,5.191,5.066,9.964,10.57,13.532,16.968,2.39,4.286,3.77,8.944,4.737,13.723,1.886,9.324,2.871,18.737,2.507,28.258-.209,5.485-1.263,10.754-4.468,15.391-2.683,3.882-6.46,6.053-10.982,7.073-4.395.992-8.857,1.06-13.331.932-.398-.011-.794-.097-1.192-.105-5.747-.113-11.495-.216-17.242-.328-10.86-.211-21.72-.414-32.579-.644-6.384-.135-12.772-.228-19.15-.502-4.925-.212-9.874-.31-14.646-1.899-3.671-1.222-6.746-3.256-9.223-6.186-2.162-2.558-4.302-5.138-6.357-7.782-1.944-2.501-3.178-5.307-3.315-8.547-.101-2.398.727-4.341,2.466-5.968,2.81-2.629,5.269-5.534,7.288-8.837,4.007-6.555,6.504-13.659,7.924-21.16,1.801-9.514,2.339-19.122,1.86-28.785-.288-5.804-.475-11.619-1.005-17.402-.617-6.727-1.388-13.45-2.407-20.127-1.086-7.112-4.909-13.051-8.739-18.975-1.941-3.002-3.599-6.201-5.198-9.404-1.196-2.397-1.43-5.062-1.193-7.713.324-3.63,2.054-6.506,5.097-8.517,4.252-2.811,9.079-3.695,14.054-4.198,7.428-.751,14.821.346,22.238.229,4.46-.071,8.928.264,13.391.438,7.809.303,15.617.627,23.426.933,4.543.178,9.094.232,13.63.527,7.224.47,14.127,2.128,19.552,7.262,2.821,2.67,5.096,5.908,7.695,8.821,3.646,4.087,5.944,8.852,7.291,14.103,1.496,5.834,1.915,11.798,1.717,17.784-.123,3.728-.586,7.447-.995,11.16-.111,1.01-.538,1.996-.892,2.967-1.562,4.273-5.417,6.188-10.281,4.637-2.876-.917-5.228-2.73-7.404-4.741-2.464-2.276-4.814-4.673-7.246-6.984-5.591-5.313-11.975-9.29-19.525-11.139-2.458-.602-5.013-.821-7.532-1.154-.331-.044-.709.274-1.435.581ZM996.306,224.878c.901.094,1.601.219,2.303.231,10.141.171,20.283.327,30.424.488,10.061.159,20.123.359,30.185.468,9.673.105,19.348.124,29.021.165.956.004,1.918-.052,2.869-.159,7.816-.883,12.993-5.024,15.03-12.649.794-2.971,1.212-6.09,1.39-9.165.294-5.109-.503-10.172-1.505-15.168-.987-4.92-2.157-9.807-4.571-14.289-2.4-4.458-5.629-7.891-10.764-9.167-3.558-.884-6.451-.378-8.939,2.714-2.081,2.585-4.539,4.961-7.167,6.995-8.624,6.676-18.048,7.894-27.787,2.786-7.356-3.859-11.746-9.96-11.68-18.618.039-5.213,2.821-8.85,7.858-10.066,2.299-.555,4.714-.735,7.089-.854,3.502-.175,7.017-.075,10.45-.982,2.372-.627,4.431-1.747,6.023-3.649,4.078-4.87,4.468-12.328.853-17.606-1.137-1.661-2.572-3.063-4.48-3.86-2.523-1.053-6.646-.585-7.479,2.844-1.065,4.381-3.896,6.273-8.407,5.804-4.23-.44-7.188-2.857-9.421-6.266-2.303-3.515-3.135-7.408-3.012-11.61.16-5.432,2.311-9.976,6.212-13.531,6.651-6.059,14.616-7.758,23.361-6.141,8.718,1.612,16.153,5.86,22.851,11.451,2.868,2.394,5.466,5.119,8.104,7.775,3.093,3.114,7.864.87,8.335-2.245.189-1.253.518-2.537.404-3.773-.511-5.563-1.45-11.062-3.493-16.29-2.23-5.707-6.032-10.033-12.032-11.819-3.02-.899-6.24-1.353-9.396-1.518-6.692-.349-13.401-.407-20.104-.53-10.221-.187-20.442-.342-30.664-.481-6.074-.083-12.149-.108-18.224-.17-.555-.006-1.11-.086-1.664-.138-2.724-.255-5.42-.038-7.994.862-2.692.941-4.106,3.032-3.849,5.924.144,1.623.599,3.325,1.351,4.764,1.288,2.466,2.786,4.851,4.434,7.096,3.698,5.038,6.11,10.624,7.556,16.659,1.338,5.586,1.995,11.271,2.461,16.986.717,8.793,1.758,17.569,2.151,26.375.441,9.872.124,19.761-1.771,29.519-1.702,8.767-4.616,17.056-9.642,24.535-1.821,2.711-3.55,5.5-5.094,8.376-1.249,2.327-1.803,4.904-1.578,7.927ZM1051.036,170.267c4.893,2.56,11.219.814,14.09-2.763-2.515-.991-5.075-2.047-7.67-3.004-1.54-.568-2.982-.245-4.24.846-1.48,1.283-2.146,2.914-2.18,4.922Z" fill="#005cff" stroke-width="0"/>
        <path d="M1798.455,124.268c-2.82,2.272-4.331,4.883-5.696,7.559-1.667,3.268-3.127,6.641-4.77,9.921-1.658,3.309-3.761,6.295-6.723,8.61-5.257,4.108-11.852,4.021-16.517-.704-3.405-3.45-6.473-7.267-9.407-11.136-2.202-2.904-3.054-6.475-3.502-10.064-1.038-8.322-1.413-16.686-.863-25.052.374-5.683,1.656-11.198,4.678-16.143,3.36-5.498,7.871-9.721,14.27-11.239,2.572-.61,5.429-.622,8.065-.256,7.896,1.098,15.778,2.206,23.768,2.317,3.748.052,7.502.39,11.242.272,9.239-.292,18.444-.999,27.581-2.529,4.312-.722,8.674-1.286,13.035-1.542,8.155-.478,15.047,2.49,20.473,8.551,3.293,3.679,6.446,7.505,9.401,11.46,4.144,5.546,6.263,12.025,7.421,18.742,1.121,6.496,1.689,13.084,2.613,19.616.579,4.089.401,8.125-.65,12.08-1.51,5.687-4.869,9.822-10.684,11.56-4.15,1.24-7.771.169-10.635-3.04-2.388-2.675-4.765-5.389-6.844-8.301-1.561-2.186-2.652-4.708-3.929-7.093-.262-.489-.41-1.037-.627-1.551-1.417-3.349-2.288-3.891-5.961-3.723-3.095.142-5.301,1.627-6,4.535-1.804,7.506-3.71,15.003-5.066,22.595-1.298,7.27-2.259,14.632-2.809,21.996-.552,7.387-.416,14.825-.57,22.241-.008.393.075.79.141,1.181.834,4.967-.269,4.151,5.073,5.842,4.877,1.544,8.906,4.207,12.077,8.217,2.077,2.627,4.277,5.157,6.336,7.798,2.249,2.883,3.687,6.151,4.111,9.804.783,6.741-2.811,12.521-9.329,14.692-2.011.67-4.199.931-6.328,1.102-6.767.546-13.309-1.206-19.939-2.094-4.414-.591-8.856-1.014-13.296-1.365-3.097-.245-6.216-.374-9.32-.319-6.295.113-12.572.591-18.792,1.601-5.312.863-10.673,1.062-16.002.682-5.437-.388-10.171-2.513-13.583-7.065-1.768-2.359-3.712-4.587-5.609-6.848-2-2.383-3.238-5.098-3.685-8.171-.511-3.512.263-6.598,2.835-9.202,4.148-4.2,8.456-8.275,12.285-12.754,15.367-17.973,25.155-38.696,29.576-61.883,1.144-5.999,1.467-12.155,2.144-18.241.078-.704.011-1.425.011-2.658ZM1763.295,139.053c3.152-2.656,5.394-5.115,7.046-8.055,2.071-3.685,4.049-7.421,6.055-11.142,2.687-4.984,5.965-9.473,10.91-12.455,5.609-3.382,10.833-3.281,15.593.457,2.845,2.234,4.626,5.256,5.583,8.737,1.273,4.633,1.046,9.314.221,13.97-.959,5.407-2.007,10.799-3.099,16.181-2.458,12.115-5.443,24.078-9.937,35.639-6.045,15.549-14.746,29.135-28.259,39.317-1.513,1.14-2.896,2.517-4.109,3.975-1.682,2.021-2.653,4.457-2.206,7.099.225,1.327.977,2.688,1.841,3.748.739.906,1.924.127,2.902-.081,12.04-2.556,24.205-4.058,36.521-4.105,4.703-.018,9.415.18,14.11.483,4.287.277,8.562.771,12.83,1.279,3.952.47,7.873,1.218,11.832,1.596,3.439.329,6.681-.489,9.364-2.828,4.215-3.674,4.114-8.958-.784-11.991-1.279-.792-2.694-1.397-4.103-1.94-2.752-1.061-5.567-1.961-8.315-3.033-4.201-1.64-7.155-4.62-9.284-8.575-2.756-5.118-3.691-10.688-4.063-16.336-.582-8.846-.235-17.711.49-26.535.717-8.72,1.953-17.385,3.735-25.966,1.056-5.085,2.232-10.117,4.728-14.735,1.898-3.512,4.281-6.596,8.056-8.225,4.879-2.106,9.519-1.24,13.916,1.473,4.538,2.801,7.331,7.041,9.495,11.745,1.098,2.386,1.958,4.88,3,7.294.956,2.217,2.317,3.011,4.708,2.92,4.14-.158,7.189-3.286,7.45-7.893.135-2.384.123-4.809-.154-7.176-.813-6.949-1.733-13.887-2.728-20.813-.648-4.511-1.738-8.923-3.971-12.96-4.062-7.345-10.243-9.476-16.656-9.05-4.573.304-9.134,1.379-13.606,2.487-6.536,1.619-13.094,2.821-19.849,2.663-7.422-.174-14.757-1.245-22.094-2.248-6.892-.942-13.811-1.665-20.752-1.214-10.895.707-16.085,5.165-18.066,15.092-.93,4.657-1.411,9.464-1.494,14.214-.088,4.995.36,10.023.918,14.997.432,3.846,1.395,7.632,2.226,11.989Z" fill="#005cff" stroke-width="0"/>
        <path d="M1548.708,135.261c2.49-1.842,4.846-2.873,7.518-3.261,4.276-.62,7.937.474,10.8,3.706,2.43,2.744,4.733,5.603,7,8.485,1.596,2.029,2.566,4.389,3.138,6.912,1.036,4.565,1.065,8.156-.007,14.703,1.197-1.004,2.102-1.767,3.012-2.525,3.515-2.929,7.458-4.972,12.085-5.24,4.187-.243,7.87,1.057,10.667,4.345,2.169,2.55,4.332,5.107,6.456,7.695,2.566,3.125,3.681,6.839,4.264,10.76.928,6.246.112,12.396-1.123,18.498-2.008,9.927-4.541,19.722-8.104,29.218-1.799,4.795-4.108,9.316-7.526,13.239-3.848,4.417-8.646,7.04-14.378,7.815-3.858.522-7.767.767-11.661.901-8.776.3-17.557.44-26.335.673-4.864.129-9.726.32-14.59.47-5.503.17-11.006.334-16.51.482-4.46.121-8.922.336-13.38.286-4.106-.046-7.588-1.539-10.083-5.032-1.34-1.876-2.827-3.669-4.414-5.342-3.107-3.275-3.376-7.002-2.156-11.09.994-3.328,2.631-6.35,4.536-9.2,7.137-10.682,11.701-22.431,14.786-34.823,2.272-9.127,3.794-18.386,4.86-27.72.839-7.343,1.641-14.693,2.277-22.056.349-4.042.508-8.121.409-12.175-.111-4.537-.763-9.036-2.341-13.345-.499-1.364-1.073-2.611-2.466-3.385-.737-.409-1.309-1.16-1.872-1.827-1.646-1.95-3.15-4.028-4.893-5.885-3.013-3.208-3.32-6.991-2.428-10.952,1.286-5.712,4.933-9.541,10.222-11.858,3.233-1.417,6.633-2.274,10.152-2.552,3.415-.27,6.838-.48,10.261-.616,5.261-.209,10.528-.492,15.789-.452,6.94.054,13.892.192,20.815.652,10.006.664,19.993,1.62,29.91,3.19,3.06.484,5.578,1.754,7.476,4.245,1.158,1.521,2.314,3.066,3.65,4.425,3.409,3.468,4.993,7.728,5.582,12.414,1.354,10.779,1.007,21.472-1.936,31.992-1.468,5.246-5.362,8.1-10.857,8.452-5.472.351-9.76-1.973-13.508-5.568-2.824-2.708-5.447-5.623-8.225-8.38-2.403-2.384-5.171-4.223-8.382-5.41-5.528-2.045-10.575-.32-14.034,3.758-2.641,3.114-4.123,6.773-4.457,11.378ZM1488.945,236.266c1.695,1.503,3.954,1.971,6.292,1.933,4.305-.07,8.607-.285,12.91-.452,8.127-.316,16.254-.638,24.38-.962,3.824-.153,7.647-.328,11.471-.474,8.527-.327,17.053-.663,25.581-.957,6.256-.215,11.766-2.014,15.786-7.142,2.236-2.853,3.829-6.055,5.171-9.398,4.404-10.975,7.697-22.283,9.96-33.878.76-3.895,1.372-7.857,1.574-11.813.255-5.006-3.174-7.608-8.078-6.573-4.838,1.021-8.584,3.818-11.641,7.501-3.156,3.803-6.015,7.849-9.076,11.733-3.807,4.831-8.243,8.911-14.159,11.039-5.756,2.07-11.133,1.522-15.969-2.489-4.418-3.665-6.915-8.468-8.355-13.91-1.106-4.182-1.262-8.31.512-12.392,1.401-3.223,3.792-5.26,7.104-6.27,2.858-.872,5.466-.509,7.868,1.434,1.444,1.168,3.189,1.257,5.004.798,3.232-.817,5.249-2.959,6.446-5.901,1.449-3.565,2.263-7.319,2.43-11.153.067-1.538-.296-3.176-.826-4.637-.722-1.992-2.582-2.456-4.506-2.51-1.798-.05-2.922.9-3.753,2.467-.579,1.091-1.31,2.219-2.257,2.976-3.739,2.988-9.356,2.677-12.653-.777-1.231-1.29-2.225-2.924-2.934-4.571-1.863-4.324-1.615-8.876-.91-13.4,1.14-7.306,4.003-13.773,9.688-18.721,3.79-3.298,8.224-5.182,13.297-5.217,3.813-.026,7.212,1.387,10.13,3.754,2.659,2.157,5.146,4.53,7.68,6.838,1.652,1.504,3.178,3.153,4.896,4.575,2.535,2.099,5.311,3.777,8.615,4.5,1.157.253,1.784-.088,2.427-.923,1.974-2.564,3.388-5.395,4.176-8.53,1.565-6.223,1.087-12.484.292-18.742-.22-1.734-.475-3.472-.871-5.172-.562-2.409-1.961-4.208-4.422-4.899-1.214-.341-2.503-.546-3.763-.574-5.034-.112-10.07-.137-15.105-.182-12.385-.111-24.771-.232-37.156-.314-6.319-.042-12.639-.089-18.955.036-2.288.045-4.626.362-6.838.945-5.289,1.393-8.605,5.313-8.302,10.753.125,2.239.934,3.825,2.969,4.752,4.545,2.071,7.409,5.639,9.236,10.184,2.209,5.495,2.89,11.268,2.816,17.094-.075,5.884-.49,11.769-.925,17.641-.546,7.372-1.152,14.744-1.936,22.094-1.1,10.301-2.934,20.477-5.722,30.471-2.624,9.409-6.038,18.504-11.13,26.869-2.603,4.277-5.595,8.317-8.469,12.55ZM1563.497,182.29c-2.625-.319-4.57-.967-6.333-2.357-.83-.655-2.22-.845-3.35-.828-2.491.036-4.31,1.487-5.786,3.37-1.049,1.339-1.793,2.798-1.399,4.694,6.537,2.08,11.683-.491,16.867-4.878Z" fill="#005cff" stroke-width="0"/>
        <path d="M468.857,167.348c0-3.992-.186-7.993.033-11.973.839-15.245,3.045-30.251,8.664-44.566,4.81-12.254,11.655-23.227,21.189-32.398,9.731-9.36,21.12-15.76,34.521-17.969,19.865-3.274,37.832,1.184,53.58,13.957,4.495,3.646,8.196,8.022,11.896,12.424,4.738,5.635,9.205,11.433,12.371,18.134,3.295,6.974,5.416,14.281,6.495,21.914.829,5.862,1.117,11.758.81,17.646-.423,8.108-1.53,16.151-3.309,24.083-2.268,10.112-4.966,20.108-8.573,29.835-3.468,9.351-7.988,18.122-15.043,25.327-6.3,6.434-13.886,10.931-22.332,13.981-6.707,2.422-13.613,3.855-20.75,4.372-15.822,1.145-31.174-.742-45.954-6.645-5.396-2.155-10.488-5.018-14.393-9.277-5.582-6.086-11.465-12.045-14.65-19.935-2.016-4.992-3.239-10.189-3.643-15.526-.589-7.779-.919-15.578-1.36-23.368.149-.005.298-.011.447-.016ZM602.4,133.755c-.36-4.278-.531-8.582-1.118-12.829-1.472-10.655-5.022-20.592-11.112-29.51-6.588-9.648-15.207-16.698-26.545-20.165-9.125-2.79-18.416-3.125-27.666-1.225-19.645,4.035-34.265,14.919-43.456,32.857-4.307,8.408-7.495,17.232-10,26.332-2.673,9.71-4.305,19.596-4.939,29.615-.442,6.995-.398,14.016.212,21.034.538,6.195,1.329,12.337,2.606,18.417,1.787,8.509,6.225,15.106,14.032,19.227,1.976,1.043,3.967,2.07,6.013,2.963,12.774,5.579,26.117,7.529,39.967,6.13,8.644-.873,16.926-3.115,24.817-6.733,5.48-2.512,10.516-5.68,14.569-10.253,3.112-3.511,5.363-7.53,7.113-11.834,4.418-10.864,8.181-21.949,11.049-33.329,2.537-10.071,4.222-20.255,4.458-30.697Z" fill="#005cff" stroke-width="0"/>
        <path d="M514.656,145.031c.396-10.567,1.477-19.715,5.416-28.268,3.739-8.119,9.605-14.041,18.324-16.72,6.998-2.151,13.243-.386,18.8,4.098,4.656,3.757,7.67,8.701,9.748,14.234,4.132,11.001,4.814,22.128.237,33.112-4.959,11.903-14.025,18.774-26.952,19.998-11.837,1.12-22.667-7.237-24.826-18.931-.532-2.881-.591-5.849-.749-7.522ZM559.347,135.453c-.471-4.704-.798-9.308-1.43-13.869-.575-4.153-2.012-5.121-6.249-4.813-.079.006-.157.029-.236.039-6.088.762-10.739,3.779-13.972,8.961-2.007,3.216-3.23,6.781-3.854,10.473-.714,4.221-.936,8.524-1.578,12.76-.523,3.452-.042,6.794.466,10.175.191,1.27.815,1.634,1.983,1.924,2.621.65,5.084-.091,7.536-.646,8.629-1.953,14.395-7.017,16.284-15.843.645-3.013.721-6.148,1.049-9.16Z" fill="#005cff" stroke-width="0"/>
      </g>
      <g>
        <path d="M140.238,77.716c-.388,3.646-5.747,4.447-8.814,4.354-3.067-.093-8.189-1.254-7.75-4.904.44-3.648,5.746-4.427,8.811-4.334,3.065.092,8.141,1.24,7.753,4.884Z" fill="#fc6363" stroke-width="0"/>
        <path d="M171.494,87.292c2.588,1.823,5.256,5.48,2.755,8.476-2.501,2.996-7.043,1.553-9.628-.272-2.585-1.825-5.25-5.481-2.747-8.473,2.502-2.991,7.034-1.553,9.621.269Z" fill="#fc6363" stroke-width="0"/>
        <path d="M108.797,94.025c10.502,8.247,22.837,12.005,35.803,13.88,4.322.726,8.737,1.316,13.214,2.275,11.153,2.65,9.715,18.513-1.618,19.221-10.666.36-21.396-2.511-30.919-7.531-9.596-5.026-18.319-12.905-22.991-22.71-1.922-4.082,3.043-7.934,6.512-5.134h0Z" fill="#fc6363" stroke-width="0"/>
        <path d="M2162.947,187.211c27.155,23.241,47.277-22.159,54.928-43.37.488-1.698,5.932-3.633,8.658-3.281,92.809,23.854,46.689-38.965,3.628-64.632-8.908-8.311-.695-23.194-1.414-34.147,4.814-17.873-17.854-26.132-30.994-14.33-6.464,6.272-12.789,12.686-19.371,18.842-16.283,13.656-35.487-1.037-52.374-3.647-34.525-6.13-35.71,30.152-14.81,46.323,9.719,12.214,7.901,9.281-2.047,20.762-42.962,43.578-1.405,45.706,37.262,38.957,16.7.458,8.711,28.018,16.533,38.522M2177.598,160.571c-12.387,2.947-7.046-16.603-10.351-23.612-.021-26.309-54.721,5.921-44.676-12.923,3.691-4.415,7.325-8.998,11.67-12.761,21.989-19.137-24.683-39.277-6.879-44.594,15.746-3.416,28.781,10.524,43.294,10.04,6.761-4.969,37.414-45.922,38.575-22.689-7.1,37.498-4.646,30.175,23.862,52.042,33.086,28.684-2.578,17.709-22.495,13.336-14.962-5.609-13.423,32.712-32.999,41.161Z" fill="#fc6363" stroke-width="0"/>
        <ellipse cx="2196.421" cy="95.861" rx="4.168" ry="4.478" transform="translate(533.329 1533.768) rotate(-43.346)" fill="#fc6363" stroke-width="0"/>
        <ellipse cx="2176.758" cy="86.668" rx="3.758" ry="4.265" transform="translate(1620.023 2192.809) rotate(-77.473)" fill="#fc6363" stroke-width="0"/>
        <path d="M2193.747,111.949c-8.228,3.282-18.326-.099-24.766-5.573-1.97-1.775-8.018-8.298-3.664-10.209.58-.209,1.188-.181,1.717.035,2.519,1.021,4.675,2.171,6.833,3.254,6.31,3.322,12.625,6.707,19.567,8.511,1.913.463,2.109,3.24.312,3.982h0Z" fill="#fc6363" stroke-width="0"/>
        <path d="M2178.023,339.462c30.556-6.227,10.1-44.419-.394-61.059-.907-1.246.681-6.031,2.385-7.718,66.183-51.082-1.781-53.027-42.535-37.154-10.497,1.674-16.335-11.959-24.259-17.337-9.719-12.897-27.558-1.726-26.481,13.647.851,7.812,1.873,15.604,2.58,23.435.667,18.529-19.743,23.866-30.594,34.089-22.732,20.474,1.603,40.744,23.939,35.032,13.618-.14,10.624-.461,13.191,12.542,6.954,52.935,30.702,25.476,46.792-4.755,9.27-11.248,23.953,9.029,35.377,9.278M2179.226,323.322c-5.867,12.848-19.332-5.154-27.718-7.041-23.035-17.918-32.125,51.918-41.766,30.281-1.347-6.24-2.879-12.544-3.21-18.911-1.754-32.287-51.195-5.179-43.71-24.383,7.746-16.106,28.83-18.009,38.301-31.037.261-9.303-14.675-64.045,6.446-49.222,27.97,31.777,23.236,24.637,61.805,14.601,47.655-9.395,13.738,14.329-3.667,28.776-15.109,9.268,19.472,34.046,13.519,56.936Z" fill="#fc6363" stroke-width="0"/>
        <ellipse cx="2134.957" cy="260.564" rx="5.559" ry="3.229" transform="translate(-15.318 213.096) rotate(-5.694)" fill="#fc6363" stroke-width="0"/>
        <ellipse cx="2111.545" cy="271.855" rx="5.294" ry="3.529" transform="translate(315.687 1415.279) rotate(-39.821)" fill="#fc6363" stroke-width="0"/>
        <path d="M2154.266,273.875c-6.182,11.992-21.824,21.021-34.911,22.893-7.75.51-8.996-10.583-1.327-11.803,1.533-.21,3.084-.114,4.631-.285,9.896-1.142,20.782-5.368,27.139-13.273,1.763-2.663,5.801-.428,4.468,2.469h0Z" fill="#fc6363" stroke-width="0"/>
        <path d="M1942.474,392.904c18.929,16.2,32.955-15.446,38.289-30.232.34-1.183,4.135-2.532,6.035-2.287,64.693,16.628,32.545-27.161,2.529-45.052-6.209-5.793-.484-16.168-.986-23.803,3.356-12.459-12.445-18.216-21.605-9.989-4.506,4.372-8.915,8.843-13.503,13.134-11.35,9.519-24.736-.723-36.508-2.542-24.066-4.273-24.892,21.018-10.323,32.29,6.775,8.514,5.508,6.47-1.427,14.472-29.947,30.376-.979,31.86,25.974,27.156,11.641.319,6.072,19.53,11.524,26.853M1952.687,374.334c-8.635,2.054-4.912-11.574-7.215-16.459-.014-18.339-38.144,4.127-31.142-9.008,2.573-3.078,5.106-6.272,8.135-8.895,15.328-13.339-17.206-27.378-4.795-31.085,10.976-2.381,20.062,7.336,30.178,6.999,4.713-3.464,26.08-32.011,26.889-15.816-4.949,26.138-3.238,21.034,16.633,36.276,23.063,19.994-1.797,12.344-15.681,9.296-10.43-3.91-9.357,22.802-23.002,28.692Z" fill="#fc6363" stroke-width="0"/>
        <ellipse cx="1947.715" cy="323.892" rx="2.776" ry="3.615" transform="translate(1571.557 2262.192) rotate(-88.459)" fill="#fc6363" stroke-width="0"/>
        <ellipse cx="1964.056" cy="331.028" rx="2.617" ry="3.443" transform="translate(549.893 1733.611) rotate(-54.331)" fill="#fc6363" stroke-width="0"/>
        <path d="M1940.498,331.523c4.385,3.645,9.858,6,15.266,7.78,1.877.594,3.781,1.098,5.758,1.594,1.875.459,1.795,3.206-.08,3.57-8.555,1.548-19.855-3.046-23.727-11.132-.726-1.731,1.502-3.145,2.782-1.812h0Z" fill="#fc6363" stroke-width="0"/>
        <g>
          <path d="M1212.776,229.486c12.715-.927,25.627-1.988,38.465-3.026,9.464-.765,19.142-1.75,28.661-2.589,12.778-1.125,25.414-2.275,38.245-3.322,9.298-.758,18.625-1.641,27.994-2.402-.002-.046-.008-.091-.01-.137-.146-3.217.159-6.295.812-9.263-4.199.319-8.387.635-12.551.933-15.649,1.119-31.008,2.288-46.524,3.546-16.901,1.371-34.087,2.8-50.83,4.078-5.035.384-10.043.719-15.041,1.04-.401.635-.803,1.27-1.236,1.89-2.412,3.452-5.077,6.536-7.984,9.252Z" fill="#fc6363" stroke-width="0"/>
          <path d="M1623.964,209.031c1.059-2.394,1.824-4.896,2.34-7.492-1.175-.044-2.353-.092-3.523-.127-3.535-.104-7.083-.215-10.63-.324-.524,2.509-1.086,5.009-1.69,7.497,4.476.12,8.983.272,13.503.447Z" fill="#fc6363" stroke-width="0"/>
          <path d="M467.315,224c1.235,2.223,1.55,4.398,1.204,6.536,12.58,2.912,25.264,5.414,38.015,7.917,13.076,2.568,26.194,4.562,39.407,6.757,9.065,1.506,18.176,2.642,27.304,3.824,10.531,1.365,21.102,2.591,31.667,3.8,4.96.568,9.969,1.055,14.943,1.484,12.225,1.056,24.629,2.193,36.838,3.077,9.409.682,18.818,1.013,28.174,1.212,12.816.273,25.725.656,38.493.876,22.464.389,44.813-.249,67.307-.773,7.116-.166,14.193-.483,21.271-.813,8.042-.375,15.955-.835,23.972-1.345,11.227-.715,22.386-1.347,33.629-2.056,8.566-.541,17.147-1.267,25.719-1.959,10.615-.857,21.294-1.659,31.902-2.513,11.9-.958,23.65-1.955,35.562-2.988,12.565-1.089,25.211-2.094,37.83-3.127,7.667-.628,15.304-1.3,22.95-1.949-.746-.028-1.491-.05-2.237-.082-4.925-.211-9.875-.31-14.646-1.898-3.671-1.222-6.746-3.255-9.223-6.186-.566-.67-1.124-1.347-1.686-2.021-3.574.276-7.146.551-10.725.829-5.154.399-10.274.727-15.42,1.074-3.075,4.524-7.349,7.488-12.206,9.702-5.126,2.337-10.516,3.686-16.17,3.969-13.158.659-24.583-2.508-34.472-9.07-2.992.215-5.986.431-8.968.641-6.855.482-13.762.884-20.61,1.317-5.909.375-11.827.716-17.744,1.056-.862.655-1.773,1.257-2.741,1.802-5.232,2.948-10.951,4.451-16.842,5.095-6.646.727-13.334,1.061-20.005,1.548-6.433.469-12.862,1.003-19.302,1.344-5.667.3-11.327.281-16.868-1.339-3.239-.947-6.055-2.497-8.343-4.894-8.885.231-17.764.433-26.672.458-7.269.02-14.526-.026-21.808-.142-6.271,2.415-12.799,4.005-19.607,4.576-2.46.206-4.922.394-6.186.495-11.758-.094-22.145-2.434-31.472-7.105-6.5-.385-13-.825-19.497-1.345-12.182-.976-24.555-2.262-36.723-3.55-10.649-1.127-21.348-2.475-31.948-3.818-1.212-.153-2.428-.312-3.642-.468-2.743,1.455-5.605,2.72-8.58,3.795-6.707,2.422-13.612,3.855-20.75,4.372-15.822,1.145-31.174-.742-45.954-6.645-5.396-2.155-10.488-5.019-14.394-9.277-2.625-2.862-5.313-5.698-7.759-8.717-6.081-1.324-12.148-2.669-18.183-4.101.333.76.654,1.524,1,2.28,1.293,2.83,2.683,5.625,4.194,8.345Z" fill="#fc6363" stroke-width="0"/>
          <path d="M1494.923,209.304c1.278-2.725,2.43-5.502,3.478-8.324-15.597.232-31.106.894-46.584,1.611,1.335,2.672,2.507,5.405,3.414,8.233,13.242-.683,26.389-1.207,39.693-1.52Z" fill="#fc6363" stroke-width="0"/>
          <path d="M1490.89,216.984c-1.626.083-3.265.154-4.883.247-9.697.555-19.369,1.194-29.015,1.877.346,3.386.255,6.671-.435,9.809,6.007-.439,12.016-.874,17.993-1.34,3.471-.271,6.954-.51,10.44-.737.843-1.766,1.839-3.453,2.927-5.082,1.048-1.568,2.034-3.162,2.974-4.774Z" fill="#fc6363" stroke-width="0"/>
          <path d="M372.415,200.892c.591-1.39,1.206-2.771,1.828-4.149,1.507-3.339,3.02-6.676,4.531-10.013-5.303-2.183-10.562-4.439-15.773-6.781-.057,2.486.102,4.983.399,7.469.419,3.5,1.019,6.977,1.615,10.455,1.844.776,3.696,1.54,5.556,2.29.613.248,1.23.484,1.844.729Z" fill="#fc6363" stroke-width="0"/>
          <path d="M1731.923,238.021c-.257.247-.527.467-.789.703,6.781.276,13.564.583,20.375.889,2.036.091,4.066.198,6.095.31-.77-.917-1.545-1.83-2.314-2.747-1.268-1.511-2.227-3.157-2.875-4.941-4.997-.276-9.993-.525-14.987-.746-1.588,2.328-3.404,4.517-5.505,6.532Z" fill="#fc6363" stroke-width="0"/>
          <path d="M1619.658,216.154c.562-.704,1.088-1.42,1.58-2.15-4.051-.052-8.093-.086-12.132-.112-.765,2.82-1.601,5.621-2.508,8.401,2.921,0,5.848.007,8.782.029,1.262-2.155,2.72-4.217,4.278-6.167Z" fill="#fc6363" stroke-width="0"/>
          <path d="M1739.827,227.533c2.121.186,4.242.374,6.362.561,1.79.158,3.582.33,5.374.496-.333-2.839.202-5.395,1.889-7.633-3.395-.349-6.792-.683-10.188-1.011-.982,2.628-2.114,5.166-3.437,7.587Z" fill="#fc6363" stroke-width="0"/>
          <path d="M1613.313,231.09c-1.239.04-2.479.062-3.718.107-2.132.078-4.247.188-6.371.282-1.302,2.988-2.866,5.836-4.845,8.46,6.507-.341,13.038-.608,19.568-.81-.58-.694-1.162-1.388-1.738-2.085-1.588-1.92-2.547-3.912-2.896-5.954Z" fill="#fc6363" stroke-width="0"/>
          <path d="M1348.61,228.446c-1.875.185-3.753.366-5.628.551-18.567,1.83-36.89,3.969-55.24,5.962-21.205,2.303-42.696,4.566-63.652,6.576-22.64,2.17-44.983,4.124-67.361,6.012-16.175,1.365-31.981,2.382-47.926,3.571-13.607,1.014-26.801,2.551-40.211,3.797-16.56,1.539-33.037,2.782-49.475,4.564-14.262,1.546-28.375,2.999-42.595,4.495-11.949,1.257-23.546,2.558-35.627,3.813-12.073,1.255-24.579,2.469-36.807,3.703-11.264,1.136-22.664,2.323-33.981,3.321-10.136.894-20.353,1.692-30.487,2.591-7.785.691-15.477,1.399-23.284,1.967-10.155.739-20.376,1.318-30.562,1.917-6.434.377-12.877.784-19.332,1.102-11.083.544-22.062,1.057-33.2,1.26-16.751.306-33.506.689-50.294.87-10.276.111-20.607-.201-30.941-.554-11.291-.385-22.636-.982-33.959-1.65-7.615-.45-15.251-.821-22.874-1.472-12.617-1.077-25.179-2.065-37.738-3.342-15.579-1.582-31.051-3.029-46.551-5.045-15.478-2.013-30.985-4.393-46.318-7.022-16.366-2.806-32.671-5.892-48.79-9.384-12.037-2.608-24.049-5.575-35.871-8.786-7.988-2.169-15.93-4.465-23.788-6.96-1.257,1.069-2.602,2.07-4.036,3-6.2,4.021-13.062,6.176-20.416,6.932-.838.086-1.675.141-2.511.195,7.574,2.759,15.233,5.402,22.964,7.822,20.013,6.264,40.543,11.451,61.167,16.316,9.544,2.252,19.201,4.303,28.896,6.093,12.449,2.298,25.021,4.31,37.59,6.309,10.661,1.696,21.356,3.147,32.107,4.523,9.358,1.198,18.761,2.143,28.159,3.122,8.538.89,17.095,1.738,25.662,2.497,4.994.442,10.013.727,15.024,1.071,6.971.478,13.968.979,20.945,1.427,5.67.364,11.391.735,17.048.982,8.829.383,17.665.585,26.458.745,20.549.373,41.015.491,61.582.45,6.102-.012,12.177-.151,18.247-.295,8.884-.212,17.779-.441,26.622-.893,5.824-.297,11.547-.635,17.328-1.042,7.382-.521,14.734-1.176,22.116-1.678,9.213-.626,18.502-1.155,27.677-1.95,8.532-.739,17.014-1.67,25.514-2.556,16.588-1.729,33.398-3.167,49.993-5.025,15.224-1.705,30.522-3.293,45.762-5.09,13.76-1.622,27.503-3.484,41.33-5.044,14.696-1.658,29.314-3.309,44.09-4.992,11.548-1.315,23.21-2.342,34.85-3.592,14.151-1.519,28.002-3.01,42.385-4.565,14.395-1.557,29.242-2.579,43.947-3.917,16.823-1.53,33.873-2.983,50.902-4.625,9.191-.886,18.616-2.028,27.976-3.066,15.761-1.749,31.625-3.371,47.524-5.258,17.646-2.095,35.153-4.348,53.04-6.365,9.924-1.12,19.946-2.228,30.002-3.295-1.651-2.033-3.391-3.998-4.99-6.071-.989-1.282-1.79-2.63-2.459-4.024Z" fill="#fc6363" stroke-width="0"/>
          <path d="M1745.912,211.379c-.517,2.111-1.146,4.207-1.85,6.29,1.935.226,3.877.443,5.802.679,1.79.219,3.566.454,5.35.68,1.921-1.93,3.86-3.847,5.77-5.79-2.564-.32-5.127-.643-7.675-.954-2.461-.301-4.93-.604-7.396-.905Z" fill="#fc6363" stroke-width="0"/>
          <path d="M890.453,222.869c-1.536-1.85-3.062-3.708-4.52-5.617-.914-1.197-1.734-2.434-2.51-3.689-.576.016-1.152.038-1.729.053-6.199.164-12.397.292-18.595.413.987,2.518,1.938,5.051,2.725,7.63.194.635.35,1.27.478,1.902,6.823-.196,13.648-.394,20.477-.579,1.223-.033,2.45-.077,3.675-.114Z" fill="#fc6363" stroke-width="0"/>
          <path d="M1115.735,235.458c11.855-.644,23.746-1.21,35.693-1.862-.842-.644-1.676-1.309-2.495-2.017-3.082-2.662-6.001-5.485-8.709-8.487-6.787.297-13.567.57-20.332.842-.522,4.083-1.71,7.984-4.152,11.517-.001.002-.003.004-.005.006Z" fill="#fc6363" stroke-width="0"/>
          <path d="M1246.91,207.33c17.739-1.094,35.836-2.202,53.755-3.382,16.16-1.065,32.445-2.051,48.785-2.85,1.24-2.848,2.769-5.602,4.496-8.285-1.057.057-2.111.117-3.17.17-10.735.538-21.488,1.017-32.139,1.534-15.727.764-31.298,1.883-46.879,2.889-9.714.627-19.619,1.146-29.214,1.691-4.126.235-8.264.46-12.396.681-.965,2.931-1.987,5.835-3.149,8.676,6.62-.349,13.253-.714,19.912-1.125Z" fill="#fc6363" stroke-width="0"/>
          <path d="M1452.325,196.724c15.875-.481,31.77-.793,47.808-.744.831-2.581,1.579-5.197,2.26-7.841-12.833-.083-25.519.044-38.265.384-6.598.176-13.18.35-19.755.524,1.431,2.604,2.882,5.198,4.338,7.788,1.205-.037,2.407-.075,3.613-.112Z" fill="#fc6363" stroke-width="0"/>
          <path d="M1132.089,212.399c-1.434-2.28-2.747-4.65-3.916-7.121-.22-.464-.424-.931-.628-1.397-2.655.033-5.306.057-7.951.08.315,2.895.535,5.798.629,8.712,3.977-.083,7.926-.175,11.866-.274Z" fill="#fc6363" stroke-width="0"/>
          <path d="M1761.812,212.378c1.686-1.736,3.344-3.494,4.913-5.329.07-.082.135-.166.205-.247-6.522-1.017-13.047-2.001-19.565-2.954-.299,2.117-.708,4.218-1.184,6.31,5.196.708,10.417,1.463,15.632,2.22Z" fill="#fc6363" stroke-width="0"/>
          <path d="M390.097,159.467c.145-3.138-.117-3.342-3.146-4.46-2.911-1.075-5.749-.983-8.527-.016,3.871,1.604,7.75,3.195,11.65,4.747.006-.09.019-.181.022-.271Z" fill="#fc6363" stroke-width="0"/>
          <path d="M1626.765,198.701c.073-.562.151-1.122.204-1.691.168-1.843.29-3.69.395-5.54-4.514-.28-9.022-.545-13.525-.798-.215,2.431-.59,4.85-1.049,7.261,4.651.24,9.308.497,13.977.768Z" fill="#fc6363" stroke-width="0"/>
          <path d="M2011.02,254.48c-2.016-.301-4.027-.631-6.046-.897-7.018-.925-13.735-2.831-20.088-5.992-.403-.201-.8-.41-1.193-.624-7.897-.967-15.698-1.943-23.497-2.982-1.202,1.463-2.537,2.828-4.073,4.047-2.832,2.247-6.139,3.416-9.641,3.915-4.648.663-9.32,1.248-14.002,1.573-5.328.369-10.684.648-16.019.54-6.469-.131-12.864-.956-18.854-3.759-3.54-1.657-6.56-3.913-9.037-6.921-1.774-2.155-3.564-4.296-5.35-6.441-2.053-2.467-3.287-4.982-3.682-7.547-4.876-1.083-9.756-2.17-14.64-3.241-.895-.196-1.788-.396-2.682-.594.385.478.782.948,1.16,1.432,2.249,2.883,3.687,6.151,4.111,9.804.783,6.741-2.811,12.521-9.329,14.692-2.011.67-4.199.93-6.328,1.102-6.768.546-13.309-1.206-19.939-2.094-4.415-.591-8.855-1.014-13.296-1.365-3.097-.245-6.216-.374-9.32-.318-6.295.113-12.572.591-18.792,1.601-5.312.863-10.673,1.062-16.002.682-5.437-.388-10.171-2.513-13.583-7.065-.351-.468-.713-.928-1.076-1.387-1.446-.023-2.896-.051-4.34-.07-9.723-.127-19.314-.235-28.98-.322-3.766,2.365-7.932,3.913-12.524,4.612-5.326.811-10.687.627-16.02.357-8.058-.408-16.116-.792-24.17-.315-8.669.513-17.256,1.768-25.781,3.452-5.12,1.011-10.302,1.371-15.448.271-3.236-.691-6.048-2.159-8.421-4.332-7.838.396-16.023.702-23.755,1.511-12.862,1.345-25.403,2.986-38.188,4.331-10.899,1.145-21.652,2.103-32.605,3.18-6.719.66-13.827,1.539-20.489,2.424-8.286,1.101-16.452,2.096-24.643,3.269-9.925,1.42-19.839,2.875-29.754,4.334-9.33,1.374-18.639,2.899-27.941,4.372-8.034,1.272-15.964,2.585-23.952,3.925-14.034,2.354-28.083,4.813-42.025,7.273-12.688,2.238-25.333,4.454-37.974,6.665-16.124,2.822-32.168,5.827-48.232,8.657-16.848,2.968-33.727,6.082-50.513,8.682-19.337,2.995-38.595,5.919-57.76,8.495-18.155,2.44-35.742,5.258-53.606,7.95-16.443,2.477-32.772,4.817-49.025,7.358-13.977,2.185-27.748,4.296-41.615,6.507-15.454,2.464-30.879,4.957-46.253,7.449-17.062,2.766-34.088,5.398-51.147,8.008-15.033,2.3-30.109,4.509-45.195,6.647-15.075,2.137-30.145,4.284-45.282,6.167-14.591,1.816-29.123,3.628-43.788,5.095-13.265,1.328-26.674,2.249-39.996,3.303-11.271.892-22.605,1.699-33.962,2.387-9.945.603-19.986,1.054-30.023,1.343-8.185.237-16.451.429-24.691.488-19.553.142-39.154.026-58.678-.052-1.755-.007-3.513-.012-5.274-.064-11.653-.347-23.256-.573-34.905-1.088-9.979-.441-20.022-1.027-29.992-1.775-13.9-1.043-27.752-2.227-41.584-3.434-10.558-.921-21.087-1.951-31.582-3.164-11.998-1.387-24.042-2.944-35.961-4.646-14.053-2.007-28.081-4.225-42.043-6.51-7.025-1.15-14.015-2.578-20.99-3.959-7.92-1.569-15.872-3.113-23.743-4.854-9.119-2.019-18.127-4.064-27.142-6.386-12.106-3.119-24.181-6.277-36.149-9.641-9.907-2.785-19.666-5.765-29.39-8.988-11.323-3.753-22.594-7.486-33.7-11.675-13.135-4.955-26.113-10.23-38.906-15.783-10.685-4.637-21.173-9.618-31.567-14.733-9.449-4.649-18.722-9.45-27.824-14.661-10.512-6.018-20.779-12.272-30.901-18.808-9.505-6.136-18.591-12.662-27.777-19.172-4.948-3.507-9.682-7.252-14.552-10.903-.471-.354-1.122-.903-1.582-1.31,1.785-.781,3.981-1.498,5.71-2.268,10.562-4.705,20.405-10.172,30.211-16.179,3.342-2.047,6.232-4.741,9.828-6.38,4.905-2.236,9.141-2.482,14.044-.626,2.475.937,3.878,3.343,5.874,5.018,6.664,5.594,13.018,11.561,19.95,16.926,8.096,6.266,16.511,12.075,25.598,17.085,6.41,3.535,13.194,6.11,20.364,8.149,4.736,1.347,9.683,1.257,14.657,1.186,1.817-.026,3.162.264,4.601,1.239,17.273,11.715,34.812,22.667,53.532,32.395,9.964,5.177,20.115,9.972,30.517,14.377,11.865,5.024,23.95,9.517,36.13,13.956,9.323,3.397,18.807,6.556,28.39,9.336,13.583,3.941,27.287,7.733,41.116,11.085,12.6,3.055,25.317,5.777,38.107,8.27,14.608,2.847,29.298,5.344,44.103,7.543,16.005,2.377,32.096,4.178,48.252,5.945,13.568,1.484,27.199,2.559,40.832,3.728,7.749.665,15.453,1.159,23.213,1.555,13.582.692,27.166,1.224,40.754,1.617,20.648.599,41.219.746,61.858.91,8.891.071,17.66-.28,26.466-.64,10.98-.449,21.842-.967,32.747-1.547,11.452-.609,22.845-1.435,34.209-2.403,11.906-1.015,23.839-1.978,35.669-3.166,15.04-1.51,30.141-3.349,45.054-5.226,14.925-1.877,29.492-3.681,44.364-5.669,15.74-2.105,31.088-4.388,46.942-6.657,15.866-2.271,32.058-4.659,48.101-6.937,12.119-1.72,24.308-3.488,36.518-5.267,17.148-2.497,34.286-4.695,51.586-7.058,12.554-1.715,25.057-3.399,37.776-5.169,23.707-3.3,47.441-6.016,71.5-8.825,16.499-1.926,33.074-4.291,49.804-6.658,22.631-3.202,45.287-7.014,68.121-10.538,22.857-3.528,45.98-7.035,69.112-10.341,19.142-2.736,38.607-5.431,57.95-7.942,13.908-1.807,27.871-3.307,41.944-4.957,5.903-.692,11.838-1.344,17.79-1.965-.282-.323-.561-.654-.822-1.021-1.34-1.876-2.827-3.669-4.414-5.342-.613-.646-1.112-1.311-1.514-1.991-8.619.86-17.203,1.78-25.834,2.725-4.338.475-8.676.977-13.013,1.498-1.824,1.02-3.77,1.843-5.808,2.51-4.882,1.599-9.937,2.371-15.053,2.441-6.595.091-13.189.17-19.785.225-19.44,2.495-38.795,4.915-58.072,7.683-15.041,2.16-30.106,4.264-45.071,6.496-13.695,2.043-27.519,4.034-41.117,6.029-15.746,2.311-31.641,4.471-47.269,6.538-14.834,1.961-29.724,3.513-44.39,5.217-12.991,1.509-25.894,3.035-38.697,4.447-20.441,2.255-40.702,5.131-60.854,7.679-20.13,2.545-39.911,4.925-59.811,7.663-14.08,1.937-27.841,3.887-41.834,5.817-16.114,2.222-32.175,4.348-48.279,6.449-12.362,1.613-24.776,3.34-37.136,4.854-10.222,1.252-20.389,2.259-30.606,3.467-8.827,1.044-17.534,2.151-26.4,3.069-11.64,1.204-23.453,2.212-35.135,3.189-8.354.699-16.679,1.32-25.03,1.969-8.991.7-18.055,1.314-27.084,1.698-14.075.597-28.338,1.135-42.396,1.611-14.045.476-27.952.542-41.965.604-9.303.041-18.617-.099-27.932-.343-8.313-.218-16.698-.542-25.01-.924-9.828-.452-19.668-.936-29.485-1.625-12.971-.912-25.938-1.838-38.852-3.098-15.935-1.555-31.9-3.351-47.742-5.266-10.983-1.328-21.987-2.71-32.875-4.459-13.225-2.125-26.376-4.333-39.449-6.878-16.965-3.301-33.799-7.099-50.316-11.715-14.948-4.178-29.783-8.758-44.34-13.771-16.13-5.555-31.857-11.868-47.214-18.917-17.216-7.904-33.524-17.137-49.566-26.821-5.706-3.444-11.029-7.399-16.606-11.03-.837-.545-1.606-1.292-2.384-1.913.886-1.748,2.163-3.533,3.028-5.246,1.389-2.752,1.945-5.348,1.454-8.225-.655-3.833-1.639-7.461-2.915-11.071-2.092-5.915-4.66-11.492-6.926-17.355-1.338-3.463-2.488-7.135-3.101-10.842.608.189,1.495.468,1.94.852,8.276,7.138,16.495,14.207,25.542,20.448,9.751,6.727,19.691,13.008,30.001,19.029,4.797,2.801,9.661,5.482,14.598,8.057-.163-.469-.314-.944-.456-1.425v-2.877c.297-.704.599-1.406.89-2.112.697-1.687,1.218-3.474,2.116-5.046,1.317-2.307,2.914-4.387,4.663-6.338-13.278-7.232-25.851-15.359-38.235-23.861-6.847-4.7-12.942-10.213-19.415-15.354-2.757-2.19-5.224-4.699-7.868-7.074-.281-.252-.588-.874-.804-1.221,19.97-5.066,38.969-11.233,57.474-20.471,2.286,1.778,4.518,3.742,6.781,5.534,9.305,7.37,18.645,14.67,28.803,21.063,1.43.9,2.871,1.786,4.309,2.676,1.69-3.668,3.182-7.444,4.5-11.316.487-1.431.942-2.868,1.383-4.308-3.19-2.116-6.357-4.259-9.505-6.421-7.448-5.116-14.185-11.081-21.318-16.532-1.663-1.271-3.127-2.802-4.667-4.212-.487-.446-.769-1.162-.975-1.735-2.28-6.37-5.574-11.496-11.066-15.64-6.217-4.692-12.92-8.435-20.016-11.74-9.924-4.622-20.086-8.596-30.07-13.031-.184-.082-.38-.083-.577-.212-4.893-3.203-6.252-5.913-5.418-11.879.167-1.188.524-3.075.996-4.535.944-2.921,2.251-5.977,3.256-8.997,1.193-3.586,2.289-7.369,3.404-10.996.944.225,1.428.904,2.022,1.551,4.633,5.049,9.299,10.215,14.081,15.105,2.817,2.881,5.976,5.679,8.853,8.308,2.877,2.629,5.487,5.097,8.383,7.504,5.792,4.817,11.424,9.713,17.484,14.189,8.885,6.56,17.882,12.96,27.208,19.007,7.691,4.987,15.622,9.666,23.688,14.179.611-4.059,1.123-8.136,1.559-12.229-6.791-3.944-13.495-8.004-20.108-12.183-7.837-4.953-15.178-10.487-22.508-16.033-6.918-5.234-13.383-10.875-19.892-16.511-4.807-4.164-9.46-8.453-13.854-12.978-6.366-6.557-12.305-13.395-18.299-20.229-2.858-3.259-5.434-6.702-8.03-10.153-3.528-4.69-6.786-9.457-11.019-13.635-3.611-3.564-7.848-6.19-12.611-8.333-1.676-.754-3.618-1.228-5.317-1.967-3.117-.105-6.211-.219-9.322-.35-2.084.595-4.3.88-6.362,1.548-6.637,2.148-12.856,4.856-18.555,8.824-6.685,4.656-12.673,10.276-19.217,14.977-5.355,3.847-10.408,8.105-16.576,10.418-9.382,3.52-17.466,3.573-26.507.607-6.419-2.105-11.547-6.128-17.59-8.982-7.517-3.549-14.364-8.403-22.381-11.222-8.007-2.816-15.682-2.379-24.101.532-4.813,1.665-7.897,5.469-11.02,9.24-.388.469-.94,1.036-1.463,1.398-.448,2.328-.946,4.624-1.333,6.956-.032.19.229.294.269.46,1.667,6.782,4.452,12.504,7.227,18.956,2.14,4.976,4.604,9.841,6.881,15.009,2.753,6.252,5.601,12.86,7.374,19.676.57,2.191.865,4.951.862,7.231-.003,3.469-.753,6.687-2.542,9.644-6.714,11.102-13.787,22.061-18.707,33.756-4.926,11.711-8.424,23.071-10.837,35.266-1.585,8.009-1.374,15.801-.383,23.739.375,3.004,1.726,5.929,2.977,8.592,1.251,2.663,3.087,4.548,5.355,6.367,6.104,4.894,12.244,9.876,18.456,14.648,7.572,5.817,15.177,11.622,23.043,17.088,13.732,9.542,27.894,18.727,42.48,27.179,11.145,6.458,22.538,12.742,34.017,18.666,11.499,5.933,23.21,11.565,35.091,16.818,12.948,5.724,26.109,11.104,39.461,16.145,13.373,5.049,26.918,9.668,40.551,14.256,9.13,3.073,18.397,5.698,27.706,8.316,11.674,3.286,23.37,6.632,35.208,9.481,14.568,3.506,29.25,6.769,44.031,9.682,15.65,3.085,31.35,5.994,47.21,8.432,17.704,2.722,35.446,5.102,53.301,7.443,10.616,1.391,21.273,2.324,31.966,3.309,12.667,1.167,25.29,2.115,38.009,3.104,9.328.725,18.617,1.241,27.974,1.787,6.834.398,13.68.611,20.526,1.006.949.055,1.882.382,2.808.573,28.091.409,56.24.526,84.448.719,1.041-.162,2.097-.466,3.151-.49,8.806-.202,17.633-.276,26.437-.431,2.753-.048,5.547-.098,8.261-.229,9.656-.471,19.337-1.118,28.94-1.804,9.073-.648,18.133-1.15,27.159-1.942,11.822-1.037,23.731-2.151,35.509-3.254,12.433-1.165,24.768-2.565,37.1-4.198,17.873-2.366,35.737-4.816,53.606-7.246,10.539-1.433,20.979-3.056,31.465-4.747,14.416-2.326,28.752-4.615,43.22-6.893,12.775-2.011,25.276-4.161,38.152-6.282,12.883-2.124,25.708-4.446,38.765-6.518,18.963-3.008,37.782-6.087,56.87-9,19.645-2.999,39.268-6.125,59.064-9.366,15.017-2.459,30.391-4.527,45.648-6.726,12.723-1.833,25.535-3.978,38.285-6.081,12.758-2.104,25.486-4.365,38.259-6.649,18.495-3.308,37.013-6.558,55.563-9.91,11.585-2.093,23.05-4.441,34.642-6.672,19.707-3.793,39.521-7.205,59.418-10.497,11.38-1.882,22.697-4.102,34.139-5.882,10.874-1.691,21.848-2.98,32.777-4.603,13.132-1.951,26.388-4.127,39.644-5.648,20.252-2.324,40.528-4.324,60.899-6.646,11.824-1.348,23.632-2.858,35.71-3.532,12.086-.673,24.07-1.175,36.381-1.884,12.32-.708,25.081-1.548,37.611-2.292,7.097-.42,14.577-.326,21.798-.265,11.917.103,23.857.023,35.8.224,13.653.229,27.414.931,41.111,1.727,18.929,1.1,37.95,2.95,56.918,4.662,10.958.989,21.965,2.133,32.867,3.015,13.935,1.127,27.873,1.853,41.754,2.27,18.629.559,36.979.568,55.576-.15,14.118-.545,28.196-2.128,42.082-4.224.704-1.646,1.402-3.234,2.107-4.882-.118-.188-.235-.359-.352-.539-1.01.138-2.019.28-3.028.42h-7.68ZM26.326,199.938c-1.85.679-3.884,1.268-5.792,1.155-3.438-.204-5.579-1.277-6.496-4.608-.916-3.331-.635-7.001.396-10.494,3.487-11.807,8.057-22.939,14.06-33.934,4.985-9.131,10.889-17.895,15.924-27.07,2.693-4.909,5.269-9.999,6.631-15.392.985-3.9.982-7.712.099-11.553-1.674-7.275-4.765-14.081-7.806-20.83-3.752-8.327-7.757-16.62-11.513-24.852-1.537-3.366-3.531-6.19-5.052-9.473-1.694-3.653-2.667-6.907-2.379-11.146.178-2.622,2.24-4.951,5.275-5.359,2.449-.329,5.149-.431,7.558.279,10.051,2.965,19.591,7.314,28.447,12.514,12.438,7.302,24.79,14.464,37.999,20.642,2.482,1.161,4.995,2.337,7.625,3.243,1.911.658,3.694.704,5.659-.179,4.646-2.087,8.96-4.416,13.043-7.518,5.244-3.984,9.896-8.59,14.817-13.013,4.92-4.422,9.517-9.295,14.956-13.251,7.621-5.543,15.712-8.967,24.838-11.356,1.204-.314,2.528-.404,3.724-.198,6.044,1.043,8.563,4.076,9.272,9.707.12.954-.256,1.544-.195,2.432.007.104.24-.028.221.054-1.213,5.117-2.812,10.127-4.122,15.24-2.013,7.86-4.372,15.612-4.632,23.678-.215,6.663.982,12.607,4.458,18.289,2.947,4.819,7.5,7.927,12.534,10.75,3.373,1.891,7.326,2.979,11.001,4.396,7.676,2.958,15.333,6.148,22.733,9.675,2.377,1.133,4.882,2.17,7.126,3.437,2.717,1.533,5.261,3.292,6.773,5.884,1.513,2.594.757,4.413-1.833,6.157-1.75,1.179-3.983,1.988-6.116,2.463-7.875,1.754-15.826,3.034-23.757,4.551-10.334,1.977-20.66,3.718-30.714,7.139-4.324,1.471-8.493,3.411-11.868,6.557-4.272,3.982-5.213,8.489-5.337,13.874-.018.78.285,1.575.527,2.332,3.283,10.262,7.173,20.204,11.706,30.022,1.789,3.874,3.405,7.909,4.594,12.029.565,1.961.839,4.207.487,6.201-.549,3.117-2.303,5.436-5.316,6.626-4.02,1.588-8.055,1.716-11.996.638-10.129-2.771-19.032-6.977-27.442-12.738-9.007-6.17-16.674-13.606-24.92-20.577-6.067-5.129-11.896-10.422-18.383-15.105-3.084-2.227-6.327-4.268-10.17-5.331-4.923-1.36-8.914-.78-13.482,2.14-5.218,3.335-10.426,7.258-15.735,10.644-6.269,3.997-12.442,8.25-18.841,12.087-5.958,3.572-12.063,6.75-18.586,9.143Z" fill="#fc6363" stroke-width="0"/>
          <path d="M451.519,180.405c5.339,1.588,10.703,3.12,16.097,4.53.595.156,1.194.308,1.79.463-.253-4.023-.463-8.049-.674-12.075-6.49-1.803-12.966-3.628-19.41-5.515.381,2.847.827,5.688,1.363,8.517.259,1.366.544,2.723.834,4.079Z" fill="#fc6363" stroke-width="0"/>
          <path d="M971.519,219.002c5.418-.272,10.834-.546,16.264-.82-.022-.238-.051-.474-.061-.716-.101-2.398.727-4.341,2.466-5.968.938-.878,1.821-1.8,2.678-2.744-5.472.269-10.934.525-16.399.768-3.752.167-7.49.349-11.231.527,1.019,1.257,2.064,2.492,3.162,3.676,1.427,1.538,2.457,3.345,3.121,5.277Z" fill="#fc6363" stroke-width="0"/>
          <path d="M756.269,224.744c3.462.069,6.923.115,10.383.156.458-1.432,1.146-2.854,2.074-4.236,1.435-2.137,3.141-4.011,4.956-5.782-3.433-.039-6.877-.087-10.313-.159-1.77,3.063-3.83,6.02-6.13,8.884-.313.39-.648.755-.969,1.137Z" fill="#fc6363" stroke-width="0"/>
          <path d="M640.515,216.964c-3.021-3.752-5.639-7.718-7.833-11.909-9.105-1.149-18.199-2.368-27.28-3.691-1.439,3.58-3.06,7.058-4.95,10.374,13.299,1.898,26.723,3.644,40.064,5.226Z" fill="#fc6363" stroke-width="0"/>
        </g>
      </g>
    </g>
  </g>
</svg>